<svg xmlns="http://www.w3.org/2000/svg" xmlns:xlink="http://www.w3.org/1999/xlink" width="29" height="29" viewBox="0 0 29 29" fill="none">
<path d="M25.375 23.5625L25.375 5.43752C25.375 4.4365 24.5635 3.62502 23.5625 3.62502L5.4375 3.625C4.43648 3.625 3.62499 4.43649 3.625 5.43751L3.62504 23.5625C3.62504 24.5635 4.43652 25.375 5.43753 25.375L23.5625 25.375C24.5635 25.375 25.375 24.5635 25.375 23.5625Z" stroke="rgba(232, 125, 49, 1)" stroke-width="2.5" stroke-linejoin="round"     fill="#E87D31" >
</path>
<path d="M14.4996 11.0659L12.7502 14.6368L8.77637 15.213L11.655 18.0274L10.9669 21.9409L14.4996 20.0576L18.0331 21.9409L17.35 18.0274L20.2237 15.213L16.2719 14.6368L14.4996 11.0659Z" stroke="rgba(255, 255, 255, 1.00)" stroke-width="2.5" stroke-linejoin="round"     fill="#FFFFFF" >
</path>
<path    stroke="rgba(255, 255, 255, 1.00)" stroke-width="2.5" stroke-linejoin="round" stroke-linecap="round"  d="M11.0659 7.63184L17.9343 7.63184">
</path>
</svg>
