<svg xmlns="http://www.w3.org/2000/svg" xmlns:xlink="http://www.w3.org/1999/xlink" width="48" height="48" viewBox="0 0 48 48" fill="none">
<rect  x="0" y="0" width="48" height="48" rx="12"    fill="#FFECE8" >
</rect>
<path d="M14 22L24 15L34 22L34 33L14 33L14 22Z" stroke="rgba(255, 145, 120, 1)" stroke-width="2" stroke-linejoin="round" stroke-linecap="round"    fill="#FF9178" >
</path>
<path d="M28.0162 22C28.0363 22 28.0554 22.0071 28.0706 22.0194L29.9717 23.5198C29.9726 23.5208 29.9736 23.5217 29.9745 23.5227C29.9755 23.5237 29.9763 23.5248 29.9772 23.5258C29.978 23.5269 29.9789 23.5279 29.9797 23.529C29.9805 23.5301 29.9813 23.5312 29.9821 23.5323C29.9828 23.5334 29.9835 23.5346 29.9842 23.5358C29.985 23.5369 29.9857 23.5381 29.9862 23.5393C29.9869 23.5405 29.9875 23.5417 29.9881 23.5429C29.9887 23.5441 29.9893 23.5454 29.9898 23.5466C29.9904 23.5479 29.9909 23.5491 29.9913 23.5504C29.9917 23.5517 29.9921 23.553 29.9925 23.5543C29.9929 23.5556 29.9933 23.5569 29.9936 23.5582C29.9939 23.5595 29.9943 23.5609 29.9945 23.5622C29.9948 23.5635 29.995 23.5648 29.9952 23.5662C29.9955 23.5675 29.9956 23.5689 29.9957 23.5702C29.9959 23.5716 29.996 23.5729 29.996 23.5743C29.9961 23.5757 29.9961 23.577 29.9961 23.5784C29.9961 23.5797 29.9961 23.5811 29.996 23.5824C29.996 23.5838 29.9959 23.5851 29.9957 23.5865C29.9956 23.5878 29.9955 23.5892 29.9952 23.5905C29.995 23.5919 29.9948 23.5932 29.9945 23.5945C29.9943 23.5959 29.9939 23.5972 29.9936 23.5985C29.9933 23.5998 29.9929 23.6011 29.9925 23.6024C29.9921 23.6037 29.9917 23.605 29.9913 23.6063C29.9909 23.6076 29.9904 23.6089 29.9898 23.6101C29.9893 23.6113 29.9887 23.6126 29.9881 23.6138C29.9875 23.615 29.9869 23.6162 29.9862 23.6174C29.9857 23.6186 29.985 23.6198 29.9842 23.621C29.9835 23.6221 29.9828 23.6233 29.9821 23.6244C29.9813 23.6255 29.9805 23.6266 29.9797 23.6277C29.9789 23.6288 29.978 23.6299 29.9772 23.6309C29.9763 23.632 29.9755 23.633 29.9745 23.634C29.9736 23.635 29.9726 23.636 29.9717 23.6369L29.9717 23.6512L28.0708 25.1516C28.0697 25.1524 28.0686 25.1532 28.0675 25.154C28.0663 25.1548 28.0651 25.1556 28.064 25.1563C28.0627 25.157 28.0615 25.1577 28.0604 25.1584C28.0591 25.1591 28.0578 25.1597 28.0566 25.1603C28.0553 25.1609 28.0541 25.1615 28.0528 25.1621C28.0516 25.1626 28.0502 25.1632 28.049 25.1637C28.0477 25.1642 28.0464 25.1646 28.045 25.1651C28.0437 25.1655 28.0424 25.1659 28.041 25.1663C28.0397 25.1667 28.0383 25.167 28.037 25.1673C28.0357 25.1676 28.0343 25.1679 28.0329 25.1682C28.0315 25.1684 28.0301 25.1686 28.0288 25.1688C28.0274 25.169 28.026 25.1691 28.0246 25.1693C28.0232 25.1694 28.0219 25.1695 28.0204 25.1695C28.019 25.1696 28.0177 25.1696 28.0162 25.1696C28.0148 25.1696 28.0135 25.1696 28.0121 25.1695C28.0107 25.1694 28.0094 25.1693 28.008 25.1692C28.0065 25.169 28.0052 25.1689 28.0038 25.1687C28.0024 25.1685 28.0011 25.1682 27.9997 25.168C27.9983 25.1677 27.997 25.1674 27.9956 25.1671C27.9942 25.1667 27.9929 25.1664 27.9916 25.166C27.9902 25.1656 27.9889 25.1652 27.9876 25.1647C27.9863 25.1643 27.9849 25.1638 27.9837 25.1633C27.9824 25.1628 27.9811 25.1622 27.9798 25.1617C27.9786 25.1611 27.9773 25.1605 27.9761 25.1599C27.9748 25.1592 27.9736 25.1586 27.9724 25.1579C27.9711 25.1572 27.97 25.1565 27.9688 25.1557C27.9676 25.155 27.9664 25.1542 27.9654 25.1534C27.9642 25.1526 27.963 25.1518 27.9619 25.1509C27.9608 25.1501 27.9597 25.1492 27.9587 25.1483C27.9576 25.1474 27.9566 25.1465 27.9556 25.1456C27.9546 25.1446 27.9535 25.1436 27.9525 25.1426C27.9516 25.1416 27.9506 25.1406 27.9497 25.1396C27.9483 25.1377 27.9469 25.1357 27.9455 25.1337C27.9443 25.1317 27.943 25.1296 27.9419 25.1275C27.9407 25.1254 27.9397 25.1232 27.9388 25.121C27.9379 25.1188 27.937 25.1166 27.9362 25.1143C27.9355 25.112 27.9349 25.1097 27.9344 25.1073C27.9338 25.105 27.9334 25.1026 27.933 25.1003C27.9327 25.0979 27.9325 25.0955 27.9324 25.0931C27.9323 25.0907 27.9322 25.0883 27.9323 25.0859L27.9323 24.1393L26.7458 24.1393C25.5748 24.1785 24.6462 25.1262 24.6462 26.2824C24.6462 27.4383 25.5748 28.3863 26.7455 28.4254L27.9323 28.4254L27.9323 27.4763C27.9323 27.4306 27.97 27.3935 28.0162 27.3935C28.0211 27.3936 28.0259 27.394 28.0306 27.3948C28.0354 27.3956 28.04 27.3967 28.0446 27.3982C28.0492 27.3996 28.0537 27.4014 28.058 27.4035C28.0624 27.4056 28.0666 27.4079 28.0706 27.4106L29.9717 28.913C29.9726 28.9139 29.9736 28.9149 29.9745 28.9159C29.9755 28.9169 29.9763 28.9179 29.9772 28.919C29.978 28.92 29.9789 28.9211 29.9797 28.9222C29.9805 28.9233 29.9813 28.9244 29.9821 28.9255C29.9828 28.9266 29.9835 28.9278 29.9842 28.9289C29.985 28.9301 29.9857 28.9313 29.9862 28.9325C29.9869 28.9336 29.9875 28.9349 29.9881 28.9361C29.9887 28.9373 29.9893 28.9386 29.9898 28.9398C29.9904 28.9411 29.9909 28.9423 29.9913 28.9436C29.9917 28.9449 29.9921 28.9462 29.9925 28.9475C29.9929 28.9488 29.9933 28.9501 29.9936 28.9514C29.9939 28.9527 29.9943 28.954 29.9945 28.9554C29.9948 28.9567 29.995 28.958 29.9952 28.9594C29.9955 28.9607 29.9956 28.9621 29.9957 28.9634C29.9959 28.9648 29.996 28.9661 29.996 28.9675C29.9961 28.9688 29.9961 28.9702 29.9961 28.9715C29.9961 28.9729 29.9961 28.9742 29.996 28.9756C29.996 28.977 29.9959 28.9783 29.9957 28.9797C29.9956 28.981 29.9955 28.9824 29.9952 28.9837C29.995 28.9851 29.9948 28.9864 29.9945 28.9877C29.9943 28.989 29.9939 28.9904 29.9936 28.9917C29.9933 28.993 29.9929 28.9943 29.9925 28.9956C29.9921 28.9969 29.9917 28.9982 29.9913 28.9995C29.9909 29.0008 29.9904 29.002 29.9898 29.0033C29.9893 29.0045 29.9887 29.0058 29.9881 29.007C29.9875 29.0082 29.9869 29.0094 29.9862 29.0106C29.9857 29.0118 29.985 29.013 29.9842 29.0141C29.9835 29.0153 29.9828 29.0165 29.9821 29.0176C29.9813 29.0187 29.9805 29.0198 29.9797 29.0209C29.9789 29.022 29.978 29.023 29.9772 29.0241C29.9763 29.0251 29.9755 29.0262 29.9745 29.0272C29.9736 29.0282 29.9726 29.0291 29.9717 29.0301L29.9717 29.0424L28.0708 30.545C28.0692 30.5463 28.0676 30.5476 28.066 30.5487C28.0645 30.5499 28.0628 30.5511 28.061 30.5521C28.0593 30.5532 28.0575 30.5542 28.0558 30.5551C28.054 30.5561 28.0522 30.5569 28.0502 30.5577C28.0484 30.5585 28.0465 30.5593 28.0446 30.56C28.0427 30.5606 28.0408 30.5612 28.0388 30.5617C28.0369 30.5623 28.0349 30.5628 28.0329 30.5631C28.031 30.5636 28.029 30.5639 28.027 30.5641C28.025 30.5644 28.0229 30.5646 28.0209 30.5646C28.0189 30.5648 28.0169 30.5648 28.0148 30.5647C28.0128 30.5647 28.0108 30.5646 28.0088 30.5644C28.0068 30.5642 28.0048 30.564 28.0028 30.5636C28.0008 30.5633 27.9987 30.563 27.9968 30.5625C27.9949 30.5621 27.9929 30.5616 27.991 30.5609C27.989 30.5603 27.9872 30.5596 27.9853 30.5589C27.9833 30.5581 27.9815 30.5573 27.9797 30.5564C27.9779 30.5556 27.9762 30.5547 27.9744 30.5537C27.9726 30.5527 27.971 30.5517 27.9693 30.5506C27.9676 30.5495 27.966 30.5483 27.9644 30.5471C27.9628 30.5459 27.9613 30.5446 27.9598 30.5432C27.9583 30.5419 27.9569 30.5405 27.9556 30.5391C27.9541 30.5377 27.9528 30.5362 27.9515 30.5346C27.9503 30.5331 27.949 30.5316 27.9479 30.5299C27.9467 30.5283 27.9456 30.5266 27.9445 30.5249C27.9435 30.5232 27.9425 30.5215 27.9416 30.5197C27.9407 30.5179 27.9398 30.5162 27.9391 30.5143C27.9382 30.5125 27.9375 30.5107 27.9369 30.5087C27.9362 30.5069 27.9356 30.505 27.9351 30.503C27.9345 30.5011 27.9341 30.4992 27.9338 30.4972C27.9334 30.4953 27.9331 30.4932 27.9329 30.4912C27.9326 30.4893 27.9325 30.4873 27.9324 30.4853C27.9323 30.4833 27.9322 30.4813 27.9323 30.4793L27.9323 29.5328L26.7458 29.5328C26.713 29.532 26.6801 29.5307 26.6472 29.5289C26.6143 29.5271 26.5814 29.5249 26.5486 29.5221C26.5157 29.5193 26.483 29.5161 26.4503 29.5123C26.4176 29.5086 26.3849 29.5043 26.3524 29.4996C26.3198 29.4949 26.2873 29.4897 26.2548 29.484C26.2224 29.4783 26.1901 29.4721 26.1578 29.4654C26.1256 29.4588 26.0934 29.4516 26.0614 29.444C26.0294 29.4364 25.9975 29.4283 25.9657 29.4197C25.9339 29.4111 25.9022 29.4021 25.8707 29.3926C25.8392 29.383 25.8078 29.373 25.7766 29.3626C25.7454 29.3521 25.7143 29.3412 25.6834 29.3298C25.6525 29.3184 25.6218 29.3065 25.5913 29.2942C25.5608 29.2819 25.5304 29.2691 25.5003 29.2559C25.4701 29.2427 25.4401 29.229 25.4104 29.2149C25.3806 29.2008 25.3511 29.1862 25.3218 29.1712C25.2925 29.1563 25.2634 29.1408 25.2346 29.125C25.2057 29.1091 25.1771 29.0928 25.1488 29.0761C25.1204 29.0593 25.0923 29.0422 25.0644 29.0246C25.0366 29.0071 25.009 28.9891 24.9817 28.9707C24.9544 28.9523 24.9273 28.9335 24.9006 28.9143C24.8738 28.8951 24.8474 28.8755 24.8212 28.8555C24.7951 28.8355 24.7692 28.8152 24.7436 28.7944C24.7181 28.7736 24.6929 28.7525 24.6679 28.731C24.643 28.7094 24.6184 28.6876 24.5942 28.6653C24.5699 28.643 24.546 28.6204 24.5224 28.5975C24.4988 28.5745 24.4755 28.5512 24.4526 28.5275C24.4298 28.5038 24.4072 28.4798 24.385 28.4555C24.3629 28.4312 24.3411 28.4065 24.3196 28.3815C24.2982 28.3565 24.2771 28.3312 24.2565 28.3056C24.2358 28.28 24.2155 28.254 24.1956 28.2278C24.1757 28.2016 24.1562 28.1751 24.1371 28.1482C24.1179 28.1214 24.0992 28.0943 24.0809 28.067L24.1669 27.9339C23.5899 28.8993 22.5531 29.4997 21.4266 29.5325L20.0639 29.5328L20.0639 30.4793C20.064 30.4819 20.0639 30.4846 20.0637 30.4872C20.0636 30.4899 20.0633 30.4925 20.0629 30.4951C20.0625 30.4977 20.062 30.5003 20.0614 30.5028C20.0607 30.5054 20.06 30.5079 20.0591 30.5104C20.0583 30.5129 20.0573 30.5153 20.0563 30.5177C20.0552 30.5202 20.054 30.5225 20.0527 30.5248C20.0515 30.5271 20.0501 30.5293 20.0486 30.5315C20.0471 30.5337 20.0456 30.5359 20.0439 30.5379C20.043 30.5389 20.0421 30.54 20.0412 30.541C20.0403 30.542 20.0393 30.5431 20.0384 30.544C20.0374 30.545 20.0364 30.546 20.0354 30.5468C20.0344 30.5478 20.0333 30.5487 20.0323 30.5496C20.0312 30.5505 20.0301 30.5513 20.029 30.5521C20.0279 30.5529 20.0268 30.5538 20.0256 30.5545C20.0245 30.5554 20.0233 30.556 20.0221 30.5567C20.021 30.5574 20.0198 30.5581 20.0186 30.5588C20.0173 30.5595 20.0161 30.5601 20.0149 30.5606C20.0136 30.5613 20.0124 30.5618 20.0111 30.5623C20.0098 30.5629 20.0085 30.5634 20.0072 30.5638C20.0059 30.5643 20.0046 30.5648 20.0033 30.5652C20.002 30.5656 20.0007 30.5659 19.9993 30.5662C19.998 30.5666 19.9967 30.5669 19.9953 30.5672C19.9939 30.5675 19.9926 30.5677 19.9912 30.5679C19.9899 30.5681 19.9885 30.5682 19.9871 30.5684C19.9858 30.5686 19.9844 30.5687 19.983 30.5687C19.9816 30.5688 19.9803 30.5688 19.9789 30.5688C19.9775 30.5688 19.9761 30.5688 19.9747 30.5687C19.9734 30.5687 19.972 30.5686 19.9706 30.5684C19.9692 30.5683 19.9679 30.5682 19.9665 30.5679C19.9651 30.5677 19.9638 30.5676 19.9624 30.5672C19.9611 30.567 19.9597 30.5667 19.9584 30.5663C19.9571 30.5661 19.9557 30.5657 19.9544 30.5652C19.9531 30.5649 19.9518 30.5645 19.9505 30.564C19.9492 30.5636 19.9479 30.5631 19.9466 30.5625C19.9453 30.562 19.9441 30.5615 19.9428 30.5609C19.9416 30.5603 19.9404 30.5596 19.9391 30.559C19.9379 30.5584 19.9367 30.5577 19.9355 30.5569C19.9343 30.5563 19.9332 30.5556 19.932 30.5548C19.9309 30.554 19.9298 30.5533 19.9286 30.5524C19.9275 30.5516 19.9264 30.5508 19.9254 30.5498L18.0245 29.0424L18.0245 29.0304C18.0236 29.0294 18.0226 29.0284 18.0217 29.0274C18.0208 29.0264 18.0199 29.0254 18.019 29.0244C18.0182 29.0233 18.0173 29.0223 18.0165 29.0212C18.0157 29.0201 18.0149 29.019 18.0142 29.0179C18.0134 29.0167 18.0127 29.0156 18.012 29.0144C18.0113 29.0133 18.0106 29.0121 18.0099 29.0109C18.0093 29.0097 18.0087 29.0085 18.0081 29.0073C18.0075 29.006 18.007 29.0048 18.0064 29.0036C18.0059 29.0023 18.0054 29.001 18.005 28.9998C18.0045 28.9985 18.0041 28.9972 18.0037 28.9959C18.0033 28.9946 18.0029 28.9933 18.0026 28.992C18.0022 28.9907 18.0019 28.9893 18.0017 28.988C18.0014 28.9867 18.0012 28.9853 18.001 28.984C18.0008 28.9827 18.0006 28.9813 18.0005 28.98C18.0003 28.9786 18.0002 28.9772 18.0002 28.9759C18.0001 28.9745 18.0001 28.9732 18.0001 28.9718C18.0001 28.9705 18.0001 28.9691 18.0002 28.9678C18.0002 28.9664 18.0003 28.965 18.0005 28.9637C18.0006 28.9623 18.0008 28.961 18.001 28.9596C18.0012 28.9583 18.0014 28.957 18.0017 28.9556C18.0019 28.9543 18.0022 28.953 18.0026 28.9517C18.0029 28.9503 18.0033 28.949 18.0037 28.9477C18.0041 28.9464 18.0045 28.9452 18.005 28.9439C18.0054 28.9426 18.0059 28.9413 18.0064 28.9401C18.007 28.9388 18.0075 28.9376 18.0081 28.9364C18.0087 28.9351 18.0093 28.9339 18.0099 28.9327C18.0106 28.9315 18.0113 28.9304 18.012 28.9292C18.0127 28.928 18.0134 28.9269 18.0142 28.9258C18.0149 28.9247 18.0157 28.9235 18.0165 28.9225C18.0173 28.9214 18.0182 28.9203 18.019 28.9193C18.0199 28.9182 18.0208 28.9172 18.0217 28.9162C18.0226 28.9152 18.0236 28.9142 18.0245 28.9133L19.9254 27.4106C19.9287 27.4083 19.9321 27.4062 19.9357 27.4044C19.9392 27.4025 19.9429 27.4008 19.9466 27.3994C19.9504 27.3979 19.9542 27.3967 19.9581 27.3957C19.962 27.3947 19.9659 27.394 19.9699 27.3935C20.0165 27.3935 20.0539 27.4306 20.0539 27.4763L20.0539 28.4254L21.2381 28.4254C22.0316 28.4517 22.7762 28.0493 23.1809 27.3752C23.1933 27.3547 23.2052 27.334 23.2169 27.3131C23.2285 27.2922 23.2398 27.2711 23.2507 27.2498C23.2616 27.2285 23.2722 27.207 23.2824 27.1854C23.2926 27.1637 23.3024 27.1419 23.3119 27.1199C23.3213 27.098 23.3304 27.0758 23.3391 27.0536C23.3478 27.0313 23.3561 27.0088 23.3641 26.9863C23.372 26.9637 23.3796 26.941 23.3868 26.9182C23.3939 26.8954 23.4007 26.8724 23.4071 26.8494C23.4135 26.8263 23.4195 26.8032 23.4251 26.7799C23.4308 26.7567 23.436 26.7333 23.4408 26.7099C23.4456 26.6865 23.4501 26.6629 23.4541 26.6394C23.4581 26.6158 23.4618 26.5921 23.465 26.5684C23.4682 26.5447 23.471 26.521 23.4735 26.4972C23.4759 26.4734 23.4779 26.4495 23.4795 26.4257C23.4812 26.4018 23.4824 26.3779 23.4832 26.354C23.484 26.3301 23.4844 26.3062 23.4844 26.2822C23.4844 26.2583 23.484 26.2344 23.4832 26.2105C23.4824 26.1866 23.4812 26.1627 23.4795 26.1388C23.4779 26.1149 23.4759 26.0911 23.4735 26.0673C23.471 26.0435 23.4682 26.0197 23.465 25.996C23.4618 25.9723 23.4581 25.9487 23.4541 25.9251C23.4501 25.9015 23.4456 25.878 23.4408 25.8546C23.436 25.8312 23.4308 25.8078 23.4251 25.7846C23.4195 25.7613 23.4135 25.7381 23.4071 25.7151C23.4007 25.692 23.3939 25.6691 23.3868 25.6463C23.3796 25.6235 23.372 25.6008 23.3641 25.5782C23.3561 25.5556 23.3478 25.5332 23.3391 25.5109C23.3304 25.4886 23.3213 25.4665 23.3119 25.4445C23.3024 25.4225 23.2926 25.4007 23.2824 25.3791C23.2722 25.3574 23.2616 25.336 23.2507 25.3147C23.2398 25.2934 23.2285 25.2723 23.2169 25.2514C23.2052 25.2305 23.1933 25.2098 23.1809 25.1893C23.1693 25.17 23.1574 25.151 23.1452 25.1321C23.1329 25.1133 23.1204 25.0946 23.1076 25.0761C23.0948 25.0576 23.0817 25.0393 23.0684 25.0212C23.055 25.0032 23.0414 24.9853 23.0274 24.9676C23.0135 24.95 22.9993 24.9326 22.9849 24.9153C22.9704 24.8981 22.9557 24.8811 22.9407 24.8644C22.9257 24.8476 22.9105 24.8311 22.895 24.8148C22.8795 24.7985 22.8638 24.7825 22.8478 24.7667C22.8318 24.7509 22.8155 24.7353 22.799 24.72C22.7826 24.7047 22.7659 24.6897 22.7489 24.6749C22.732 24.6601 22.7148 24.6456 22.6974 24.6314C22.68 24.6171 22.6624 24.6031 22.6446 24.5894C22.6268 24.5757 22.6088 24.5623 22.5905 24.5492C22.5723 24.536 22.5538 24.5232 22.5352 24.5106C22.5166 24.498 22.4977 24.4857 22.4787 24.4737C22.4597 24.4618 22.4405 24.4501 22.4211 24.4387C22.4017 24.4273 22.3822 24.4162 22.3625 24.4054C22.3427 24.3946 22.3228 24.3841 22.3028 24.3739C22.2828 24.3638 22.2626 24.3539 22.2422 24.3444C22.2218 24.3348 22.2014 24.3256 22.1807 24.3167C22.1601 24.3077 22.1393 24.2992 22.1184 24.2909C22.0975 24.2826 22.0765 24.2747 22.0553 24.2671C22.0341 24.2594 22.0129 24.2521 21.9915 24.2452C21.9701 24.2382 21.9486 24.2316 21.9271 24.2253C21.9055 24.219 21.8838 24.213 21.862 24.2074C21.8403 24.2018 21.8184 24.1965 21.7965 24.1916C21.7746 24.1866 21.7526 24.182 21.7305 24.1778C21.7084 24.1735 21.6863 24.1696 21.6641 24.166C21.6419 24.1624 21.6196 24.1592 21.5973 24.1563C21.575 24.1534 21.5527 24.1508 21.5303 24.1486C21.508 24.1464 21.4856 24.1446 21.4631 24.1431C21.4407 24.1416 21.4182 24.1404 21.3958 24.1396L20.0642 24.1393L20.0642 25.0859C20.0642 25.0883 20.064 25.0908 20.0638 25.0932C20.0636 25.0956 20.0632 25.098 20.0628 25.1004C20.0623 25.1028 20.0618 25.1052 20.0611 25.1075C20.0605 25.1099 20.0597 25.1122 20.0589 25.1145C20.058 25.1168 20.0571 25.119 20.056 25.1212C20.055 25.1234 20.0538 25.1256 20.0526 25.1277C20.0514 25.1298 20.0501 25.1318 20.0487 25.1338C20.0473 25.1358 20.0458 25.1377 20.0442 25.1396C20.0433 25.1407 20.0424 25.1417 20.0415 25.1427C20.0406 25.1438 20.0396 25.1448 20.0387 25.1457C20.0377 25.1467 20.0367 25.1477 20.0357 25.1486C20.0347 25.1495 20.0336 25.1504 20.0325 25.1513C20.0315 25.1522 20.0304 25.153 20.0293 25.1539C20.0282 25.1547 20.0271 25.1555 20.0259 25.1562C20.0248 25.157 20.0236 25.1578 20.0224 25.1585C20.0213 25.1592 20.0201 25.1599 20.0188 25.1605C20.0176 25.1612 20.0164 25.1618 20.0152 25.1624C20.0139 25.163 20.0126 25.1635 20.0114 25.1641C20.0101 25.1646 20.0088 25.1651 20.0075 25.1656C20.0062 25.166 20.0049 25.1665 20.0036 25.1669C20.0023 25.1673 20.001 25.1676 19.9996 25.168C19.9983 25.1683 19.9969 25.1686 19.9956 25.1689C19.9942 25.1692 19.9929 25.1694 19.9915 25.1696C19.9902 25.1698 19.9888 25.17 19.9874 25.1701C19.986 25.1703 19.9847 25.1704 19.9833 25.1704C19.9819 25.1705 19.9805 25.1706 19.9792 25.1706C19.9778 25.1706 19.9764 25.1705 19.975 25.1705C19.9736 25.1704 19.9723 25.1703 19.9709 25.1702C19.9695 25.17 19.9682 25.1699 19.9668 25.1697C19.9654 25.1695 19.9641 25.1693 19.9627 25.169C19.9614 25.1687 19.96 25.1684 19.9587 25.1681C19.9573 25.1678 19.956 25.1674 19.9547 25.167C19.9534 25.1666 19.9521 25.1662 19.9508 25.1657C19.9495 25.1653 19.9482 25.1648 19.9469 25.1642C19.9456 25.1637 19.9444 25.1632 19.9431 25.1626C19.9419 25.162 19.9406 25.1614 19.9394 25.1607C19.9382 25.1601 19.937 25.1594 19.9358 25.1587C19.9346 25.158 19.9335 25.1573 19.9323 25.1565C19.9312 25.1557 19.93 25.1549 19.9289 25.1541C19.9278 25.1533 19.9267 25.1525 19.9257 25.1516L18.0245 23.6515L18.0245 23.6366C18.0237 23.6356 18.0228 23.6345 18.022 23.6334C18.0212 23.6323 18.0204 23.6312 18.0196 23.6301C18.0189 23.6289 18.0181 23.6278 18.0174 23.6266C18.0167 23.6255 18.016 23.6243 18.0154 23.6231C18.0147 23.6218 18.0141 23.6206 18.0135 23.6194C18.0129 23.6182 18.0124 23.6169 18.0119 23.6157C18.0113 23.6144 18.0108 23.6131 18.0104 23.6118C18.0099 23.6105 18.0095 23.6092 18.0091 23.6079C18.0087 23.6066 18.0083 23.6053 18.008 23.604C18.0077 23.6027 18.0074 23.6013 18.0071 23.6C18.0068 23.5986 18.0066 23.5973 18.0064 23.5959C18.0062 23.5946 18.0061 23.5932 18.0059 23.5919C18.0058 23.5905 18.0057 23.5891 18.0056 23.5878C18.0056 23.5864 18.0056 23.585 18.0056 23.5837C18.0056 23.5823 18.0056 23.5809 18.0057 23.5796C18.0058 23.5782 18.0059 23.5768 18.006 23.5755C18.0062 23.5741 18.0063 23.5728 18.0065 23.5714C18.0068 23.5701 18.007 23.5687 18.0073 23.5674C18.0075 23.5661 18.0079 23.5647 18.0082 23.5634C18.0085 23.5621 18.0089 23.5608 18.0093 23.5595C18.0097 23.5581 18.0102 23.5569 18.0107 23.5556C18.0111 23.5543 18.0116 23.553 18.0122 23.5518C18.0127 23.5505 18.0133 23.5493 18.0139 23.548C18.0145 23.5468 18.0151 23.5456 18.0158 23.5444C18.0164 23.5432 18.0171 23.542 18.0178 23.5409C18.0185 23.5397 18.0193 23.5385 18.0201 23.5374C18.0208 23.5363 18.0216 23.5352 18.0225 23.5341C18.0233 23.533 18.0242 23.5319 18.0251 23.5309C18.0259 23.5299 18.0268 23.5288 18.0278 23.5278C18.0287 23.5269 18.0297 23.5259 18.0307 23.5249C18.0316 23.524 18.0326 23.523 18.0337 23.5221C18.0347 23.5213 18.0358 23.5204 18.0368 23.5195L19.9254 22.0194C19.9285 22.0168 19.9319 22.0144 19.9354 22.0122C19.9389 22.0101 19.9425 22.0082 19.9463 22.0065C19.95 22.0049 19.9539 22.0035 19.9579 22.0024C19.9618 22.0013 19.9659 22.0005 19.9699 22C20.0165 22 20.0539 22.0371 20.0539 22.0828L20.0539 23.032L21.2381 23.032C22.3835 23.0008 23.4586 23.5589 24.0829 24.4978C24.1012 24.4704 24.1199 24.4433 24.1389 24.4165C24.158 24.3897 24.1775 24.3631 24.1974 24.3369C24.2172 24.3107 24.2375 24.2847 24.2581 24.2591C24.2788 24.2335 24.2998 24.2082 24.3212 24.1832C24.3426 24.1582 24.3644 24.1335 24.3865 24.1091C24.4087 24.0848 24.4312 24.0608 24.454 24.0371C24.4769 24.0134 24.5001 23.9901 24.5237 23.9671C24.5473 23.9442 24.5712 23.9215 24.5954 23.8993C24.6196 23.877 24.6442 23.8551 24.6691 23.8336C24.694 23.8121 24.7192 23.7909 24.7447 23.7702C24.7703 23.7494 24.7961 23.729 24.8222 23.709C24.8484 23.689 24.8748 23.6694 24.9015 23.6502C24.9283 23.631 24.9553 23.6122 24.9826 23.5938C25.0099 23.5754 25.0374 23.5574 25.0653 23.5399C25.0931 23.5223 25.1212 23.5052 25.1495 23.4884C25.1779 23.4717 25.2064 23.4554 25.2353 23.4395C25.2641 23.4237 25.2932 23.4082 25.3225 23.3932C25.3518 23.3782 25.3813 23.3637 25.411 23.3495C25.4407 23.3354 25.4707 23.3218 25.5008 23.3085C25.531 23.2953 25.5613 23.2826 25.5918 23.2703C25.6223 23.2579 25.653 23.2461 25.6839 23.2347C25.7148 23.2233 25.7458 23.2124 25.777 23.2019C25.8082 23.1915 25.8396 23.1815 25.8711 23.1719C25.9026 23.1624 25.9342 23.1534 25.966 23.1448C25.9978 23.1362 26.0297 23.1281 26.0617 23.1205C26.0937 23.1129 26.1258 23.1058 26.1581 23.0991C26.1903 23.0925 26.2226 23.0863 26.255 23.0806C26.2875 23.0749 26.32 23.0697 26.3525 23.065C26.3851 23.0603 26.4177 23.0561 26.4505 23.0523C26.4832 23.0486 26.5159 23.0453 26.5486 23.0426C26.5815 23.0398 26.6143 23.0376 26.6472 23.0358C26.6801 23.034 26.713 23.0327 26.7458 23.032L27.9323 23.032L27.9323 22.0828C27.9323 22.0608 27.9412 22.04 27.9569 22.0243C27.9588 22.0224 27.9609 22.0205 27.963 22.0188C27.9651 22.0171 27.9674 22.0155 27.9696 22.0139C27.9719 22.0124 27.9743 22.011 27.9767 22.0098C27.9792 22.0085 27.9816 22.0073 27.9842 22.0063C27.9867 22.0052 27.9893 22.0043 27.992 22.0035C27.9946 22.0028 27.9972 22.0021 27.9999 22.0016C28.0026 22.001 28.0053 22.0007 28.008 22.0004C28.0108 22.0001 28.0135 22 28.0162 22Z"   fill="#FFFFFF" >
</path>
</svg>
