<svg xmlns="http://www.w3.org/2000/svg" xmlns:xlink="http://www.w3.org/1999/xlink" width="48" height="48" viewBox="0 0 48 48" fill="none">
<rect  x="0" y="0" width="48" height="48" rx="12"    fill="#EBF4FF" >
</rect>
<path     fill="#52A0FF"  d="M14.5 31.5C14.5 32.3284 15.1716 33 16 33L32 33C32.8284 33 33.5 32.3284 33.5 31.5L33.5 21.5C33.5 20.6716 32.8284 20 32 20L16 20C15.1716 20 14.5 20.6716 14.5 21.5L14.5 31.5">
</path>
<path   fill="rgba(82, 160, 255, 1)"  d="M15.5 21.5L15.5 31.5L15.5 31.5C15.5 31.7761 15.7239 32 16 32L16 33L16 32L32 32L32 33L32 32C32.2761 32 32.5 31.7761 32.5 31.5L33.5 31.5L32.5 31.5L32.5 21.5L33.5 21.5L32.5 21.5C32.5 21.2239 32.2761 21 32 21L32 21L16 21L16 20L16 21C15.7239 21 15.5 21.2239 15.5 21.5L15.5 21.5ZM13.5 21.5L14.5 21.5L13.5 21.5C13.5 20.1193 14.6193 19 16 19L16 19L32 19L32 20L32 19C33.3807 19 34.5 20.1193 34.5 21.5L34.5 21.5L34.5 31.5L34.5 31.5C34.5 32.8807 33.3807 34 32 34L32 34L16 34L16 34C14.6193 34 13.5 32.8807 13.5 31.5L14.5 31.5L13.5 31.5L13.5 21.5Z">
</path>
<path d="M19 16.5C19 15.1193 20.1193 14 21.5 14L26.5 14C27.8807 14 29 15.1193 29 16.5L29 20L27 20L27 16.5C27 16.2239 26.7761 16 26.5 16L21.5 16C21.2239 16 21 16.2239 21 16.5L21 20L19 20L19 16.5Z" fill-rule="evenodd"  fill="#52A0FF" >
</path>
<path d="M27.3333 25.0166C27.1041 25.0166 26.9166 25.2041 26.9166 25.4333L26.9166 27.6666C26.9166 28.1249 26.5416 28.4999 26.0833 28.4999L21.6708 28.4999L22.2083 27.9624C22.2131 27.9576 22.2178 27.9527 22.2224 27.9477C22.227 27.9426 22.2314 27.9375 22.2357 27.9322C22.24 27.927 22.2442 27.9216 22.2483 27.9162C22.2523 27.9107 22.2562 27.9051 22.26 27.8995C22.2638 27.8938 22.2674 27.8881 22.2709 27.8823C22.2744 27.8764 22.2778 27.8705 22.281 27.8645C22.2842 27.8585 22.2873 27.8524 22.2902 27.8463C22.2931 27.8402 22.2958 27.8339 22.2984 27.8277C22.3011 27.8214 22.3035 27.815 22.3058 27.8086C22.3081 27.8022 22.3102 27.7958 22.3122 27.7893C22.3142 27.7828 22.316 27.7762 22.3176 27.7696C22.3193 27.763 22.3208 27.7564 22.3221 27.7497C22.3235 27.743 22.3246 27.7363 22.3256 27.7296C22.3266 27.7229 22.3274 27.7161 22.3281 27.7094C22.3288 27.7026 22.3293 27.6958 22.3296 27.689C22.33 27.6822 22.3301 27.6754 22.3301 27.6686C22.3301 27.6618 22.33 27.655 22.3296 27.6483C22.3293 27.6415 22.3288 27.6347 22.3281 27.6279C22.3275 27.6211 22.3266 27.6144 22.3256 27.6077C22.3246 27.6009 22.3235 27.5942 22.3222 27.5876C22.3208 27.5809 22.3193 27.5743 22.3177 27.5677C22.316 27.5611 22.3142 27.5545 22.3123 27.548C22.3103 27.5415 22.3082 27.535 22.3059 27.5286C22.3036 27.5222 22.3011 27.5159 22.2985 27.5096C22.2959 27.5033 22.2932 27.4971 22.2903 27.491C22.2874 27.4848 22.2843 27.4787 22.2811 27.4727C22.2779 27.4667 22.2745 27.4608 22.271 27.455C22.2675 27.4492 22.2639 27.4434 22.2601 27.4378C22.2564 27.4321 22.2524 27.4265 22.2484 27.4211C22.2443 27.4156 22.2402 27.4103 22.2358 27.405C22.2315 27.3997 22.2271 27.3946 22.2225 27.3896C22.218 27.3845 22.2133 27.3796 22.2085 27.3748C22.2036 27.37 22.1987 27.3653 22.1937 27.3607C22.1886 27.3562 22.1835 27.3517 22.1782 27.3474C22.173 27.3431 22.1676 27.3389 22.1622 27.3349C22.1567 27.3308 22.1511 27.3269 22.1455 27.3231C22.1398 27.3193 22.1341 27.3157 22.1283 27.3122C22.1224 27.3087 22.1165 27.3054 22.1105 27.3021C22.1045 27.2989 22.0984 27.2959 22.0923 27.293C22.0861 27.2901 22.0799 27.2873 22.0736 27.2847C22.0674 27.2821 22.061 27.2797 22.0546 27.2774C22.0482 27.2751 22.0417 27.273 22.0352 27.271C22.0287 27.269 22.0222 27.2672 22.0156 27.2655C22.009 27.2639 22.0023 27.2624 21.9957 27.2611C21.989 27.2598 21.9823 27.2586 21.9756 27.2576C21.9689 27.2566 21.9621 27.2558 21.9553 27.2551C21.9486 27.2544 21.9418 27.2539 21.935 27.2536C21.9282 27.2533 21.9214 27.2531 21.9146 27.2531C21.9078 27.2531 21.901 27.2533 21.8942 27.2536C21.8874 27.254 21.8806 27.2545 21.8739 27.2551C21.8671 27.2558 21.8604 27.2566 21.8536 27.2576C21.8469 27.2586 21.8402 27.2598 21.8335 27.2611C21.8269 27.2625 21.8202 27.2639 21.8136 27.2656C21.807 27.2672 21.8005 27.2691 21.794 27.271C21.7875 27.273 21.781 27.2752 21.7746 27.2775C21.7682 27.2797 21.7619 27.2822 21.7556 27.2848C21.7493 27.2874 21.7431 27.2902 21.7369 27.2931C21.7308 27.296 21.7247 27.299 21.7187 27.3022C21.7127 27.3055 21.7068 27.3088 21.701 27.3123C21.6952 27.3158 21.6894 27.3194 21.6838 27.3232C21.6781 27.327 21.6725 27.3309 21.6671 27.335C21.6616 27.339 21.6563 27.3432 21.651 27.3475C21.6458 27.3518 21.6406 27.3563 21.6356 27.3609C21.6305 27.3654 21.6256 27.3701 21.6208 27.3749L20.3708 28.6249C20.366 28.6297 20.3613 28.6347 20.3567 28.6397C20.3522 28.6447 20.3477 28.6499 20.3434 28.6551C20.3391 28.6604 20.3349 28.6657 20.3308 28.6712C20.3268 28.6767 20.3229 28.6822 20.3191 28.6879C20.3153 28.6935 20.3117 28.6992 20.3082 28.7051C20.3046 28.7109 20.3013 28.7168 20.2981 28.7228C20.2949 28.7288 20.2918 28.7349 20.2889 28.741C20.286 28.7472 20.2832 28.7534 20.2806 28.7597C20.278 28.7659 20.2756 28.7723 20.2733 28.7787C20.271 28.7851 20.2689 28.7916 20.2669 28.7981C20.2649 28.8046 20.2631 28.8111 20.2614 28.8177C20.2598 28.8243 20.2583 28.8309 20.257 28.8376C20.2556 28.8443 20.2545 28.851 20.2535 28.8577C20.2525 28.8644 20.2516 28.8712 20.251 28.878C20.2503 28.8847 20.2498 28.8915 20.2495 28.8983C20.2491 28.9051 20.249 28.9119 20.249 28.9187C20.249 28.9255 20.2491 28.9323 20.2495 28.9391C20.2498 28.9459 20.2503 28.9526 20.251 28.9594C20.2516 28.9662 20.2525 28.9729 20.2535 28.9797C20.2545 28.9864 20.2556 28.9931 20.257 28.9997C20.2583 29.0064 20.2598 29.0131 20.2614 29.0196C20.2631 29.0262 20.2649 29.0328 20.2669 29.0393C20.2689 29.0458 20.271 29.0523 20.2733 29.0587C20.2756 29.0651 20.278 29.0714 20.2806 29.0777C20.2832 29.084 20.286 29.0902 20.2889 29.0963C20.2918 29.1025 20.2949 29.1086 20.2981 29.1145C20.3013 29.1205 20.3046 29.1265 20.3082 29.1323C20.3117 29.1381 20.3153 29.1439 20.3191 29.1495C20.3229 29.1552 20.3268 29.1607 20.3308 29.1662C20.3349 29.1716 20.3391 29.177 20.3434 29.1822C20.3477 29.1875 20.3522 29.1926 20.3567 29.1977C20.3613 29.2027 20.366 29.2076 20.3708 29.2124L21.6208 30.4624C21.7041 30.5416 21.8083 30.5833 21.9166 30.5833C22.025 30.5833 22.1291 30.5416 22.2125 30.4624C22.2173 30.4576 22.222 30.4527 22.2266 30.4477C22.2311 30.4426 22.2356 30.4375 22.2399 30.4322C22.2442 30.427 22.2484 30.4216 22.2525 30.4162C22.2565 30.4107 22.2604 30.4052 22.2642 30.3995C22.268 30.3939 22.2716 30.3881 22.2751 30.3823C22.2786 30.3765 22.282 30.3705 22.2852 30.3646C22.2884 30.3586 22.2915 30.3525 22.2944 30.3463C22.2973 30.3402 22.3 30.334 22.3027 30.3277C22.3053 30.3214 22.3077 30.3151 22.31 30.3087C22.3123 30.3023 22.3144 30.2958 22.3164 30.2893C22.3184 30.2828 22.3202 30.2762 22.3219 30.2696C22.3235 30.2631 22.325 30.2564 22.3263 30.2497C22.3277 30.2431 22.3288 30.2364 22.3298 30.2297C22.3308 30.2229 22.3317 30.2162 22.3323 30.2094C22.333 30.2026 22.3335 30.1959 22.3338 30.1891C22.3342 30.1823 22.3343 30.1755 22.3343 30.1687C22.3343 30.1619 22.3342 30.1551 22.3338 30.1483C22.3335 30.1415 22.333 30.1347 22.3323 30.1279C22.3317 30.1212 22.3308 30.1144 22.3298 30.1077C22.3288 30.101 22.3277 30.0943 22.3263 30.0876C22.325 30.0809 22.3235 30.0743 22.3219 30.0677C22.3202 30.0611 22.3184 30.0546 22.3164 30.0481C22.3144 30.0416 22.3123 30.0351 22.31 30.0287C22.3077 30.0223 22.3053 30.016 22.3027 30.0097C22.3 30.0034 22.2973 29.9972 22.2944 29.991C22.2915 29.9849 22.2884 29.9788 22.2852 29.9728C22.282 29.9668 22.2786 29.9609 22.2751 29.9551C22.2716 29.9492 22.268 29.9435 22.2642 29.9379C22.2604 29.9322 22.2565 29.9267 22.2525 29.9212C22.2484 29.9157 22.2442 29.9104 22.2399 29.9051C22.2356 29.8999 22.2311 29.8947 22.2266 29.8897C22.222 29.8847 22.2173 29.8797 22.2125 29.8749L21.6708 29.3333L26.0833 29.3333C27.0041 29.3333 27.75 28.5874 27.75 27.6666L27.75 25.4333C27.75 25.1999 27.5625 25.0166 27.3333 25.0166ZM20.6666 26.9833C20.8958 26.9833 21.0833 26.7958 21.0833 26.5666L21.0833 24.3333C21.0833 23.8749 21.4583 23.4999 21.9166 23.4999L26.3291 23.4999L25.7916 24.0374C25.7868 24.0422 25.7821 24.0472 25.7776 24.0522C25.773 24.0572 25.7686 24.0624 25.7642 24.0676C25.7599 24.0729 25.7557 24.0782 25.7517 24.0837C25.7476 24.0892 25.7437 24.0947 25.7399 24.1004C25.7361 24.106 25.7325 24.1117 25.729 24.1176C25.7255 24.1234 25.7221 24.1293 25.7189 24.1353C25.7157 24.1413 25.7127 24.1474 25.7097 24.1535C25.7068 24.1597 25.7041 24.1659 25.7015 24.1722C25.6989 24.1784 25.6964 24.1848 25.6941 24.1912C25.6918 24.1976 25.6897 24.2041 25.6877 24.2106C25.6857 24.2171 25.6839 24.2236 25.6823 24.2302C25.6806 24.2368 25.6791 24.2434 25.6778 24.2501C25.6765 24.2568 25.6753 24.2635 25.6743 24.2702C25.6733 24.2769 25.6725 24.2837 25.6718 24.2904C25.6711 24.2972 25.6706 24.304 25.6703 24.3108C25.67 24.3176 25.6698 24.3244 25.6698 24.3312C25.6698 24.338 25.67 24.3448 25.6703 24.3516C25.6706 24.3584 25.6711 24.3651 25.6718 24.3719C25.6725 24.3787 25.6733 24.3854 25.6743 24.3922C25.6753 24.3989 25.6765 24.4056 25.6778 24.4122C25.6791 24.4189 25.6806 24.4256 25.6823 24.4321C25.6839 24.4387 25.6857 24.4453 25.6877 24.4518C25.6897 24.4583 25.6918 24.4648 25.6941 24.4712C25.6964 24.4776 25.6989 24.4839 25.7015 24.4902C25.7041 24.4965 25.7068 24.5027 25.7097 24.5088C25.7127 24.515 25.7157 24.5211 25.7189 24.527C25.7221 24.533 25.7255 24.539 25.729 24.5448C25.7325 24.5506 25.7361 24.5564 25.7399 24.562C25.7437 24.5677 25.7476 24.5732 25.7517 24.5787C25.7557 24.5841 25.7599 24.5895 25.7642 24.5947C25.7686 24.6 25.773 24.6051 25.7776 24.6102C25.7821 24.6152 25.7868 24.6201 25.7916 24.6249C25.8708 24.7083 25.975 24.7499 26.0833 24.7499C26.1916 24.7499 26.2958 24.7083 26.3791 24.6291L27.6291 23.3791C27.634 23.3743 27.6387 23.3694 27.6432 23.3643C27.6478 23.3593 27.6522 23.3542 27.6566 23.3489C27.6609 23.3437 27.6651 23.3383 27.6691 23.3328C27.6732 23.3274 27.6771 23.3218 27.6809 23.3162C27.6847 23.3105 27.6883 23.3048 27.6918 23.299C27.6953 23.2931 27.6987 23.2872 27.7019 23.2812C27.7051 23.2752 27.7081 23.2691 27.7111 23.263C27.714 23.2569 27.7167 23.2506 27.7193 23.2444C27.7219 23.2381 27.7244 23.2317 27.7267 23.2253C27.729 23.2189 27.7311 23.2125 27.7331 23.206C27.7351 23.1995 27.7369 23.1929 27.7385 23.1863C27.7402 23.1797 27.7417 23.1731 27.743 23.1664C27.7443 23.1597 27.7455 23.153 27.7465 23.1463C27.7475 23.1396 27.7483 23.1328 27.749 23.1261C27.7497 23.1193 27.7502 23.1125 27.7505 23.1057C27.7508 23.0989 27.751 23.0921 27.751 23.0854C27.751 23.0785 27.7508 23.0717 27.7505 23.065C27.7502 23.0582 27.7497 23.0514 27.749 23.0446C27.7483 23.0379 27.7475 23.0311 27.7465 23.0244C27.7455 23.0176 27.7443 23.0109 27.743 23.0043C27.7417 22.9976 27.7402 22.991 27.7385 22.9844C27.7369 22.9778 27.7351 22.9712 27.7331 22.9647C27.7311 22.9582 27.729 22.9518 27.7267 22.9454C27.7244 22.939 27.7219 22.9326 27.7193 22.9263C27.7167 22.9201 27.714 22.9138 27.7111 22.9077C27.7081 22.9016 27.7051 22.8955 27.7019 22.8895C27.6987 22.8835 27.6953 22.8776 27.6918 22.8717C27.6883 22.8659 27.6847 22.8602 27.6809 22.8545C27.6771 22.8489 27.6732 22.8433 27.6691 22.8379C27.6651 22.8324 27.6609 22.827 27.6566 22.8218C27.6522 22.8165 27.6478 22.8114 27.6432 22.8064C27.6387 22.8013 27.634 22.7964 27.6291 22.7916L26.3791 21.5416C26.3743 21.5368 26.3694 21.5321 26.3644 21.5275C26.3593 21.523 26.3542 21.5185 26.3489 21.5142C26.3437 21.5099 26.3383 21.5057 26.3329 21.5017C26.3274 21.4976 26.3218 21.4937 26.3162 21.4899C26.3105 21.4862 26.3048 21.4825 26.299 21.479C26.2931 21.4755 26.2872 21.4722 26.2812 21.469C26.2752 21.4658 26.2692 21.4627 26.263 21.4598C26.2569 21.4569 26.2507 21.4541 26.2444 21.4515C26.2381 21.4489 26.2317 21.4465 26.2253 21.4442C26.219 21.4419 26.2125 21.4398 26.206 21.4378C26.1995 21.4358 26.1929 21.434 26.1863 21.4324C26.1797 21.4307 26.1731 21.4292 26.1664 21.4279C26.1598 21.4266 26.1531 21.4254 26.1463 21.4244C26.1396 21.4234 26.1329 21.4226 26.1261 21.4219C26.1193 21.4213 26.1126 21.4208 26.1058 21.4204C26.099 21.4201 26.0922 21.4199 26.0854 21.4199C26.0786 21.4199 26.0718 21.4201 26.065 21.4204C26.0582 21.4208 26.0514 21.4213 26.0447 21.4219C26.0379 21.4226 26.0312 21.4234 26.0244 21.4244C26.0177 21.4254 26.011 21.4266 26.0044 21.4279C25.9977 21.4292 25.991 21.4307 25.9845 21.4324C25.9779 21.434 25.9713 21.4358 25.9648 21.4378C25.9583 21.4398 25.9518 21.4419 25.9454 21.4442C25.939 21.4465 25.9327 21.4489 25.9264 21.4515C25.9201 21.4541 25.9139 21.4569 25.9078 21.4598C25.9016 21.4627 25.8956 21.4658 25.8896 21.469C25.8836 21.4722 25.8777 21.4755 25.8718 21.479C25.866 21.4825 25.8603 21.4862 25.8546 21.4899C25.8489 21.4937 25.8434 21.4976 25.8379 21.5017C25.8325 21.5057 25.8271 21.5099 25.8219 21.5142C25.8166 21.5185 25.8115 21.523 25.8064 21.5275C25.8014 21.5321 25.7965 21.5368 25.7916 21.5416C25.7868 21.5464 25.7821 21.5513 25.7776 21.5564C25.773 21.5614 25.7686 21.5665 25.7643 21.5718C25.76 21.5771 25.7558 21.5824 25.7517 21.5879C25.7477 21.5933 25.7438 21.5989 25.74 21.6045C25.7362 21.6102 25.7326 21.6159 25.7291 21.6218C25.7256 21.6276 25.7222 21.6335 25.719 21.6395C25.7158 21.6455 25.7128 21.6516 25.7099 21.6577C25.707 21.6639 25.7042 21.6701 25.7016 21.6764C25.699 21.6827 25.6966 21.689 25.6943 21.6954C25.692 21.7018 25.6898 21.7083 25.6879 21.7148C25.6859 21.7213 25.6841 21.7278 25.6824 21.7344C25.6808 21.741 25.6793 21.7476 25.6779 21.7543C25.6766 21.761 25.6755 21.7677 25.6745 21.7744C25.6735 21.7811 25.6726 21.7879 25.672 21.7946C25.6713 21.8014 25.6708 21.8082 25.6705 21.815C25.6701 21.8218 25.67 21.8285 25.67 21.8353C25.67 21.8421 25.6701 21.8489 25.6705 21.8557C25.6708 21.8625 25.6713 21.8693 25.672 21.8761C25.6726 21.8828 25.6735 21.8896 25.6745 21.8963C25.6755 21.903 25.6766 21.9097 25.6779 21.9164C25.6793 21.9231 25.6808 21.9297 25.6824 21.9363C25.6841 21.9429 25.6859 21.9494 25.6879 21.9559C25.6898 21.9624 25.692 21.9689 25.6943 21.9753C25.6966 21.9817 25.699 21.988 25.7016 21.9943C25.7042 22.0006 25.707 22.0068 25.7099 22.013C25.7128 22.0191 25.7158 22.0252 25.719 22.0312C25.7222 22.0372 25.7256 22.0431 25.7291 22.0489C25.7326 22.0547 25.7362 22.0605 25.74 22.0661C25.7438 22.0718 25.7477 22.0774 25.7517 22.0828C25.7558 22.0883 25.76 22.0936 25.7643 22.0989C25.7686 22.1041 25.773 22.1093 25.7776 22.1143C25.7821 22.1194 25.7868 22.1243 25.7916 22.1291L26.3291 22.6666L21.9166 22.6666C20.9958 22.6666 20.25 23.4124 20.25 24.3333L20.25 26.5666C20.25 26.7999 20.4375 26.9833 20.6666 26.9833Z"   fill="#FFFFFF" >
</path>
</svg>
