<svg xmlns="http://www.w3.org/2000/svg" xmlns:xlink="http://www.w3.org/1999/xlink" width="140" height="86" viewBox="0 0 140 86" fill="none">
<g >
<path     fill="#121236"  d="M6.4 4.46Q5.9 6.58 5.08 8.76L5.08 22.42L2.82 22.42L2.82 13.52Q2.16 14.62 1.52 15.5L0.74 12.4Q1.68 10.86 2.54 8.65Q3.4 6.44 4.06 3.98L6.4 4.46ZM18.44 22.32Q15.98 22.04 14.21 21.66Q12.44 21.28 11.02 20.66Q10.24 21.16 9.13 21.62Q8.02 22.08 6.4 22.58L5.36 20.44Q7.56 19.82 8.74 19.3Q7.74 18.56 6.74 17.4L8.14 16.3L6.76 16.3L6.76 8L11.38 8L11.38 6.64L6.66 6.64L6.66 4.66L18.82 4.66L18.82 6.64L13.64 6.64L13.64 8L18.1 8L18.1 16.3L13.54 16.3Q13.4 17.84 12.76 18.92Q15 19.62 19 19.88L18.44 22.32ZM11.38 11.24L11.38 9.9L9 9.9L9 11.24L11.38 11.24ZM15.86 11.24L15.86 9.9L13.64 9.9L13.64 11.24L15.86 11.24ZM11.38 12.96L9 12.96L9 14.34L11.38 14.34L11.38 14.18L11.38 12.96ZM13.64 12.96L13.64 14.34L15.86 14.34L15.86 12.96L13.64 12.96ZM8.64 16.3Q9.66 17.36 10.6 17.94Q11.06 17.32 11.24 16.3L8.64 16.3ZM38.94 20.02L38.52 22.02L33.86 22.02Q32.38 22.02 31.49 21.93Q30.6 21.84 29.79 21.47Q28.98 21.1 28.32 20.32Q27.62 21.46 26.4 22.5L24.88 21.26Q24.64 21.72 24.12 21.89Q23.6 22.06 22.62 22.06L21.42 22.06L20.98 19.82L21.98 19.82Q22.56 19.82 22.72 19.67Q22.88 19.52 22.88 19.02L22.88 15.68L21.4 16.32L20.92 13.8L22.88 13.04L22.88 9.64L21.28 9.64L21.28 7.3L22.88 7.3L22.88 4.1L25.14 4.1L25.14 7.3L26.52 7.3L26.52 9.64L25.14 9.64L25.14 12.14Q26.14 11.68 26.24 11.64L26.4 12.62L26.6 14.12L25.14 14.74L25.14 19.76Q25.14 20.38 25.06 20.76Q26.14 19.8 26.66 18.77Q27.18 17.74 27.3 16.22L29.52 16.44Q29.38 17.56 29.18 18.28Q29.48 18.82 29.91 19.16Q30.34 19.5 30.98 19.7L30.98 15.72L27.1 15.72L27.1 13.94L30.98 13.94L30.98 12.9L26.76 12.9L26.76 11.06L30.98 11.06L30.98 10.06L27.22 10.06L27.22 8.32L30.98 8.32L30.98 7.26L26.78 7.26L26.78 5.32L30.98 5.32L30.98 4.06L33.34 4.06L33.34 5.32L38.44 5.32L38.44 7.26L33.34 7.26L33.34 8.32L37.8 8.32L37.8 11.06L38.92 11.06L38.92 12.9L37.8 12.9L37.8 15.72L33.34 15.72L33.34 16.9L38.16 16.9L38.16 18.66L33.34 18.66L33.34 20Q33.58 20.02 34.12 20.02L38.94 20.02ZM35.64 10.06L33.34 10.06L33.34 11.06L35.64 11.06L35.64 10.06ZM35.64 12.9L33.34 12.9L33.34 13.94L35.64 13.94L35.64 12.9ZM58.96 5.28L58.96 7.16L41.1 7.16L41.1 5.28L48.8 5.28L48.28 4.06L50.94 3.74Q51.06 3.98 51.16 4.23Q51.26 4.48 51.36 4.7L51.6 5.28L58.96 5.28ZM43.74 12.32L43.74 8.12L56.34 8.12L56.34 12.32L43.74 12.32ZM46.06 10.72L53.98 10.72L53.98 9.72L46.06 9.72L46.06 10.72ZM41.98 22.26L41.98 13.28L58.12 13.28L58.12 19.8Q58.12 20.74 57.88 21.25Q57.64 21.76 57.08 21.98Q56.52 22.2 55.48 22.2L53.24 22.2L52.84 20.3L45.8 20.3L45.8 16.04L54.26 16.04L54.26 20.16L54.62 20.16Q55.32 20.16 55.52 19.97Q55.72 19.78 55.72 19.18L55.72 15.04L44.36 15.04L44.36 22.26L41.98 22.26ZM48.08 18.72L51.98 18.72L51.98 17.6L48.08 17.6L48.08 18.72ZM75.62 16.68Q76.94 18.42 79.12 19.96L77.72 22.38Q75.66 20.7 74.24 18.8Q72.8 20.58 70.38 22.48L68.62 20.58Q71.44 18.66 72.9 16.72Q71.78 14.66 71.22 12.36L70.86 12.94L69.52 10.96Q70.3 9.7 71.09 7.64Q71.88 5.58 72.14 4.02L74.5 4.38Q74.16 5.82 73.76 6.98L78.94 6.98L78.94 9.38L77.7 9.38Q77.42 11.68 76.91 13.45Q76.4 15.22 75.62 16.68ZM70.3 6.28L70.3 8.52L61.3 8.52L61.3 6.28L64.8 6.28Q64.6 5.38 64.3 4.44L66.76 4.1Q67.08 5.14 67.36 6.28L70.3 6.28ZM67.74 20.96L66.06 18.92Q64.56 20.82 62.28 22.36L60.86 20.16Q63.22 18.88 64.58 17.14L62.6 14.8L64.24 13.36Q65.04 14.18 65.84 15.08Q66.34 14.1 66.7 12.84L68.26 13.42L66.28 10.72L65.78 10.04L67.42 8.82Q69.66 11.84 70.58 13.1L69 14.46Q68.88 14.28 68.64 13.96Q68.18 15.42 67.42 16.86Q68.28 17.82 69.52 19.36L67.74 20.96ZM65.52 9.94Q64.14 12.52 62.34 14.46L60.82 13.02Q62.38 11.28 63.62 8.84L65.52 9.94ZM72.82 9.38Q73.22 12.26 74.24 14.44Q75.12 12.48 75.54 9.38L72.82 9.38Z">
</path>
</g>
<path    stroke="rgba(18, 18, 54, 1)" stroke-width="2"  stroke-linecap="round"  d="M2 33L38 33">
</path>
<g >
<path     fill="#121236"  d="M7.856 51.2Q9.088 49.68 9.808 47.952L8.24 47.952L8.24 46.624L10.32 46.624Q10.576 45.84 10.752 45.056L12.064 45.248Q11.888 45.984 11.68 46.624L15.024 46.624L15.024 47.952L11.184 47.952Q10.944 48.528 10.656 49.104L14.288 49.104L14.288 55.84Q14.288 56.656 13.96 56.944Q13.632 57.232 12.752 57.232L11.696 57.232L11.456 56.096L12.224 56.096Q12.736 56.096 12.896 55.952Q13.056 55.808 13.056 55.408L13.056 54.72L10.464 54.72L10.464 57.312L9.232 57.312L9.232 51.488Q8.768 52.144 8.32 52.672L7.856 51.2ZM6.656 48.976Q6.448 48.224 6.168 47.32Q5.888 46.416 5.648 45.68L6.864 45.344Q7.056 45.84 7.376 46.816Q7.696 47.792 7.92 48.528L6.656 48.976ZM5.408 54.912Q5.408 55.776 5.24 56.24Q5.072 56.704 4.68 56.904Q4.288 57.104 3.568 57.104L3.104 57.104L2.832 55.728L3.28 55.728Q3.856 55.728 4.056 55.512Q4.256 55.296 4.256 54.608Q4.256 53.264 3.184 51.312L4.048 47.328L2.736 47.328L2.736 59.84L1.472 59.84L1.472 45.888L5.296 45.888L5.296 47.328L4.416 51.104Q5.024 52.272 5.216 53.152Q5.408 54.032 5.408 54.912ZM15.152 58.096L14.928 59.472L10.768 59.472Q9.392 59.472 8.6 59.12Q7.808 58.768 7.008 57.776L5.248 59.728L4.4 58.48L6.32 56.496L6.32 51.712L5.2 51.712L5.2 50.24L7.616 50.24L7.616 56.496Q8.24 57.424 8.96 57.76Q9.68 58.096 10.96 58.096L15.152 58.096ZM10.464 51.424L13.056 51.424L13.056 50.4L10.464 50.4L10.464 51.424ZM10.464 52.544L10.464 53.6L13.056 53.6L13.056 52.544L10.464 52.544ZM31.136 48.256L31.136 49.808L29.488 49.808L29.488 57.472Q29.488 58.336 29.28 58.792Q29.072 59.248 28.544 59.448Q28.016 59.648 27.04 59.648L25.024 59.648L24.72 58.048L26.608 58.048Q27.216 58.048 27.496 57.968Q27.776 57.888 27.864 57.68Q27.952 57.472 27.952 56.992L27.952 49.808L23.28 49.808L23.28 48.256L27.952 48.256L27.952 45.184L29.488 45.184L29.488 48.256L31.136 48.256ZM18.976 59.2L17.52 59.2L17.52 46.256L22.672 46.256L22.672 58.032L18.976 58.032L18.976 59.2ZM21.232 51.408L21.232 47.776L18.976 47.776L18.976 51.408L21.232 51.408ZM25.616 55.2Q25.2 54.4 24.584 53.256Q23.968 52.112 23.584 51.472L24.816 50.784Q25.296 51.584 25.936 52.704Q26.576 53.824 26.912 54.496L25.616 55.2ZM18.976 52.848L18.976 56.512L21.232 56.512L21.232 52.848L18.976 52.848ZM39.856 51.2Q41.088 49.68 41.808 47.952L40.24 47.952L40.24 46.624L42.32 46.624Q42.576 45.84 42.752 45.056L44.064 45.248Q43.888 45.984 43.68 46.624L47.024 46.624L47.024 47.952L43.184 47.952Q42.944 48.528 42.656 49.104L46.288 49.104L46.288 55.84Q46.288 56.656 45.96 56.944Q45.632 57.232 44.752 57.232L43.696 57.232L43.456 56.096L44.224 56.096Q44.736 56.096 44.896 55.952Q45.056 55.808 45.056 55.408L45.056 54.72L42.464 54.72L42.464 57.312L41.232 57.312L41.232 51.488Q40.768 52.144 40.32 52.672L39.856 51.2ZM38.656 48.976Q38.448 48.224 38.168 47.32Q37.888 46.416 37.648 45.68L38.864 45.344Q39.056 45.84 39.376 46.816Q39.696 47.792 39.92 48.528L38.656 48.976ZM37.408 54.912Q37.408 55.776 37.24 56.24Q37.072 56.704 36.68 56.904Q36.288 57.104 35.568 57.104L35.104 57.104L34.832 55.728L35.28 55.728Q35.856 55.728 36.056 55.512Q36.256 55.296 36.256 54.608Q36.256 53.264 35.184 51.312L36.048 47.328L34.736 47.328L34.736 59.84L33.472 59.84L33.472 45.888L37.296 45.888L37.296 47.328L36.416 51.104Q37.024 52.272 37.216 53.152Q37.408 54.032 37.408 54.912ZM47.152 58.096L46.928 59.472L42.768 59.472Q41.392 59.472 40.6 59.12Q39.808 58.768 39.008 57.776L37.248 59.728L36.4 58.48L38.32 56.496L38.32 51.712L37.2 51.712L37.2 50.24L39.616 50.24L39.616 56.496Q40.24 57.424 40.96 57.76Q41.68 58.096 42.96 58.096L47.152 58.096ZM42.464 51.424L45.056 51.424L45.056 50.4L42.464 50.4L42.464 51.424ZM42.464 52.544L42.464 53.6L45.056 53.6L45.056 52.544L42.464 52.544ZM63.104 55.552Q63.104 55.824 63.088 56.16Q63.072 56.496 63.056 56.8Q63.008 57.296 63.008 57.664Q62.96 58.336 62.744 58.704Q62.528 59.072 62.048 59.224Q61.568 59.376 60.72 59.376L56.512 59.376Q55.696 59.376 55.216 59.192Q54.736 59.008 54.512 58.56Q54.288 58.112 54.288 57.296L54.288 51.904L53.136 52.272L52.768 50.88L54.288 50.384L54.288 46.528L55.712 46.528L55.712 49.92L57.456 49.344L57.456 45.136L58.864 45.136L58.864 48.88L62.272 47.76L62.096 53.616Q62.048 54.288 61.88 54.64Q61.712 54.992 61.344 55.144Q60.976 55.296 60.272 55.296L59.488 55.296L59.2 53.856L59.728 53.856Q60.176 53.856 60.368 53.792Q60.56 53.728 60.632 53.56Q60.704 53.392 60.72 52.992Q60.752 52.272 60.8 51.128Q60.848 49.984 60.832 49.792L58.864 50.432L58.864 56.672L57.456 56.672L57.456 50.88L55.712 51.44L55.712 56.752Q55.712 57.28 55.792 57.536Q55.872 57.792 56.112 57.888Q56.352 57.984 56.88 57.984L60.16 57.984Q60.816 57.984 61.104 57.904Q61.392 57.824 61.496 57.6Q61.6 57.376 61.616 56.864L61.664 55.232L63.104 55.552ZM52 55.92L53.616 55.44L53.696 56.048L53.744 56.832L49.12 58.224L48.816 56.864L50.576 56.336L50.576 50.688L49.056 50.688L49.056 49.232L50.576 49.232L50.576 45.52L52 45.52L52 49.232L53.296 49.232L53.296 50.688L52 50.688L52 55.92ZM76.8268 51.184L90.9228 51.184L90.9228 52.912L76.8268 52.912L76.8268 51.184ZM96.6508 56.256L96.8588 57.68L94.3468 59.52L93.6108 58.336Q93.8668 58.128 93.9628 57.96Q94.0588 57.792 94.0588 57.488L94.0588 54.368L92.7468 54.368L92.7468 53.04L94.0588 53.04L94.0588 51.216L93.2748 51.216L93.2748 50.752L92.5388 49.552Q92.9708 48.752 93.4508 47.496Q93.9308 46.24 94.2188 45.056L95.4828 45.328Q95.2748 46.208 94.9548 47.104L96.7948 47.104L96.7948 48.384L94.4908 48.384Q94.2188 49.072 93.7868 49.92L96.4588 49.92L96.4588 51.216L95.2908 51.216L95.2908 53.04L96.6668 53.04L96.6668 54.368L95.2908 54.368L95.2908 57.312L96.6508 56.256ZM106.203 46.384L106.203 48.64L107.003 48.64L107.003 49.76L106.203 49.76L106.203 52L103.707 52L103.707 53.056L106.379 53.056L106.379 54.192L103.707 54.192L103.707 55.264L106.763 55.264L106.763 56.384L103.707 56.384L103.707 57.616L102.475 57.616L102.475 56.384L100.091 56.384L100.091 55.264L102.475 55.264L102.475 54.192L100.523 54.192L100.523 53.056L102.475 53.056L102.475 52L100.619 52L100.619 50.88L102.475 50.88L102.475 49.76L100.203 49.76L100.203 48.64L102.475 48.64L102.475 47.504L100.635 47.504L100.635 46.384L102.475 46.384L102.475 45.184L103.707 45.184L103.707 46.384L106.203 46.384ZM99.1308 56.304Q100.363 57.952 102.587 57.952L107.003 57.952L106.763 59.264L102.459 59.264Q101.227 59.264 100.243 58.896Q99.2588 58.528 98.5068 57.632Q97.9948 58.608 97.0668 59.84L96.0748 58.8Q97.0828 57.664 97.7228 56.448Q97.0988 55.248 96.6988 53.408L97.7548 53.008Q98.0428 54.208 98.3468 54.896Q98.7308 53.648 98.8268 51.952L96.9868 51.952L96.9868 50.656L98.8108 47.44L97.1468 47.44L97.1468 46.128L100.139 46.128L100.139 47.44L98.3308 50.656L100.059 50.656L100.059 51.904Q99.9148 53.296 99.6988 54.336Q99.4828 55.376 99.1308 56.304ZM105.035 47.504L103.707 47.504L103.707 48.64L105.035 48.64L105.035 47.504ZM103.707 50.88L105.035 50.88L105.035 49.76L103.707 49.76L103.707 50.88ZM118.091 48.96Q118.539 50.128 119.691 50.848Q120.843 51.568 122.939 52.048L122.363 53.472Q120.411 52.912 119.251 52.224Q118.091 51.536 117.499 50.544Q116.907 51.52 115.755 52.2Q114.603 52.88 112.635 53.472L111.979 52.128Q113.499 51.744 114.435 51.312Q115.371 50.88 115.875 50.32Q116.379 49.76 116.555 48.992Q116.651 48.512 116.731 47.808L115.083 47.808Q114.379 49.024 113.515 49.984L112.379 49.04Q113.979 47.312 114.859 45.04L116.315 45.28Q116.107 45.808 115.803 46.464L122.331 46.464L122.331 47.776L120.971 50L119.659 49.504L120.779 47.808L118.219 47.808L118.171 48.224Q118.155 48.64 118.091 48.96ZM111.547 48.608Q110.299 47.328 109.083 46.224L110.043 45.184Q110.907 45.904 112.523 47.44L111.547 48.608ZM112.827 49.968Q112.475 50.384 111.451 51.664Q110.427 52.944 109.851 53.68L108.747 52.608Q109.051 52.304 110.075 51.032Q111.099 49.76 111.275 49.552L111.659 49.072L112.827 49.968ZM112.059 59.824L110.491 59.824L110.491 53.888L121.275 53.888L121.275 59.824L119.707 59.824L119.707 58.992L112.059 58.992L112.059 59.824ZM119.707 57.616L119.707 55.28L112.059 55.28L112.059 57.616L119.707 57.616ZM138.299 46.8Q138.267 48.656 138.227 52.024Q138.187 55.392 138.171 57.248Q138.155 58.144 137.923 58.656Q137.691 59.168 137.155 59.4Q136.619 59.632 135.675 59.632L133.595 59.632L133.323 58.272L135.227 58.272Q135.803 58.272 136.107 58.136Q136.411 58 136.539 57.672Q136.667 57.344 136.683 56.736Q136.715 55.216 136.747 52.496Q136.779 49.776 136.795 48.272L131.195 48.272Q130.795 48.944 130.155 49.84L135.227 49.84L135.227 57.392L129.771 57.392L129.771 50.336Q129.483 50.72 129.099 51.168L128.091 50.032Q128.971 49.104 129.803 47.752Q130.635 46.4 131.147 45.072L132.635 45.424Q132.443 45.904 131.995 46.8L138.299 46.8ZM127.387 48.928Q126.635 47.888 125.259 46.256L126.347 45.328Q127.691 46.864 128.507 47.92L127.387 48.928ZM127.659 56.864L128.891 55.568L129.275 57.12L126.811 59.552L125.835 58.464Q126.059 58.192 126.131 57.96Q126.203 57.728 126.235 57.376L126.235 51.808L124.811 51.808L124.811 50.368L127.659 50.368L127.659 56.864ZM133.883 52.976L133.883 51.2L131.099 51.2L131.099 52.976L133.883 52.976ZM131.099 54.208L131.099 56.032L133.883 56.032L133.883 54.208L131.099 54.208Z">
</path>
</g>
<g >
<path     fill="#121236"  d="M5.586 81.882Q4.116 81.882 3.024 81.196Q1.932 80.51 1.337 79.243Q0.742 77.976 0.742 76.282Q0.742 74.574 1.337 73.307Q1.932 72.04 3.024 71.354Q4.116 70.668 5.586 70.668Q7.07 70.668 8.162 71.354Q9.254 72.04 9.842 73.307Q10.43 74.574 10.43 76.282Q10.43 77.976 9.842 79.243Q9.254 80.51 8.155 81.196Q7.056 81.882 5.586 81.882ZM5.586 80.398Q6.552 80.398 7.28 79.894Q8.008 79.39 8.407 78.459Q8.806 77.528 8.806 76.282Q8.806 75.036 8.407 74.105Q8.008 73.174 7.28 72.67Q6.552 72.166 5.586 72.166Q4.606 72.166 3.878 72.67Q3.15 73.174 2.758 74.105Q2.366 75.036 2.366 76.282Q2.366 77.528 2.758 78.459Q3.15 79.39 3.878 79.894Q4.606 80.398 5.586 80.398ZM12.124 81.686L12.124 73.986L13.65 73.986L13.65 75.05L13.72 75.05Q14.07 74.476 14.693 74.133Q15.316 73.79 16.016 73.79Q17.262 73.79 17.955 74.567Q18.648 75.344 18.648 76.758L18.648 81.686L17.122 81.686L17.122 77.038Q17.122 76.212 16.674 75.715Q16.226 75.218 15.526 75.218Q14.686 75.218 14.168 75.757Q13.65 76.296 13.65 77.192L13.65 81.686L12.124 81.686ZM27.062 77.22Q27.062 77.878 26.95 78.34L21.7 78.34Q21.812 79.376 22.365 79.964Q22.918 80.552 23.856 80.552Q24.402 80.552 24.878 80.265Q25.354 79.978 25.676 79.446L26.908 80.132Q26.446 80.972 25.676 81.427Q24.906 81.882 23.856 81.882Q22.708 81.882 21.868 81.392Q21.028 80.902 20.573 79.999Q20.118 79.096 20.118 77.878Q20.118 76.632 20.552 75.708Q20.986 74.784 21.798 74.287Q22.61 73.79 23.702 73.79Q25.256 73.79 26.159 74.714Q27.062 75.638 27.062 77.22ZM25.508 77.024Q25.508 76.156 25.018 75.638Q24.528 75.12 23.702 75.12Q22.932 75.12 22.428 75.617Q21.924 76.114 21.756 77.024L25.508 77.024ZM28.224 75.442L32.704 75.442L32.704 76.87L28.224 76.87L28.224 75.442ZM37.576 81.882Q36.442 81.882 35.602 81.385Q34.762 80.888 34.307 79.971Q33.852 79.054 33.852 77.836Q33.852 76.618 34.307 75.701Q34.762 74.784 35.602 74.294Q36.442 73.804 37.576 73.804Q38.472 73.804 39.277 74.301Q40.082 74.798 40.516 75.624L39.214 76.324Q38.934 75.82 38.465 75.533Q37.996 75.246 37.464 75.246Q36.54 75.246 35.98 75.953Q35.42 76.66 35.42 77.836Q35.42 79.012 35.98 79.733Q36.54 80.454 37.45 80.454Q37.996 80.454 38.465 80.16Q38.934 79.866 39.214 79.362L40.516 80.062Q40.082 80.902 39.277 81.392Q38.472 81.882 37.576 81.882ZM42 70.864L43.526 70.864L43.526 79.796Q43.526 80.342 44.072 80.342L44.45 80.342L44.45 81.784L43.666 81.784Q42.84 81.784 42.42 81.392Q42 81 42 80.244L42 70.864ZM47.6 71.452Q47.6 71.9 47.327 72.166Q47.054 72.432 46.606 72.432Q46.172 72.432 45.913 72.166Q45.654 71.9 45.654 71.452Q45.654 71.004 45.913 70.738Q46.172 70.472 46.606 70.472Q47.054 70.472 47.327 70.738Q47.6 71.004 47.6 71.452ZM47.39 73.986L47.39 81.686L45.864 81.686L45.864 73.986L47.39 73.986ZM52.808 81.882Q51.674 81.882 50.834 81.385Q49.994 80.888 49.539 79.971Q49.084 79.054 49.084 77.836Q49.084 76.618 49.539 75.701Q49.994 74.784 50.834 74.294Q51.674 73.804 52.808 73.804Q53.704 73.804 54.509 74.301Q55.314 74.798 55.748 75.624L54.446 76.324Q54.166 75.82 53.697 75.533Q53.228 75.246 52.696 75.246Q51.772 75.246 51.212 75.953Q50.652 76.66 50.652 77.836Q50.652 79.012 51.212 79.733Q51.772 80.454 52.682 80.454Q53.228 80.454 53.697 80.16Q54.166 79.866 54.446 79.362L55.748 80.062Q55.314 80.902 54.509 81.392Q53.704 81.882 52.808 81.882ZM63.84 81.686L61.908 81.686L59.318 78.242L58.758 78.788L58.758 81.686L57.232 81.686L57.232 70.864L58.758 70.864L58.758 76.856L61.544 73.986L63.644 73.986L60.368 77.206L63.84 81.686ZM76.6967 77.22Q76.6967 77.878 76.5847 78.34L71.3347 78.34Q71.4467 79.376 71.9997 79.964Q72.5527 80.552 73.4907 80.552Q74.0367 80.552 74.5127 80.265Q74.9887 79.978 75.3107 79.446L76.5427 80.132Q76.0807 80.972 75.3107 81.427Q74.5407 81.882 73.4907 81.882Q72.3427 81.882 71.5027 81.392Q70.6627 80.902 70.2077 79.999Q69.7527 79.096 69.7527 77.878Q69.7527 76.632 70.1867 75.708Q70.6207 74.784 71.4327 74.287Q72.2447 73.79 73.3367 73.79Q74.8907 73.79 75.7937 74.714Q76.6967 75.638 76.6967 77.22ZM75.1427 77.024Q75.1427 76.156 74.6527 75.638Q74.1627 75.12 73.3367 75.12Q72.5667 75.12 72.0627 75.617Q71.5587 76.114 71.3907 77.024L75.1427 77.024ZM78.2507 81.686L78.2507 73.986L79.7767 73.986L79.7767 75.05L79.8467 75.05Q80.1967 74.476 80.8197 74.133Q81.4427 73.79 82.1427 73.79Q83.3887 73.79 84.0817 74.567Q84.7747 75.344 84.7747 76.758L84.7747 81.686L83.2487 81.686L83.2487 77.038Q83.2487 76.212 82.8007 75.715Q82.3527 75.218 81.6527 75.218Q80.8127 75.218 80.2947 75.757Q79.7767 76.296 79.7767 77.192L79.7767 81.686L78.2507 81.686ZM93.3567 85.102L91.8307 85.102L91.8307 80.664L91.7467 80.664Q91.3827 81.238 90.8087 81.56Q90.2347 81.882 89.5207 81.882Q88.5687 81.882 87.8267 81.364Q87.0847 80.846 86.6647 79.908Q86.2447 78.97 86.2447 77.766Q86.2447 76.604 86.6577 75.701Q87.0707 74.798 87.8127 74.301Q88.5547 73.804 89.4927 73.804Q90.1787 73.804 90.7597 74.126Q91.3407 74.448 91.7467 75.036L91.8307 75.036L91.8307 73.986L93.3567 73.986L93.3567 85.102ZM91.8727 77.85Q91.8727 76.702 91.3127 75.988Q90.7527 75.274 89.8567 75.274Q88.9467 75.274 88.3797 75.988Q87.8127 76.702 87.8127 77.85Q87.8127 78.606 88.0787 79.187Q88.3447 79.768 88.8207 80.097Q89.2967 80.426 89.8987 80.426Q90.7807 80.426 91.3267 79.712Q91.8727 78.998 91.8727 77.85ZM101.715 73.986L101.715 81.686L100.189 81.686L100.189 80.65L100.105 80.65Q99.7547 81.21 99.1317 81.546Q98.5087 81.882 97.8087 81.882Q96.5767 81.882 95.8767 81.112Q95.1767 80.342 95.1767 78.942L95.1767 73.986L96.7167 73.986L96.7167 78.648Q96.7167 79.474 97.1647 79.978Q97.6127 80.482 98.3127 80.482Q99.1527 80.482 99.6707 79.943Q100.189 79.404 100.189 78.508L100.189 73.986L101.715 73.986ZM105.509 71.452Q105.509 71.9 105.236 72.166Q104.963 72.432 104.515 72.432Q104.081 72.432 103.822 72.166Q103.563 71.9 103.563 71.452Q103.563 71.004 103.822 70.738Q104.081 70.472 104.515 70.472Q104.963 70.472 105.236 70.738Q105.509 71.004 105.509 71.452ZM105.299 73.986L105.299 81.686L103.773 81.686L103.773 73.986L105.299 73.986ZM107.385 81.686L107.357 73.986L108.925 73.986L108.925 75.428L108.995 75.428Q109.443 74.644 110.171 74.217Q110.899 73.79 111.851 73.79L111.935 73.79L111.935 75.372L111.809 75.372Q110.437 75.372 109.681 75.96Q108.925 76.548 108.925 77.486L108.925 81.686L107.385 81.686ZM115.225 81.686L112.215 73.986L113.923 73.986L116.065 79.824L116.149 79.824L118.179 73.986L119.887 73.986L115.575 85.102L113.909 85.102L115.225 81.686Z">
</path>
</g>
</svg>
