<svg xmlns="http://www.w3.org/2000/svg" xmlns:xlink="http://www.w3.org/1999/xlink" width="24" height="24" viewBox="0 0 24 24" fill="none">
<path   fill-rule="evenodd"  fill="#121236"  d="M21 3L3 3C2.4478 3 2 3.44766 2 4.00008L2 9.49998C3.3808 9.49998 4.5 10.6192 4.5 12C4.5 13.3808 3.3808 14.5 2 14.5L2 19.9999C2 20.5523 2.4478 21 3 21L21 21C21.5522 21 22 20.5523 22 19.9999L22 14.5C20.6192 14.5 19.5 13.3808 19.5 12C19.5 10.6192 20.6192 9.49998 22 9.49998L22 4.00008C22 3.44766 21.5522 3 21 3ZM20 5L4 5L4 7.968C5.53232 8.72736 6.50176 10.2898 6.50176 12C6.50176 13.7102 5.53232 15.2726 4 16.032L4 19L20 19L20 16.032C18.4677 15.2726 17.4982 13.7102 17.4982 12C17.4982 10.2898 18.4677 8.72736 20 7.968L20 5ZM9 11L15 11L15 9L9 9L9 11ZM9 15L15 15L15 13L9 13L9 15Z">
</path>
</svg>
