<svg xmlns="http://www.w3.org/2000/svg" xmlns:xlink="http://www.w3.org/1999/xlink" width="48" height="48" viewBox="0 0 48 48" fill="none">
<rect  x="0" y="0" width="48" height="48" rx="12"    fill="#FFF7E8" >
</rect>
<path d="M28.6618 22.08L24.0001 17.4207L19.3403 22.0762L16.6287 19.3678L24.0001 12L31.3715 19.3697L28.6618 22.08ZM21.7249 23.5055L21.9598 23.2725L23.9923 21.24L26.741 23.9905L26.7428 23.9905L26.741 23.9924L23.9923 26.7429L21.2438 23.9962L21.24 23.9905L21.2438 23.9867L21.7249 23.5055ZM17.4237 24L14.7084 26.7152L11.9932 24L14.7084 21.2848L17.4237 24ZM36.0067 24L33.2914 26.7152L30.5762 24L33.2914 21.2848L36.0067 24ZM16.6325 28.6326L16.6287 28.6289L19.3463 25.9218L24.0096 30.5801L28.6749 25.9199L31.3887 28.627L31.3867 28.6289L24.0096 35.9999L16.6325 28.6326Z" fill-rule="evenodd"  fill="#FFA852" >
</path>
</svg>
