<svg xmlns="http://www.w3.org/2000/svg" xmlns:xlink="http://www.w3.org/1999/xlink" width="307.64947509765625" height="307.6494140625" viewBox="0 0 307.64947509765625 307.6494140625" fill="none">
<path d="M163.086 274.807L280.79 274.807C280.79 274.807 286.443 261.112 281.561 244.481C277.316 229.994 264.581 227.87 261.108 208.94C259.314 199.167 259.564 196.385 252.425 187.307C245.073 177.958 240.076 177.842 236.796 169.343C233.515 160.845 231.586 144.813 212.097 149.641C212.097 149.641 207.08 145.006 198.204 149.448L198.204 149.448C189.328 153.891 188.17 163.549 187.399 169.343C186.627 175.138 183.347 183.058 178.33 187.307C173.313 191.556 169.068 196.192 167.138 206.429C165.209 216.667 167.91 223.813 165.016 233.085C162.121 242.356 153.052 255.105 153.631 265.535C154.21 275.966 163.086 274.807 163.086 274.807Z" fill-rule="evenodd"  fill="#1F1F39" >
</path>
<path d="M266.878 274.71L236.603 274.71L229.078 245.447L261.166 240.367L266.878 274.71L266.878 274.71Z" fill-rule="evenodd"  fill="#F9D2DD" >
</path>
<path d="M119.092 234.63C120.25 221.109 145.527 181.319 145.527 181.319C145.527 181.319 141.475 176.683 143.212 171.082C144.948 165.48 151.123 163.935 155.175 163.742C159.227 163.549 162.121 164.514 162.121 164.514L170.997 151.959C170.997 151.959 172.927 149.448 175.242 150.607C177.558 151.766 172.927 159.299 172.927 159.299L168.682 167.991C168.682 167.991 167.91 175.524 166.173 179.774C164.437 184.023 163.472 184.989 163.472 184.989L154.21 215.508L164.823 212.61L155.175 252.594C155.175 252.594 140.317 256.843 134.143 255.684L134.143 255.684C127.968 254.525 117.934 248.151 119.092 234.63Z" fill-rule="evenodd"  fill="#FFEBF0" >
</path>
<path d="M155.175 252.594L164.823 212.611L155.329 215.199L145.913 254.719C152.415 253.869 155.175 252.594 155.175 252.594L155.175 252.594Z" fill-rule="evenodd"  fill="#F9ACC0" >
</path>
<path d="M229.078 245.447L231.74 255.839L264.64 261.305L261.166 240.367L229.078 245.447L229.078 245.447Z" fill-rule="evenodd"  fill="#F9ACC0" >
</path>
<path d="M241.272 274.807C241.272 274.807 239.69 262.638 237.76 255.105L264.581 255.105L264.581 255.105C264.581 255.105 260.143 211.258 238.146 204.498C216.149 197.738 200.906 199.862 193.959 201.987C187.013 204.112 157.297 213.576 157.297 213.576L150.93 255.878L168.103 254.139L165.209 274.807L241.272 274.807Z" fill-rule="evenodd"  fill="#3D5CFF" >
</path>
<path d="M238.146 204.498C216.149 197.738 200.906 199.862 193.959 201.987C187.013 204.112 157.297 213.576 157.297 213.576L150.93 255.878L168.103 254.139L165.209 274.807L241.272 274.807C241.272 274.807 239.69 262.638 237.76 255.105L264.581 255.105L264.581 255.105C264.581 255.105 260.143 211.258 238.146 204.498Z" fill-rule="evenodd"  fill="#3D5CFF" >
</path>
<path d="M190.062 203.243C190.274 203.185 190.486 203.32 190.525 203.513C190.525 203.532 191.161 205.889 192.879 207.975C195.156 210.737 198.166 211.761 201.871 211.046C204.668 210.486 207.215 209.675 209.666 208.902C215.204 207.125 219.989 205.599 224.582 208.419C227.167 210.003 228.306 212.804 229.405 215.508C231.104 219.719 232.859 224.065 240.172 224.393C249.897 224.837 257.944 232.776 260.954 236.156C261.089 236.311 261.089 236.562 260.915 236.697C260.819 236.774 260.722 236.813 260.645 236.813C260.529 236.813 260.433 236.774 260.356 236.678L260.356 236.678C257.404 233.356 249.55 225.61 240.115 225.166C232.319 224.799 230.39 220.008 228.672 215.798C227.572 213.094 226.55 210.525 224.176 209.076C219.873 206.449 215.455 207.859 209.898 209.636C207.428 210.428 204.881 211.239 202.025 211.799C197.027 212.784 193.979 210.525 192.281 208.458C190.467 206.236 189.83 203.822 189.791 203.706C189.734 203.494 189.869 203.281 190.062 203.243Z" fill-rule="evenodd"  fill="#EAEAFF" >
</path>
<path d="M170.207 228.894C168.914 228.469 167.563 228.005 166.174 227.503C162.488 226.17 160.52 223.08 160.482 218.599C160.443 215.276 161.466 212.398 161.504 212.263L162.237 212.514C162.218 212.533 161.215 215.412 161.253 218.599C161.311 222.771 163.048 225.533 166.444 226.769C167.814 227.271 169.165 227.716 170.457 228.141C177.365 230.439 182.807 232.255 183.173 238.957C183.308 241.43 182.961 243.632 182.652 245.583C181.977 249.832 181.495 252.922 185.971 256.052C188.094 257.539 190.583 258.234 192.995 258.91C198.359 260.417 203.434 261.827 203.8 271.292C203.839 272.489 203.955 273.629 204.109 274.653L203.299 274.788C203.144 273.745 203.029 272.586 202.99 271.35L202.99 271.35C202.643 262.464 198.05 261.17 192.744 259.683C190.274 258.988 187.708 258.273 185.489 256.708C180.607 253.289 181.186 249.677 181.861 245.486C182.17 243.574 182.498 241.41 182.382 239.015C182.054 232.834 177.076 231.173 170.207 228.894Z" fill-rule="evenodd"  fill="#EAEAFF" >
</path>
<path d="M196.931 219.41C202.392 218.155 206.695 217.169 209.3 221.149C210.824 223.486 211.345 225.977 211.808 228.179C212.599 231.927 213.217 234.901 218.098 235.77C219.102 235.944 220.028 236.099 220.935 236.234C226.203 237.065 229.695 237.605 234.577 242.859L233.979 243.4C229.271 238.339 225.894 237.818 220.781 237.007L220.781 237.007C219.874 236.871 218.947 236.717 217.925 236.543C212.522 235.577 211.789 232.062 211.017 228.353C210.554 226.113 210.052 223.795 208.624 221.573C206.328 218.039 202.45 218.927 197.085 220.163C193.632 220.955 189.734 221.844 185.392 221.728C182.131 221.631 177.693 220.395 174.973 214.968C173.371 211.761 173.14 208.632 173.14 208.497L173.911 208.439C173.911 208.477 174.143 211.568 175.687 214.639C177.732 218.715 181.012 220.839 185.431 220.955C189.676 221.071 193.516 220.183 196.931 219.41Z" fill-rule="evenodd"  fill="#EAEAFF" >
</path>
<path d="M191.065 170.503C188.364 172.821 189.907 177.649 193.574 179.002C197.24 180.354 198.205 179.388 198.205 179.388L196.468 170.116C196.468 170.116 193.767 168.185 191.065 170.503L191.065 170.503Z" fill-rule="evenodd"  fill="#F9ACC0" >
</path>
<path d="M228.113 171.082C224.06 170.696 221.938 174.173 221.938 174.173C221.938 174.173 216.149 171.468 213.834 167.026C211.518 162.583 211.325 159.493 211.325 159.493C211.325 159.493 200.134 161.038 196.275 170.116C196.275 170.116 195.503 178.229 197.625 183.058L197.625 183.058C199.748 187.887 204.186 189.239 204.186 189.239C204.186 189.239 204.572 192.716 203.8 196.192C203.028 199.669 202.063 201.601 202.063 201.601C202.063 201.601 203.221 204.112 211.325 204.498C219.429 204.884 220.587 201.601 220.587 201.601C220.587 201.601 219.622 196.192 219.815 192.329C220.008 188.466 221.166 182.478 221.166 182.478C221.166 182.478 226.376 184.217 229.656 180.933C232.936 177.649 232.165 171.468 228.113 171.082Z" fill-rule="evenodd"  fill="#F9D2DD" >
</path>
<path d="M202.16 175.138C201.468 175.138 200.906 174.446 200.906 173.593C200.906 172.74 201.468 172.048 202.16 172.048C202.853 172.048 203.415 172.74 203.415 173.593C203.415 174.446 202.853 175.138 202.16 175.138L202.16 175.138Z" fill-rule="evenodd"  fill="#1F1F39" >
</path>
<path d="M212.001 175.718C211.308 175.718 210.747 175.026 210.747 174.172C210.747 173.319 211.308 172.627 212.001 172.627C212.694 172.627 213.255 173.319 213.255 174.172C213.255 175.026 212.694 175.718 212.001 175.718L212.001 175.718Z" fill-rule="evenodd"  fill="#1F1F39" >
</path>
<path d="M209.975 179.774C210.746 179.581 212.29 178.422 212.29 178.422C212.29 178.422 212.676 178.229 212.869 178.422C213.062 178.615 211.827 180.817 210.746 181.126C209.396 181.513 208.431 180.933 207.852 180.16C207.273 179.388 208.045 179.581 208.045 179.581C208.045 179.581 209.203 179.967 209.975 179.774L209.975 179.774Z" fill-rule="evenodd"  fill="#F95368" >
</path>
<path d="M206.135 173.651C205.903 174.057 205.691 174.482 205.556 174.907C205.498 175.119 205.46 175.332 205.479 175.525C205.479 175.583 205.498 175.621 205.498 175.66L205.556 175.815C205.595 175.911 205.653 176.008 205.71 176.104C205.942 176.452 206.405 176.664 206.868 176.684C206.637 176.761 206.386 176.761 206.135 176.703C205.884 176.645 205.652 176.51 205.479 176.297C205.382 176.201 205.324 176.085 205.247 175.969L205.17 175.795C205.151 175.737 205.132 175.66 205.112 175.583C205.054 175.312 205.112 175.042 205.17 174.791C205.324 174.308 205.575 173.883 205.865 173.477C206.173 173.091 206.502 172.743 206.887 172.434C206.637 172.84 206.386 173.246 206.135 173.651L206.135 173.651Z" fill-rule="evenodd"  fill="#1F1F39" >
</path>
<path d="M245.633 259.105C244.726 256.227 241.369 245.97 237.568 239.21C233.13 231.29 227.534 225.689 227.534 225.689C227.534 225.689 232.319 239.557 233.709 244.232C235.079 248.81 238.59 262.736 238.59 262.736C238.32 261.461 238.05 260.225 237.761 259.105L245.633 259.105L245.633 259.105Z" fill-rule="evenodd"  fill="#224BF4" >
</path>
<path d="M211.789 168.919C212.175 168.783 212.561 168.687 212.966 168.668C213.371 168.648 213.795 168.687 214.181 168.822C214.567 168.957 214.953 169.17 215.165 169.537C214.799 169.382 214.432 169.324 214.066 169.266C213.699 169.228 213.332 169.228 212.985 169.247C212.618 169.266 212.252 169.305 211.885 169.363L210.747 169.537C211.055 169.266 211.403 169.073 211.789 168.919L211.789 168.919Z" fill-rule="evenodd"  fill="#1F1F39" >
</path>
<path d="M200.192 167.702C200.693 167.644 201.195 167.663 201.697 167.779C202.199 167.895 202.662 168.088 203.086 168.359C203.298 168.494 203.491 168.668 203.665 168.861C203.819 169.054 203.974 169.286 203.993 169.537C203.858 169.344 203.665 169.189 203.472 169.073C203.279 168.957 203.067 168.861 202.855 168.764C202.43 168.59 201.986 168.455 201.562 168.339C201.118 168.243 200.674 168.165 200.211 168.146C199.748 168.146 199.266 168.146 198.783 168.185C199.208 167.914 199.69 167.779 200.192 167.702L200.192 167.702Z" fill-rule="evenodd"  fill="#1F1F39" >
</path>
<path d="M157.896 169.556C158.899 169.556 159.266 170.309 159.883 171.565C160.076 171.97 160.308 172.415 160.578 172.936C161.716 175.003 164.958 178.267 164.977 178.306C165.054 178.383 165.054 178.499 164.977 178.576C164.9 178.653 164.784 178.653 164.707 178.576C164.572 178.441 161.388 175.254 160.23 173.129C159.941 172.608 159.729 172.144 159.516 171.738C158.899 170.464 158.61 169.942 157.876 169.942C157.626 169.942 157.336 170.116 157.066 170.406C156.371 171.217 155.696 173.206 156.12 176.084C156.68 179.832 159.304 182.13 159.343 182.15C159.42 182.227 159.439 182.343 159.362 182.42C159.343 182.459 159.285 182.478 159.227 182.478C159.188 182.478 159.131 182.459 159.111 182.439L159.111 182.439C158.996 182.343 156.352 180.025 155.773 176.142C155.484 174.249 155.599 171.565 156.796 170.155C157.143 169.768 157.51 169.556 157.896 169.556Z" fill-rule="evenodd"  fill="#1F1F39" >
</path>
<path d="M155.966 174.578C156.024 174.675 156.005 174.791 155.909 174.849C155.851 174.849 154.5 175.737 152.59 175.757C151.972 175.757 151.297 175.66 150.583 175.428L150.583 175.428C147.592 174.424 147.553 172.994 147.553 172.936C147.553 172.821 147.631 172.743 147.746 172.743C147.843 172.743 147.939 172.821 147.939 172.936C147.939 172.956 148.017 174.173 150.699 175.08C153.458 176.008 155.677 174.52 155.696 174.52C155.793 174.462 155.908 174.482 155.966 174.578Z" fill-rule="evenodd"  fill="#1F1F39" >
</path>
<path d="M214.22 189.625C214.22 189.625 209.434 191.054 204.225 189.586C204.302 190.552 204.437 193.372 203.8 196.192C203.742 196.462 203.684 196.714 203.626 196.945C205.363 196.965 208.084 196.714 210.94 195.226C215.763 192.715 216.535 189.045 216.535 189.045C216.535 189.045 216.342 189.045 214.22 189.625L214.22 189.625Z" fill-rule="evenodd"  fill="#F9ACC0" >
</path>
<path d="M144.273 217.382C144.254 217.285 144.311 217.169 144.427 217.15L157.124 214.562C157.22 214.542 157.336 214.6 157.355 214.716C157.375 214.813 157.317 214.929 157.201 214.948L144.504 217.536C144.485 217.536 144.485 217.536 144.466 217.536C144.369 217.536 144.292 217.478 144.273 217.382L144.273 217.382Z" fill-rule="evenodd"  fill="#1F1F39" >
</path>
<path d="M204.263 189.258C204.649 189.393 205.035 189.529 205.44 189.625C206.405 189.896 207.389 190.05 208.373 190.089C212.522 190.282 215.59 189.142 215.629 189.142C215.725 189.104 215.841 189.162 215.879 189.258C215.918 189.355 215.86 189.471 215.764 189.509C215.706 189.529 213.024 190.514 209.28 190.514C208.972 190.514 208.644 190.514 208.335 190.494L208.335 190.494C207.331 190.456 206.328 190.282 205.325 190.011C204.919 189.896 204.514 189.78 204.128 189.625C204.032 189.586 203.974 189.471 204.013 189.374C204.051 189.277 204.167 189.219 204.263 189.258Z" fill-rule="evenodd"  fill="#1F1F39" >
</path>
<path d="M192.821 172.704C192.725 172.666 192.667 172.55 192.725 172.453C192.782 172.357 192.879 172.299 192.975 172.337C193.014 172.357 194.017 172.782 195.194 174.926C196.371 177.07 196.371 178.248 196.371 178.306C196.371 178.441 196.294 178.518 196.178 178.518C196.063 178.518 195.985 178.441 195.985 178.325L195.985 178.325C195.985 178.306 195.966 177.186 194.847 175.138C193.747 173.129 192.821 172.724 192.821 172.704Z" fill-rule="evenodd"  fill="#1F1F39" >
</path>
<path d="M227.341 221.766C227.302 221.67 227.36 221.554 227.457 221.515C227.553 221.477 227.669 221.534 227.707 221.631C227.765 221.786 233.13 236.408 235.04 244.443C236.043 248.634 237.085 252.401 237.78 254.815C237.818 254.912 237.741 255.028 237.645 255.047L237.625 255.066C237.548 255.066 237.471 255.008 237.432 254.931L237.432 254.931C236.719 252.497 235.677 248.731 234.673 244.539C232.763 236.523 227.399 221.921 227.341 221.766Z" fill-rule="evenodd"  fill="#1F1F39" >
</path>
<path d="M181.602 131.485C181.602 131.736 181.602 131.871 181.602 131.871C181.602 131.871 181.602 131.736 181.602 131.485L181.602 131.485Z"   fill="#EAEAFF" >
</path>
<path d="M169.086 136.529C166.887 136.529 165.112 134.752 165.112 132.55L165.112 120.979C165.112 118.777 166.887 117 169.086 117L194.903 117C197.103 117 198.878 118.777 198.897 120.979L198.897 132.569C198.897 134.772 197.122 136.549 194.922 136.549L185.449 136.549L177.267 144.256C177.017 144.507 176.669 144.565 176.361 144.507L176.052 144.507C175.492 144.507 175.049 144.063 175.049 143.503L175.049 136.529L169.086 136.529ZM187.934 122.856C187.934 122.856 189.021 127.02 182.378 128C182.378 128 179.963 127.02 178.755 124.693C177.547 122.366 178.151 121.018 178.151 121.018C178.151 121.018 180.337 120.724 181.533 122.488C182.584 124.032 182.728 125.575 182.741 126.163C182.789 125.722 183.079 124.742 184.673 123.591C186.364 122.366 187.934 122.856 187.934 122.856Z" fill-rule="evenodd"  fill="#FFFFFF" >
</path>
<path d="M187.101 127.288C190.706 124.284 193.41 121.58 193.41 121.58C193.41 121.58 191.307 122.481 188.603 124.584C185.899 126.687 181.092 132.095 181.092 132.095C181.092 132.095 183.495 130.293 187.101 127.288L187.101 127.288Z" fill-rule="evenodd"  fill="#FFFFFF" >
</path>
<path d="M175.976 124.59C178.68 129.697 181.084 132.101 181.084 132.101C181.084 132.101 179.582 128.796 177.779 125.191C175.976 121.585 172.972 117.98 172.972 117.98C172.972 117.98 173.272 119.482 175.976 124.59L175.976 124.59Z" fill-rule="evenodd"  fill="#FFFFFF" >
</path>
<path d="M263.93 174.972L263.93 167.999L269.892 167.999C272.092 167.999 273.867 166.222 273.867 164.02L273.867 152.45C273.848 150.267 272.072 148.49 269.873 148.49L244.055 148.49C241.855 148.49 240.08 150.267 240.08 152.469L240.08 164.039C240.08 166.241 241.855 168.018 244.055 168.018L253.529 168.018L261.711 175.725C261.961 175.976 262.309 176.034 262.617 175.976L262.926 175.976C263.486 175.976 263.93 175.532 263.93 174.972ZM262.418 153.505C262.437 153.583 262.456 153.66 262.456 153.737L262.456 161.212C262.456 161.56 262.263 161.83 261.974 161.927L257.864 163.337C257.69 163.395 257.497 163.298 257.439 163.124C257.42 163.086 257.42 163.047 257.42 163.009L257.42 154.954C257.42 154.664 257.613 154.394 257.883 154.297L261.511 153.061C261.897 152.926 262.302 153.138 262.418 153.505ZM256.496 163.016L256.496 154.962C256.496 154.672 256.303 154.401 256.033 154.305L252.405 153.069C252.328 153.049 252.251 153.03 252.174 153.03C251.769 153.049 251.46 153.358 251.46 153.764L251.46 161.239C251.46 161.548 251.653 161.819 251.942 161.915L256.052 163.325C256.091 163.345 256.11 163.345 256.149 163.345C256.342 163.345 256.496 163.209 256.496 163.016Z" fill-rule="evenodd"  fill="#FFFFFF" >
</path>
<path d="M217.018 180.354C214.94 180.354 213.255 179.316 213.255 178.036C213.255 176.756 214.94 175.718 217.018 175.718C219.096 175.718 220.781 176.756 220.781 178.036C220.781 179.316 219.096 180.354 217.018 180.354L217.018 180.354Z" fill-rule="evenodd"  fill="#F9ACC0" >
</path>
<path d="M196.236 176.394C196.314 177.553 196.449 178.751 196.68 179.91C197.298 180.18 198.05 180.354 198.88 180.354C200.964 180.354 202.643 179.311 202.643 178.036C202.643 176.761 200.964 175.718 198.88 175.718C197.838 175.718 196.912 175.969 196.236 176.394L196.236 176.394Z" fill-rule="evenodd"  fill="#F9ACC0" >
</path>
<path d="M221.147 182.633C221.166 182.536 221.166 182.478 221.166 182.478C221.166 182.478 222.266 182.845 223.771 182.923C223.752 182.788 223.713 182.652 223.675 182.478C222.903 180.161 225.411 175.718 225.411 175.718C225.411 175.718 222.71 176.297 221.552 180.161C221.263 181.126 221.147 182.015 221.147 182.633L221.147 182.633Z" fill-rule="evenodd"  fill="#F9ACC0" >
</path>
<path d="M225.816 174.655C225.913 174.616 226.028 174.655 226.067 174.732C226.106 174.829 226.067 174.945 225.99 174.983C225.97 174.983 224.465 175.756 223.173 177.63C221.86 179.523 221.455 180.662 221.455 180.662C221.417 180.778 221.339 180.836 221.262 180.836C221.243 180.836 221.224 180.836 221.204 180.817L221.204 180.817C221.108 180.778 221.05 180.682 221.089 180.566C221.108 180.508 221.494 179.349 222.845 177.417C224.215 175.466 225.739 174.674 225.816 174.655Z" fill-rule="evenodd"  fill="#1F1F39" >
</path>
<path d="M173.139 230.767C173.139 230.767 170.804 239.672 165.401 246.819C161.658 251.783 155.04 254.603 151.316 255.858L167.968 254.159L173.139 230.767L173.139 230.767Z" fill-rule="evenodd"  fill="#224BF4" >
</path>
<path d="M174.47 225.301C174.509 225.204 174.605 225.146 174.702 225.166C174.798 225.204 174.856 225.301 174.837 225.398C174.798 225.494 171.73 236.079 170.399 241.99C169.068 247.9 168.296 254.081 168.277 254.139C168.277 254.255 168.199 254.332 168.103 254.332L168.084 254.332L168.084 254.332C167.987 254.313 167.91 254.217 167.91 254.12C167.91 254.062 168.701 247.862 170.032 241.932C171.364 236.002 174.451 225.417 174.47 225.301Z" fill-rule="evenodd"  fill="#1F1F39" >
</path>
</svg>
