<svg xmlns="http://www.w3.org/2000/svg" xmlns:xlink="http://www.w3.org/1999/xlink" width="48" height="48" viewBox="0 0 48 48" fill="none">
<path     fill="#5B93FB"  d="M10 -4.65366e-15L38 -4.65366e-15C43.5228 -4.65366e-15 48 4.47715 48 10L48 38C48 43.5228 43.5228 48 38 48L10 48C4.47715 48 -7.99502e-15 43.5228 -6.98049e-15 38L2.32683e-15 10C2.66501e-15 4.47715 4.47715 -5.33001e-15 10 -4.65366e-15Z">
</path>
<g mask="url(#mask-5_456)">
<g filter="url(#filter_5_457)">
<path d="M19.6751 8.83745C19.6751 16.2312 13.6813 22.225 6.28758 22.225C-1.10613 22.225 -7.09991 16.2312 -7.09991 8.83745C-7.09991 1.44374 -1.10613 -4.55005 6.28758 -4.55005C13.6813 -4.55005 19.6751 1.44374 19.6751 8.83745Z"   fill="#79B6F7" >
</path>
</g>
</g>
<g mask="url(#mask-5_456)">
<g filter="url(#filter_5_458)">
<path d="M54.445 45.0875C54.445 53.8896 47.3095 61.025 38.5075 61.025C29.7055 61.025 22.57 53.8896 22.57 45.0875C22.57 36.2855 29.7055 29.15 38.5075 29.15C47.3095 29.15 54.445 36.2855 54.445 45.0875Z"   fill="#79B6F7" >
</path>
</g>
</g>
<g  clip-path="url(#clip-path-cJQazJXhJzCS0um_xoM0v)">
<g filter="url(#filter_ZiZ24FuEbAGc17lyYmMPk)">
<path d="M34.8062 27.5658C34.7988 27.5288 34.7908 27.4919 34.7822 27.4551C34.7736 27.4183 34.7645 27.3817 34.7547 27.3452C34.745 27.3086 34.7347 27.2723 34.7239 27.2361C34.713 27.1999 34.7016 27.1639 34.6897 27.1281C34.6777 27.0922 34.6652 27.0566 34.6521 27.0212C34.6391 26.9857 34.6255 26.9505 34.6113 26.9155C34.5971 26.8804 34.5824 26.8456 34.5672 26.8111C34.552 26.7765 34.5362 26.7422 34.5199 26.7081C34.5036 26.674 34.4868 26.6402 34.4695 26.6067C34.4521 26.5731 34.4342 26.5398 34.4159 26.5068C34.3975 26.4738 34.3786 26.4411 34.3592 26.4087C34.3398 26.3763 34.3199 26.3441 34.2996 26.3123C34.2792 26.2805 34.2583 26.2491 34.2369 26.2179C34.2156 26.1868 34.1937 26.1559 34.1714 26.1255C34.1491 26.095 34.1263 26.0648 34.1031 26.0351C34.0798 26.0053 34.0561 25.9759 34.032 25.9468L30.2686 21.4309C30.2474 21.4053 30.2257 21.38 30.2038 21.355C30.1818 21.33 30.1595 21.3053 30.1368 21.2809C30.1142 21.2565 30.0912 21.2325 30.0679 21.2087C30.0446 21.1849 30.021 21.1615 29.997 21.1384C29.9731 21.1153 29.9488 21.0925 29.9243 21.0701C29.8997 21.0476 29.8748 21.0255 29.8496 21.0038C29.8245 20.982 29.799 20.9606 29.7732 20.9396C29.7474 20.9185 29.7214 20.8978 29.695 20.8775C29.6687 20.8571 29.6421 20.8371 29.6152 20.8175C29.5883 20.7979 29.5612 20.7787 29.5338 20.7598C29.5064 20.741 29.4787 20.7225 29.4508 20.7044C29.4228 20.6862 29.3947 20.6685 29.3663 20.6512C29.3379 20.6339 29.3092 20.6169 29.2803 20.6004C29.2515 20.5838 29.2224 20.5677 29.1931 20.5519C29.1638 20.5362 29.1342 20.5208 29.1045 20.5059C29.0747 20.491 29.0448 20.4764 29.0147 20.4623C28.9845 20.4482 28.9542 20.4345 28.9237 20.4212C28.8932 20.4079 28.8625 20.3951 28.8316 20.3827C28.8008 20.3702 28.7697 20.3582 28.7385 20.3466C28.7073 20.335 28.676 20.3238 28.6445 20.3131C28.613 20.3024 28.5813 20.2921 28.5496 20.2822C28.5178 20.2724 28.4859 20.263 28.4538 20.254C28.4218 20.245 28.3896 20.2365 28.3573 20.2284C28.325 20.2203 28.2927 20.2126 28.2602 20.2054C28.2277 20.1982 28.1951 20.1914 28.1624 20.1851C28.1298 20.1788 28.097 20.1729 28.0642 20.1675C28.0313 20.1621 27.9984 20.1571 27.9654 20.1526C27.9325 20.1481 27.8995 20.1441 27.8664 20.1404C27.8333 20.1368 27.8002 20.1337 27.767 20.131C27.7338 20.1283 27.7007 20.126 27.6674 20.1243C27.6342 20.1225 27.6009 20.1212 27.5676 20.1203C27.5344 20.1194 27.5011 20.119 27.4678 20.1191L21.0202 20.1191C20.987 20.119 20.9537 20.1194 20.9204 20.1203C20.8872 20.1212 20.8539 20.1225 20.8207 20.1243C20.7874 20.126 20.7542 20.1283 20.7211 20.131C20.6879 20.1337 20.6548 20.1368 20.6217 20.1404C20.5886 20.1441 20.5556 20.1481 20.5226 20.1526C20.4897 20.1571 20.4568 20.1621 20.4239 20.1675C20.3911 20.1729 20.3583 20.1788 20.3257 20.1851C20.293 20.1914 20.2604 20.1982 20.2279 20.2054C20.1954 20.2126 20.163 20.2203 20.1308 20.2284C20.0985 20.2365 20.0663 20.245 20.0343 20.254C20.0022 20.263 19.9703 20.2724 19.9385 20.2822C19.9067 20.2921 19.8751 20.3024 19.8436 20.3131C19.8121 20.3238 19.7808 20.335 19.7496 20.3466C19.7184 20.3582 19.6873 20.3702 19.6565 20.3827C19.6256 20.3951 19.5949 20.4079 19.5644 20.4212C19.5339 20.4345 19.5036 20.4482 19.4734 20.4623C19.4433 20.4764 19.4133 20.491 19.3836 20.5059C19.3539 20.5208 19.3243 20.5362 19.295 20.5519C19.2657 20.5677 19.2366 20.5838 19.2077 20.6004C19.1789 20.6169 19.1502 20.6339 19.1218 20.6512C19.0934 20.6685 19.0653 20.6862 19.0373 20.7044C19.0094 20.7225 18.9817 20.741 18.9543 20.7598C18.9269 20.7787 18.8998 20.7979 18.8729 20.8175C18.846 20.8371 18.8194 20.8571 18.793 20.8775C18.7667 20.8978 18.7407 20.9185 18.7149 20.9396C18.6891 20.9606 18.6636 20.982 18.6384 21.0038C18.6133 21.0255 18.5884 21.0476 18.5638 21.0701C18.5393 21.0925 18.515 21.1153 18.491 21.1384C18.4671 21.1615 18.4435 21.1849 18.4202 21.2087C18.3969 21.2325 18.3739 21.2565 18.3512 21.2809C18.3286 21.3053 18.3063 21.33 18.2843 21.355C18.2623 21.38 18.2407 21.4053 18.2195 21.4309L14.4561 25.9468C14.432 25.9759 14.4083 26.0053 14.385 26.0351C14.3618 26.0648 14.339 26.095 14.3167 26.1255C14.2943 26.1559 14.2725 26.1868 14.2512 26.2179C14.2298 26.2491 14.2089 26.2805 14.1885 26.3123C14.1681 26.3441 14.1483 26.3763 14.1289 26.4087C14.1095 26.4411 14.0906 26.4738 14.0722 26.5068C14.0538 26.5398 14.036 26.5731 14.0186 26.6067C14.0013 26.6402 13.9845 26.674 13.9682 26.7081C13.9519 26.7422 13.9361 26.7765 13.9209 26.8111C13.9056 26.8456 13.8909 26.8804 13.8768 26.9155C13.8626 26.9505 13.849 26.9857 13.8359 27.0212C13.8229 27.0566 13.8104 27.0922 13.7984 27.1281C13.7865 27.1639 13.775 27.1999 13.7642 27.2361C13.7534 27.2723 13.7431 27.3086 13.7334 27.3452C13.7236 27.3817 13.7145 27.4183 13.7059 27.4551C13.6973 27.4919 13.6893 27.5288 13.6819 27.5658L13.1697 30.1272C13.1621 30.1648 13.1557 30.2026 13.1502 30.2406C13.1448 30.2786 13.1404 30.3167 13.1371 30.355C13.1337 30.3932 13.1315 30.4315 13.1303 30.4699C13.129 30.5082 13.1289 30.5466 13.1298 30.585C13.1307 30.6233 13.1327 30.6616 13.1357 30.6999C13.1387 30.7382 13.1428 30.7763 13.1479 30.8144C13.1531 30.8524 13.1592 30.8902 13.1665 30.9279C13.1737 30.9656 13.182 31.0031 13.1913 31.0403C13.2006 31.0776 13.2109 31.1145 13.2222 31.1512C13.2336 31.1879 13.2459 31.2242 13.2592 31.2602C13.2726 31.2962 13.2869 31.3317 13.3022 31.367C13.3175 31.4021 13.3338 31.4369 13.3511 31.4712C13.3683 31.5055 13.3865 31.5393 13.4056 31.5726C13.4247 31.6058 13.4447 31.6386 13.4656 31.6708C13.4865 31.7029 13.5083 31.7345 13.5309 31.7655C13.5536 31.7965 13.5771 31.8268 13.6014 31.8565C13.6257 31.8862 13.6509 31.9152 13.6768 31.9435C13.7027 31.9717 13.7294 31.9993 13.7569 32.0261C13.7844 32.0529 13.8125 32.079 13.8414 32.1043C13.8703 32.1295 13.8999 32.1539 13.9301 32.1776C13.9604 32.2012 13.9913 32.224 14.0228 32.2459C14.0543 32.2678 14.0864 32.2888 14.119 32.309C14.1517 32.3291 14.1849 32.3484 14.2186 32.3667C14.2524 32.385 14.2866 32.4023 14.3213 32.4188C14.356 32.4352 14.3911 32.4506 14.4266 32.4651C14.4622 32.4796 14.4981 32.4931 14.5344 32.5056C14.5707 32.5181 14.6073 32.5295 14.6442 32.54C14.6811 32.5505 14.7183 32.5599 14.7558 32.5683C14.7932 32.5767 14.8309 32.5841 14.8687 32.5905C14.9066 32.5968 14.9446 32.6021 14.9827 32.6063C15.0209 32.6106 15.0591 32.6137 15.0974 32.6159C15.1357 32.618 15.1741 32.6191 15.2125 32.6191L33.2756 32.6191C33.314 32.6191 33.3523 32.618 33.3907 32.6159C33.429 32.6137 33.4672 32.6106 33.5054 32.6063C33.5435 32.6021 33.5815 32.5968 33.6194 32.5905C33.6572 32.5841 33.6949 32.5767 33.7323 32.5683C33.7698 32.5599 33.807 32.5505 33.8439 32.54C33.8808 32.5296 33.9174 32.5181 33.9537 32.5056C33.99 32.4931 34.0259 32.4796 34.0614 32.4651C34.097 32.4506 34.1321 32.4352 34.1668 32.4188C34.2015 32.4024 34.2357 32.385 34.2695 32.3667C34.3032 32.3484 34.3364 32.3291 34.369 32.309C34.4017 32.2888 34.4338 32.2678 34.4653 32.2459C34.4968 32.224 34.5277 32.2012 34.5579 32.1776C34.5882 32.1539 34.6178 32.1295 34.6467 32.1043C34.6756 32.079 34.7037 32.0529 34.7312 32.0261C34.7586 31.9993 34.7853 31.9717 34.8113 31.9435C34.8372 31.9152 34.8624 31.8862 34.8867 31.8565C34.911 31.8268 34.9345 31.7965 34.9571 31.7655C34.9798 31.7345 35.0016 31.7029 35.0225 31.6708C35.0434 31.6386 35.0634 31.6058 35.0825 31.5726C35.1016 31.5393 35.1198 31.5055 35.137 31.4712C35.1543 31.4369 35.1706 31.4021 35.1859 31.367C35.2012 31.3317 35.2155 31.2962 35.2289 31.2602C35.2422 31.2242 35.2545 31.1879 35.2659 31.1512C35.2772 31.1145 35.2875 31.0776 35.2968 31.0403C35.3061 31.0031 35.3144 30.9656 35.3216 30.9279C35.3288 30.8902 35.335 30.8524 35.3402 30.8144C35.3453 30.7763 35.3494 30.7382 35.3524 30.6999C35.3554 30.6616 35.3574 30.6233 35.3583 30.585C35.3592 30.5466 35.3591 30.5082 35.3578 30.4699C35.3566 30.4315 35.3543 30.3932 35.351 30.355C35.3477 30.3167 35.3433 30.2786 35.3379 30.2406C35.3324 30.2026 35.3259 30.1648 35.3184 30.1272L34.8062 27.5658ZM24.244 27.4107C21.9429 27.4107 20.0774 26.2449 20.0774 24.8066C20.0774 23.3682 21.9429 22.2024 24.244 22.2024C26.5451 22.2024 28.4107 23.3682 28.4107 24.8066C28.4107 26.2449 26.5451 27.4107 24.244 27.4107ZM35.7024 17.5149L35.7024 18.817C35.7024 18.8382 35.7018 18.8595 35.7007 18.8808C35.6997 18.9021 35.6981 18.9234 35.696 18.9445C35.6939 18.9657 35.6913 18.9869 35.6881 19.0079C35.685 19.029 35.6813 19.05 35.6771 19.0709C35.6729 19.0918 35.6683 19.1126 35.6631 19.1332C35.6579 19.1539 35.6522 19.1744 35.646 19.1948C35.6398 19.2151 35.6331 19.2354 35.6259 19.2554C35.6187 19.2755 35.611 19.2953 35.6029 19.315C35.5947 19.3347 35.5861 19.3542 35.577 19.3734C35.5678 19.3927 35.5582 19.4117 35.5482 19.4305C35.5382 19.4493 35.5277 19.4678 35.5167 19.486C35.5057 19.5043 35.4943 19.5223 35.4825 19.54C35.4706 19.5577 35.4584 19.5751 35.4457 19.5922C35.433 19.6093 35.4199 19.6261 35.4064 19.6426C35.3928 19.659 35.3789 19.6752 35.3646 19.691C35.3503 19.7068 35.3356 19.7222 35.3206 19.7372C35.3055 19.7523 35.2901 19.767 35.2743 19.7813C35.2585 19.7956 35.2424 19.8095 35.2259 19.823C35.2095 19.8366 35.1927 19.8497 35.1756 19.8624C35.1585 19.875 35.1411 19.8873 35.1233 19.8992C35.1056 19.911 35.0876 19.9224 35.0694 19.9334C35.0511 19.9443 35.0326 19.9548 35.0138 19.9649C34.995 19.9749 34.976 19.9845 34.9567 19.9936C34.9375 20.0027 34.918 20.0114 34.8984 20.0195C34.8787 20.0277 34.8588 20.0354 34.8388 20.0426C34.8187 20.0497 34.7985 20.0565 34.7781 20.0627C34.7577 20.0689 34.7372 20.0745 34.7165 20.0797C34.6959 20.0849 34.6751 20.0896 34.6542 20.0938C34.6333 20.0979 34.6124 20.1016 34.5913 20.1048C34.5702 20.1079 34.5491 20.1105 34.5279 20.1126C34.5067 20.1147 34.4854 20.1163 34.4642 20.1174C34.4429 20.1185 34.4216 20.119 34.4003 20.1191L29.7128 20.1191C29.6915 20.119 29.6702 20.1185 29.6489 20.1174C29.6277 20.1163 29.6064 20.1147 29.5852 20.1126C29.564 20.1105 29.5429 20.1079 29.5218 20.1048C29.5008 20.1016 29.4798 20.0979 29.4589 20.0938C29.438 20.0896 29.4172 20.0849 29.3966 20.0797C29.3759 20.0745 29.3554 20.0689 29.335 20.0627C29.3146 20.0565 29.2944 20.0497 29.2743 20.0426C29.2543 20.0354 29.2344 20.0277 29.2147 20.0195C29.1951 20.0114 29.1756 20.0027 29.1563 19.9936C29.1371 19.9845 29.1181 19.9749 29.0993 19.9649C29.0805 19.9548 29.062 19.9443 29.0437 19.9334C29.0254 19.9224 29.0075 19.911 28.9897 19.8992C28.972 19.8873 28.9546 19.875 28.9375 19.8624C28.9204 19.8497 28.9036 19.8366 28.8872 19.823C28.8707 19.8095 28.8546 19.7956 28.8388 19.7813C28.823 19.767 28.8076 19.7523 28.7925 19.7372C28.7775 19.7222 28.7628 19.7068 28.7485 19.691C28.7341 19.6752 28.7202 19.659 28.7067 19.6426C28.6932 19.6261 28.6801 19.6093 28.6674 19.5922C28.6547 19.5751 28.6425 19.5577 28.6306 19.54C28.6188 19.5223 28.6074 19.5043 28.5964 19.486C28.5854 19.4678 28.5749 19.4493 28.5649 19.4305C28.5549 19.4117 28.5453 19.3927 28.5361 19.3734C28.527 19.3542 28.5184 19.3347 28.5102 19.315C28.5021 19.2953 28.4944 19.2755 28.4872 19.2554C28.48 19.2354 28.4733 19.2151 28.4671 19.1948C28.4609 19.1744 28.4552 19.1539 28.45 19.1332C28.4448 19.1125 28.4402 19.0918 28.436 19.0709C28.4318 19.05 28.4281 19.029 28.425 19.0079C28.4219 18.9869 28.4192 18.9657 28.4171 18.9445C28.415 18.9234 28.4134 18.9021 28.4123 18.8808C28.4113 18.8595 28.4107 18.8382 28.4107 18.817L28.4107 17.5149C28.4107 17.1913 28.0038 16.8093 27.3471 16.5176C26.5269 16.1531 25.4249 15.9524 24.244 15.9524C23.0632 15.9524 21.9612 16.1531 21.141 16.5176C20.4843 16.8093 20.0774 17.1913 20.0774 17.5149L20.0774 18.817C20.0774 18.8382 20.0768 18.8595 20.0757 18.8808C20.0747 18.9021 20.0731 18.9234 20.071 18.9445C20.0689 18.9657 20.0663 18.9869 20.0631 19.0079C20.06 19.029 20.0563 19.05 20.0521 19.0709C20.0479 19.0918 20.0433 19.1126 20.0381 19.1332C20.0329 19.1539 20.0272 19.1744 20.021 19.1948C20.0148 19.2151 20.0081 19.2354 20.0009 19.2554C19.9937 19.2755 19.986 19.2953 19.9779 19.315C19.9697 19.3347 19.9611 19.3542 19.9519 19.3734C19.9428 19.3927 19.9332 19.4117 19.9232 19.4305C19.9132 19.4493 19.9027 19.4678 19.8917 19.486C19.8807 19.5043 19.8693 19.5223 19.8575 19.54C19.8456 19.5577 19.8334 19.5751 19.8207 19.5922C19.808 19.6093 19.7949 19.6261 19.7814 19.6426C19.7678 19.6591 19.7539 19.6752 19.7396 19.691C19.7253 19.7068 19.7106 19.7222 19.6956 19.7372C19.6805 19.7523 19.6651 19.767 19.6493 19.7813C19.6335 19.7956 19.6174 19.8095 19.6009 19.823C19.5845 19.8366 19.5677 19.8497 19.5506 19.8624C19.5335 19.8751 19.5161 19.8873 19.4983 19.8992C19.4806 19.911 19.4626 19.9224 19.4444 19.9334C19.4261 19.9443 19.4076 19.9548 19.3888 19.9649C19.37 19.9749 19.351 19.9845 19.3317 19.9936C19.3125 20.0027 19.293 20.0114 19.2734 20.0195C19.2537 20.0277 19.2338 20.0354 19.2137 20.0426C19.1937 20.0497 19.1735 20.0565 19.1531 20.0627C19.1327 20.0689 19.1122 20.0745 19.0915 20.0797C19.0709 20.0849 19.0501 20.0896 19.0292 20.0938C19.0083 20.0979 18.9873 20.1016 18.9663 20.1048C18.9452 20.1079 18.9241 20.1105 18.9029 20.1126C18.8817 20.1147 18.8604 20.1163 18.8392 20.1174C18.8179 20.1185 18.7966 20.119 18.7753 20.1191L14.0878 20.1191C14.0665 20.119 14.0452 20.1185 14.0239 20.1174C14.0026 20.1163 13.9814 20.1147 13.9602 20.1126C13.939 20.1105 13.9179 20.1079 13.8968 20.1048C13.8757 20.1016 13.8548 20.0979 13.8339 20.0938C13.813 20.0896 13.7922 20.0849 13.7715 20.0797C13.7509 20.0745 13.7304 20.0689 13.71 20.0627C13.6896 20.0565 13.6694 20.0497 13.6493 20.0426C13.6293 20.0354 13.6094 20.0277 13.5897 20.0195C13.5701 20.0114 13.5506 20.0027 13.5313 19.9936C13.5121 19.9845 13.4931 19.9749 13.4743 19.9649C13.4555 19.9548 13.437 19.9443 13.4187 19.9334C13.4004 19.9224 13.3825 19.911 13.3647 19.8992C13.347 19.8873 13.3296 19.8751 13.3125 19.8624C13.2954 19.8497 13.2786 19.8366 13.2622 19.823C13.2457 19.8095 13.2296 19.7956 13.2138 19.7813C13.198 19.767 13.1826 19.7523 13.1675 19.7372C13.1524 19.7222 13.1378 19.7068 13.1235 19.691C13.1091 19.6752 13.0952 19.6591 13.0817 19.6426C13.0682 19.6261 13.0551 19.6093 13.0424 19.5922C13.0297 19.5751 13.0174 19.5577 13.0056 19.54C12.9938 19.5223 12.9824 19.5043 12.9714 19.486C12.9604 19.4678 12.9499 19.4493 12.9399 19.4305C12.9298 19.4117 12.9203 19.3927 12.9111 19.3734C12.902 19.3542 12.8934 19.3347 12.8852 19.315C12.8771 19.2953 12.8694 19.2755 12.8622 19.2554C12.855 19.2354 12.8483 19.2151 12.8421 19.1948C12.8359 19.1744 12.8302 19.1539 12.825 19.1332C12.8198 19.1126 12.8151 19.0918 12.811 19.0709C12.8068 19.05 12.8031 19.029 12.8 19.0079C12.7969 18.9869 12.7942 18.9657 12.7921 18.9445C12.79 18.9234 12.7884 18.9021 12.7873 18.8808C12.7863 18.8595 12.7857 18.8382 12.7857 18.817L12.7857 17.5149C12.7857 15.9117 14.0289 14.4368 16.2862 13.3617C18.4205 12.3454 21.2467 11.7857 24.244 11.7857C27.2414 11.7857 30.0676 12.3454 32.2019 13.3617C34.4592 14.4368 35.7024 15.9117 35.7024 17.5149Z"   fill="url(#linear_fill_ZiZ24FuEbAGc17lyYmMPk)" >
</path>
</g>
</g>
<defs>
<mask id="mask-5_456" style="mask-type:alpha" maskUnits="userSpaceOnUse">
<path     fill="#5B93FB"  d="M10 -4.65366e-15L38 -4.65366e-15C43.5228 -4.65366e-15 48 4.47715 48 10L48 38C48 43.5228 43.5228 48 38 48L10 48C4.47715 48 -7.99502e-15 43.5228 -6.98049e-15 38L2.32683e-15 10C2.66501e-15 4.47715 4.47715 -5.33001e-15 10 -4.65366e-15Z">
</path>
</mask>
<filter id="filter_5_457" x="-18.09991455078125" y="-15.550048828125" width="48.774993896484375" height="48.7750244140625" filterUnits="userSpaceOnUse" color-interpolation-filters="sRGB">
<feFlood flood-opacity="0" result="feFloodId_5_457"/>
<feBlend mode="normal" in="SourceGraphic" in2="feFloodId_5_457" result="shape"/>
<feGaussianBlur result="gaussian_blur_5_457" stdDeviation="5.5"/>
</filter>
<filter id="filter_5_458" x="11.57000732421875" y="18.1500244140625" width="53.875" height="53.875" filterUnits="userSpaceOnUse" color-interpolation-filters="sRGB">
<feFlood flood-opacity="0" result="feFloodId_5_458"/>
<feBlend mode="normal" in="SourceGraphic" in2="feFloodId_5_458" result="shape"/>
<feGaussianBlur result="gaussian_blur_5_458" stdDeviation="5.5"/>
</filter>
<clipPath id="clip-path-cJQazJXhJzCS0um_xoM0v">
<path d="M11 35L36 35L36 10L11 10L11 35Z" fill="white"/>
</clipPath>
<linearGradient id="linear_fill_ZiZ24FuEbAGc17lyYmMPk" x1="25.352294921875" y1="19.99737548828125" x2="25.352294921875" y2="32.6190185546875" gradientUnits="userSpaceOnUse">
<stop offset="0" stop-color="#FFFFFF"  />
<stop offset="1" stop-color="#8FB2FF"  />
</linearGradient>
<filter id="filter_ZiZ24FuEbAGc17lyYmMPk" x="10.785713195800781" y="11.78570556640625" width="26.916648864746094" height="24.8333740234375" filterUnits="userSpaceOnUse" color-interpolation-filters="sRGB">
<feFlood flood-opacity="0" result="feFloodId_ZiZ24FuEbAGc17lyYmMPk"/>
<feColorMatrix in="SourceAlpha" type="matrix" values="0 0 0 0 0 0 0 0 0 0 0 0 0 0 0 0 0 0 127 0" result="hardAlpha_ZiZ24FuEbAGc17lyYmMPk"/>
<feOffset dx="0" dy="2"/>
<feGaussianBlur stdDeviation="1"/>
<feComposite in2="hardAlpha_ZiZ24FuEbAGc17lyYmMPk" operator="out"/>
<feColorMatrix type="matrix" values="0 0 0 0 0 0 0 0 0 0 0 0 0 0 0 0 0 0 0.25 0"/>
<feBlend mode="normal" in2="feFloodId_ZiZ24FuEbAGc17lyYmMPk" result="dropShadow_1_ZiZ24FuEbAGc17lyYmMPk"/>
<feBlend mode="normal" in="SourceGraphic" in2="dropShadow_1_ZiZ24FuEbAGc17lyYmMPk" result="shape_ZiZ24FuEbAGc17lyYmMPk"/>
</filter>
</defs>
</svg>
