<svg xmlns="http://www.w3.org/2000/svg" xmlns:xlink="http://www.w3.org/1999/xlink" width="48" height="48" viewBox="0 0 48 48" fill="none">
<path     fill="#FFA852"  d="M10 -4.65366e-15L38 -4.65366e-15C43.5228 -4.65366e-15 48 4.47715 48 10L48 38C48 43.5228 43.5228 48 38 48L10 48C4.47715 48 -7.99502e-15 43.5228 -6.98049e-15 38L2.32683e-15 10C2.66501e-15 4.47715 4.47715 -5.33001e-15 10 -4.65366e-15Z">
</path>
<g mask="url(#mask-7SiojUddFvb4de60rnQHC)">
<g filter="url(#filter_1_330)">
<path d="M19.6751 8.83745C19.6751 16.2312 13.6813 22.225 6.28758 22.225C-1.10613 22.225 -7.09991 16.2312 -7.09991 8.83745C-7.09991 1.44374 -1.10613 -4.55005 6.28758 -4.55005C13.6813 -4.55005 19.6751 1.44374 19.6751 8.83745Z"   fill="#FFC48A" >
</path>
</g>
</g>
<g mask="url(#mask-7SiojUddFvb4de60rnQHC)">
<g filter="url(#filter_1_331)">
<path d="M57.875 45.9375C57.875 54.7395 50.7395 61.875 41.9375 61.875C33.1355 61.875 26 54.7395 26 45.9375C26 37.1355 33.1355 30 41.9375 30C50.7395 30 57.875 37.1355 57.875 45.9375Z"   fill="#FFC48A" >
</path>
</g>
</g>
<g filter="url(#filter_5_619)">
<circle  cx="24.5" cy="22.5" r="13.5"    fill="url(#linear_fill_5_619_0)" >
</circle>
<circle  cx="24.5" cy="22.5" r="13.5"    fill="#FFA852" >
</circle>
</g>
<path d="M22.2615 15L27.5388 15C27.6115 15 27.6482 15.0347 27.6482 15.1045L27.6482 16.8383C27.6482 16.9081 27.6115 16.9432 27.5388 16.9432L22.2623 16.9432C22.1889 16.9432 22.1525 16.9081 22.1525 16.8383L22.1525 15.1045C22.1525 15.0351 22.1889 15 22.2623 15L22.2619 15L22.2615 15ZM24.9965 26.035C24.9965 24.0038 26.7374 22.3569 28.8851 22.3569C28.927 22.3569 28.9689 22.3574 29.0108 22.3586C29.0527 22.3599 29.0945 22.3617 29.1363 22.3642C29.1781 22.3667 29.2199 22.3699 29.2616 22.3737C29.3033 22.3775 29.345 22.3819 29.3865 22.387C29.4281 22.3921 29.4696 22.3978 29.5109 22.4041C29.5523 22.4105 29.5936 22.4175 29.6347 22.4251C29.6758 22.4327 29.7168 22.441 29.7577 22.4498C29.7985 22.4587 29.8392 22.4682 29.8798 22.4784C29.9203 22.4885 29.9606 22.4993 30.0008 22.5106C30.041 22.522 30.081 22.534 30.1207 22.5466C30.1605 22.5592 30.2 22.5724 30.2394 22.5863C30.2787 22.6001 30.3178 22.6145 30.3566 22.6296C30.3954 22.6446 30.434 22.6602 30.4723 22.6764C30.5106 22.6926 30.5486 22.7095 30.5864 22.7268C30.6241 22.7442 30.6616 22.7622 30.6987 22.7807C30.7358 22.7993 30.7727 22.8184 30.8091 22.8381C30.8026 19.7748 30.7996 16.644 30.7996 16.644C30.7996 16.6378 30.7994 16.6317 30.7991 16.6256C30.7987 16.6195 30.7982 16.6134 30.7976 16.6074C30.797 16.6013 30.7961 16.5952 30.7952 16.5892C30.7942 16.5831 30.7931 16.5771 30.7919 16.5711C30.7906 16.5651 30.7892 16.5591 30.7876 16.5532C30.7861 16.5473 30.7844 16.5414 30.7825 16.5355C30.7806 16.5297 30.7786 16.5239 30.7764 16.5182C30.7743 16.5124 30.772 16.5067 30.7695 16.5011C30.7671 16.4954 30.7645 16.4898 30.7617 16.4843C30.759 16.4788 30.7561 16.4733 30.7531 16.4679C30.75 16.4626 30.7469 16.4572 30.7436 16.452C30.7403 16.4467 30.7369 16.4416 30.7333 16.4365C30.7298 16.4314 30.7261 16.4264 30.7223 16.4215C30.7185 16.4166 30.7145 16.4118 30.7105 16.4071C30.7064 16.4023 30.7022 16.3977 30.6979 16.3932C30.6936 16.3886 30.6892 16.3842 30.6847 16.3799C30.6802 16.3756 30.6756 16.3713 30.6708 16.3672C30.6661 16.3631 30.6612 16.3591 30.6563 16.3552C30.6514 16.3514 30.6463 16.3476 30.6412 16.344C30.636 16.3403 30.6308 16.3368 30.6255 16.3334C30.6202 16.33 30.6148 16.3267 30.6093 16.3236C30.6038 16.3204 30.5983 16.3174 30.5926 16.3145C30.587 16.3116 30.5813 16.3088 30.5755 16.3062C30.5697 16.3036 30.5639 16.3011 30.558 16.2987C30.5521 16.2964 30.5461 16.2942 30.5401 16.2921C30.534 16.29 30.528 16.2881 30.5219 16.2863C30.5157 16.2845 30.5096 16.2829 30.5034 16.2814C30.4972 16.2799 30.491 16.2785 30.4847 16.2773C30.4784 16.2761 30.4721 16.275 30.4658 16.2741C30.4595 16.2732 30.4531 16.2724 30.4467 16.2718C30.4404 16.2712 30.434 16.2707 30.4276 16.2704C30.4212 16.2701 30.4148 16.2699 30.4084 16.2699L28.2997 16.2699L28.2997 17.192C28.2997 17.1981 28.2995 17.2042 28.2992 17.2103C28.2989 17.2164 28.2984 17.2225 28.2978 17.2286C28.2971 17.2347 28.2963 17.2408 28.2954 17.2468C28.2944 17.2529 28.2933 17.2589 28.2921 17.2649C28.2908 17.2709 28.2894 17.2769 28.2878 17.2828C28.2863 17.2888 28.2846 17.2946 28.2827 17.3005C28.2808 17.3063 28.2788 17.3122 28.2767 17.3179C28.2745 17.3237 28.2722 17.3294 28.2697 17.3351C28.2673 17.3407 28.2647 17.3463 28.2619 17.3518C28.2592 17.3574 28.2563 17.3628 28.2533 17.3682C28.2503 17.3736 28.2471 17.379 28.2438 17.3842C28.2405 17.3894 28.2371 17.3946 28.2335 17.3997C28.2299 17.4048 28.2263 17.4098 28.2225 17.4147C28.2186 17.4196 28.2147 17.4244 28.2106 17.4292C28.2066 17.4339 28.2024 17.4386 28.1981 17.4431C28.1938 17.4476 28.1894 17.4521 28.1848 17.4564C28.1803 17.4607 28.1757 17.4649 28.1709 17.4691C28.1662 17.4732 28.1613 17.4772 28.1564 17.4811C28.1514 17.4849 28.1464 17.4887 28.1413 17.4924C28.1361 17.496 28.1309 17.4995 28.1256 17.503C28.1202 17.5064 28.1148 17.5096 28.1093 17.5128C28.1039 17.5159 28.0983 17.519 28.0926 17.5219C28.087 17.5247 28.0813 17.5275 28.0755 17.5301C28.0697 17.5328 28.0638 17.5353 28.0579 17.5376C28.052 17.54 28.0461 17.5422 28.04 17.5442C28.034 17.5463 28.0279 17.5482 28.0218 17.55C28.0157 17.5518 28.0095 17.5535 28.0033 17.555C27.9971 17.5565 27.9908 17.5578 27.9845 17.559C27.9783 17.5602 27.972 17.5613 27.9656 17.5622C27.9593 17.5631 27.9529 17.5639 27.9466 17.5645C27.9402 17.5651 27.9338 17.5656 27.9274 17.5659C27.921 17.5662 27.9146 17.5664 27.9082 17.5664L21.8922 17.5664C21.8858 17.5664 21.8793 17.5662 21.873 17.5659C21.8666 17.5656 21.8602 17.5652 21.8538 17.5645C21.8474 17.5639 21.8411 17.5632 21.8348 17.5623C21.8284 17.5614 21.8221 17.5603 21.8158 17.5591C21.8096 17.5579 21.8033 17.5566 21.7971 17.5551C21.7909 17.5536 21.7847 17.5519 21.7786 17.5502C21.7725 17.5484 21.7664 17.5465 21.7604 17.5444C21.7544 17.5423 21.7484 17.5401 21.7425 17.5378C21.7366 17.5354 21.7307 17.5329 21.7249 17.5303C21.7191 17.5277 21.7134 17.525 21.7078 17.5221C21.7021 17.5192 21.6966 17.5162 21.6911 17.5131C21.6856 17.5099 21.6802 17.5066 21.6748 17.5032C21.6695 17.4998 21.6643 17.4963 21.6591 17.4927C21.654 17.489 21.6489 17.4853 21.644 17.4814C21.639 17.4775 21.6342 17.4735 21.6294 17.4694C21.6247 17.4653 21.6201 17.4611 21.6155 17.4568C21.611 17.4524 21.6066 17.448 21.6023 17.4435C21.598 17.439 21.5938 17.4343 21.5897 17.4296C21.5856 17.4249 21.5817 17.4201 21.5779 17.4152C21.574 17.4103 21.5704 17.4053 21.5668 17.4002C21.5632 17.3951 21.5598 17.39 21.5565 17.3847C21.5532 17.3795 21.55 17.3742 21.547 17.3688C21.544 17.3634 21.5411 17.3579 21.5383 17.3524C21.5356 17.3469 21.533 17.3413 21.5305 17.3356C21.528 17.33 21.5257 17.3243 21.5235 17.3185C21.5214 17.3128 21.5193 17.307 21.5175 17.3011C21.5156 17.2953 21.5139 17.2894 21.5123 17.2835C21.5107 17.2775 21.5093 17.2716 21.508 17.2656C21.5068 17.2596 21.5056 17.2536 21.5047 17.2475C21.5037 17.2415 21.5029 17.2354 21.5023 17.2293C21.5016 17.2232 21.5011 17.2171 21.5008 17.211C21.5004 17.2049 21.5003 17.1988 21.5002 17.1927L21.5002 16.271L19.3919 16.271C19.3855 16.271 19.3791 16.2711 19.3727 16.2715C19.3664 16.2718 19.36 16.2722 19.3536 16.2728C19.3472 16.2734 19.3409 16.2742 19.3346 16.2751C19.3283 16.276 19.322 16.277 19.3157 16.2782C19.3094 16.2794 19.3032 16.2808 19.297 16.2823C19.2908 16.2838 19.2846 16.2854 19.2785 16.2872C19.2724 16.2889 19.2663 16.2909 19.2603 16.2929C19.2543 16.295 19.2483 16.2972 19.2424 16.2995C19.2365 16.3019 19.2307 16.3043 19.2249 16.3069C19.2191 16.3096 19.2134 16.3123 19.2077 16.3152C19.2021 16.3181 19.1965 16.3211 19.191 16.3242C19.1856 16.3273 19.1801 16.3306 19.1748 16.334C19.1695 16.3374 19.1643 16.3409 19.1591 16.3445C19.154 16.3482 19.149 16.3519 19.144 16.3558C19.1391 16.3597 19.1342 16.3636 19.1295 16.3677C19.1247 16.3718 19.1201 16.376 19.1155 16.3803C19.111 16.3846 19.1066 16.3891 19.1023 16.3936C19.098 16.3981 19.0938 16.4027 19.0897 16.4074C19.0857 16.4121 19.0817 16.417 19.0779 16.4219C19.0741 16.4267 19.0704 16.4317 19.0668 16.4368C19.0632 16.4419 19.0598 16.447 19.0565 16.4523C19.0532 16.4575 19.05 16.4628 19.047 16.4682C19.044 16.4735 19.0411 16.479 19.0383 16.4845C19.0355 16.49 19.0329 16.4956 19.0305 16.5012C19.028 16.5069 19.0257 16.5126 19.0235 16.5183C19.0213 16.524 19.0193 16.5298 19.0174 16.5357C19.0155 16.5415 19.0138 16.5474 19.0122 16.5533C19.0106 16.5592 19.0092 16.5652 19.0079 16.5712C19.0066 16.5772 19.0055 16.5832 19.0045 16.5892C19.0036 16.5952 19.0028 16.6013 19.0021 16.6074C19.0014 16.6135 19.0009 16.6195 19.0006 16.6257C19.0002 16.6317 19 16.6379 19 16.644L19 28.4597C19.0004 28.6661 19.1759 28.8334 19.3919 28.8338L26.3623 28.8338C26.3357 28.8124 26.3093 28.7907 26.2833 28.7687C26.2573 28.7467 26.2316 28.7243 26.2062 28.7016C26.1808 28.6789 26.1557 28.6559 26.131 28.6325C26.1063 28.6092 26.0819 28.5855 26.0579 28.5615C26.0338 28.5375 26.0101 28.5132 25.9867 28.4886C25.9634 28.464 25.9404 28.4391 25.9177 28.4139C25.8951 28.3887 25.8728 28.3632 25.8509 28.3374C25.829 28.3116 25.8074 28.2855 25.7862 28.2592C25.7651 28.2328 25.7443 28.2062 25.7239 28.1793C25.7035 28.1524 25.6834 28.1253 25.6638 28.0979C25.6442 28.0704 25.6249 28.0428 25.6061 28.0149C25.5872 27.9869 25.5688 27.9588 25.5507 27.9304C25.5327 27.902 25.5151 27.8734 25.4978 27.8445C25.4806 27.8156 25.4638 27.7866 25.4474 27.7573C25.431 27.728 25.415 27.6985 25.3995 27.6688C25.3839 27.639 25.3688 27.6091 25.3541 27.579C25.3394 27.5489 25.3251 27.5186 25.3113 27.4882C25.2975 27.4577 25.2841 27.427 25.2711 27.3962C25.2582 27.3654 25.2456 27.3344 25.2336 27.3032C25.2215 27.2721 25.2099 27.2408 25.1987 27.2093C25.1875 27.1778 25.1768 27.1462 25.1665 27.1145C25.1562 27.0828 25.1464 27.0509 25.137 27.0189C25.1277 26.9869 25.1188 26.9548 25.1103 26.9226C25.1019 26.8904 25.0939 26.858 25.0864 26.8256C25.0788 26.7932 25.0718 26.7607 25.0652 26.728C25.0586 26.6954 25.0525 26.6627 25.0468 26.6299C25.0411 26.5972 25.0359 26.5643 25.0312 26.5314C25.0265 26.4985 25.0222 26.4655 25.0184 26.4325C25.0147 26.3995 25.0114 26.3664 25.0085 26.3333C25.0057 26.3002 25.0033 26.267 25.0014 26.2339C24.9995 26.2007 24.9981 26.1675 24.9972 26.1343C24.9962 26.1011 24.9958 26.0679 24.9958 26.0347L24.9965 26.0347L24.9965 26.035ZM21.1871 19.8625C21.1871 19.8596 21.1872 19.8568 21.1873 19.854C21.1875 19.8511 21.1877 19.8483 21.188 19.8455C21.1883 19.8427 21.1887 19.8398 21.1892 19.837C21.1896 19.8342 21.1901 19.8314 21.1907 19.8286C21.1913 19.8258 21.192 19.8231 21.1927 19.8203C21.1934 19.8176 21.1942 19.8148 21.1951 19.8121C21.196 19.8094 21.1969 19.8067 21.1979 19.804C21.1989 19.8014 21.2 19.7987 21.2012 19.7961C21.2023 19.7935 21.2035 19.7909 21.2048 19.7883C21.2061 19.7857 21.2074 19.7832 21.2088 19.7807C21.2102 19.7782 21.2117 19.7757 21.2132 19.7733C21.2148 19.7709 21.2164 19.7685 21.218 19.7661C21.2197 19.7638 21.2214 19.7614 21.2232 19.7592C21.2249 19.7569 21.2268 19.7547 21.2287 19.7525C21.2305 19.7503 21.2325 19.7481 21.2345 19.746C21.2365 19.7439 21.2385 19.7419 21.2406 19.7399C21.2427 19.7379 21.2449 19.7359 21.2471 19.734C21.2493 19.7321 21.2516 19.7302 21.2539 19.7284C21.2562 19.7266 21.2585 19.7249 21.2609 19.7232C21.2633 19.7215 21.2657 19.7199 21.2682 19.7183C21.2707 19.7167 21.2732 19.7152 21.2757 19.7137C21.2783 19.7123 21.2809 19.7109 21.2835 19.7095C21.2861 19.7082 21.2888 19.7069 21.2914 19.7057C21.2941 19.7045 21.2968 19.7033 21.2996 19.7023C21.3023 19.7012 21.3051 19.7001 21.3079 19.6992C21.3107 19.6982 21.3135 19.6973 21.3164 19.6965C21.3192 19.6957 21.3221 19.6949 21.325 19.6942C21.3278 19.6935 21.3308 19.6929 21.3337 19.6923C21.3366 19.6918 21.3395 19.6913 21.3424 19.6909C21.3454 19.6904 21.3483 19.6901 21.3513 19.6898C21.3542 19.6895 21.3572 19.6893 21.3602 19.6892C21.3631 19.689 21.3661 19.689 21.3691 19.689L28.4309 19.689C28.5307 19.689 28.6121 19.7668 28.6125 19.8625L28.6125 20.7886C28.6125 20.7914 28.6124 20.7943 28.6123 20.7971C28.6121 20.7999 28.6119 20.8027 28.6116 20.8056C28.6113 20.8084 28.6109 20.8112 28.6105 20.814C28.61 20.8168 28.6095 20.8196 28.6089 20.8224C28.6083 20.8252 28.6077 20.8279 28.607 20.8307C28.6062 20.8334 28.6055 20.8362 28.6046 20.8389C28.6037 20.8416 28.6028 20.8443 28.6018 20.847C28.6008 20.8496 28.5997 20.8523 28.5986 20.8549C28.5974 20.8575 28.5962 20.8601 28.5949 20.8626C28.5937 20.8652 28.5923 20.8677 28.5909 20.8702C28.5895 20.8727 28.5881 20.8752 28.5865 20.8776C28.585 20.8801 28.5834 20.8825 28.5818 20.8848C28.5801 20.8872 28.5784 20.8895 28.5766 20.8918C28.5749 20.894 28.573 20.8963 28.5711 20.8985C28.5692 20.9007 28.5673 20.9028 28.5653 20.9049C28.5633 20.907 28.5613 20.909 28.5592 20.911C28.5571 20.9131 28.5549 20.915 28.5527 20.9169C28.5505 20.9188 28.5483 20.9207 28.546 20.9225C28.5437 20.9242 28.5413 20.926 28.5389 20.9277C28.5366 20.9294 28.5341 20.931 28.5317 20.9326C28.5292 20.9342 28.5267 20.9357 28.5241 20.9371C28.5216 20.9386 28.519 20.94 28.5164 20.9413C28.5138 20.9426 28.5111 20.9439 28.5084 20.9451C28.5057 20.9463 28.503 20.9475 28.5003 20.9486C28.4976 20.9496 28.4948 20.9507 28.492 20.9516C28.4892 20.9526 28.4864 20.9535 28.4835 20.9543C28.4807 20.9551 28.4778 20.9559 28.4749 20.9566C28.4721 20.9572 28.4692 20.9579 28.4663 20.9584C28.4633 20.959 28.4604 20.9595 28.4575 20.9599C28.4545 20.9603 28.4516 20.9606 28.4487 20.9609C28.4457 20.9612 28.4427 20.9614 28.4398 20.9615C28.4368 20.9617 28.4338 20.9617 28.4309 20.9617L21.3687 20.9617C21.3657 20.9617 21.3628 20.9617 21.3598 20.9615C21.3569 20.9613 21.3539 20.9611 21.351 20.9609C21.348 20.9606 21.3451 20.9602 21.3421 20.9598C21.3392 20.9593 21.3363 20.9589 21.3334 20.9583C21.3305 20.9577 21.3276 20.9571 21.3247 20.9564C21.3218 20.9557 21.319 20.955 21.3161 20.9541C21.3133 20.9533 21.3105 20.9524 21.3077 20.9515C21.3049 20.9505 21.3021 20.9495 21.2994 20.9484C21.2967 20.9473 21.294 20.9461 21.2913 20.9449C21.2886 20.9437 21.286 20.9424 21.2834 20.9411C21.2807 20.9398 21.2782 20.9384 21.2756 20.9369C21.2731 20.9354 21.2706 20.9339 21.2681 20.9323C21.2656 20.9308 21.2632 20.9291 21.2608 20.9275C21.2584 20.9258 21.2561 20.924 21.2538 20.9222C21.2515 20.9204 21.2493 20.9186 21.2471 20.9167C21.2449 20.9148 21.2427 20.9128 21.2406 20.9108C21.2385 20.9088 21.2365 20.9068 21.2345 20.9047C21.2325 20.9026 21.2306 20.9004 21.2287 20.8983C21.2268 20.8961 21.225 20.8938 21.2232 20.8916C21.2214 20.8893 21.2197 20.887 21.2181 20.8846C21.2164 20.8823 21.2148 20.8799 21.2133 20.8775C21.2118 20.875 21.2103 20.8726 21.2089 20.8701C21.2075 20.8676 21.2061 20.8651 21.2049 20.8625C21.2036 20.8599 21.2024 20.8574 21.2012 20.8548C21.2001 20.8521 21.199 20.8495 21.198 20.8468C21.197 20.8442 21.196 20.8415 21.1952 20.8388C21.1943 20.8361 21.1935 20.8333 21.1928 20.8306C21.192 20.8279 21.1914 20.8251 21.1908 20.8223C21.1902 20.8195 21.1897 20.8168 21.1892 20.814C21.1888 20.8112 21.1884 20.8084 21.1881 20.8055C21.1877 20.8027 21.1875 20.7999 21.1874 20.7971C21.1872 20.7942 21.1871 20.7914 21.1871 20.7886L21.1871 19.8625ZM28.8771 23.0324C28.9282 23.0324 28.9793 23.0336 29.0303 23.036C29.0814 23.0384 29.1323 23.042 29.1832 23.0468C29.2341 23.0515 29.2848 23.0575 29.3353 23.0647C29.3859 23.0719 29.4362 23.0802 29.4863 23.0897C29.5365 23.0993 29.5863 23.11 29.6359 23.1218C29.6855 23.1337 29.7347 23.1467 29.7836 23.1609C29.8325 23.1751 29.881 23.1904 29.9292 23.2068C29.9773 23.2233 30.0249 23.2408 30.0722 23.2595C30.1194 23.2782 30.1661 23.298 30.2123 23.3189C30.2585 23.3398 30.3041 23.3617 30.3492 23.3847C30.3943 23.4078 30.4387 23.4318 30.4826 23.4569C30.5264 23.482 30.5696 23.5081 30.6121 23.5353C30.6546 23.5624 30.6963 23.5905 30.7374 23.6196C30.7785 23.6487 30.8187 23.6787 30.8582 23.7097C30.8977 23.7407 30.9364 23.7726 30.9743 23.8054C31.0122 23.8381 31.0492 23.8718 31.0853 23.9063C31.1215 23.9409 31.1567 23.9762 31.191 24.0124C31.2253 24.0486 31.2587 24.0855 31.2911 24.1233C31.3236 24.161 31.355 24.1995 31.3854 24.2388C31.4159 24.278 31.4453 24.3179 31.4737 24.3585C31.5021 24.3991 31.5294 24.4403 31.5557 24.4822C31.582 24.5241 31.6072 24.5666 31.6312 24.6096C31.6553 24.6527 31.6783 24.6963 31.7002 24.7405C31.722 24.7846 31.7427 24.8292 31.7623 24.8744C31.7818 24.9195 31.8002 24.965 31.8174 25.011C31.8347 25.057 31.8507 25.1033 31.8655 25.15C31.8804 25.1968 31.894 25.2438 31.9064 25.2912C31.9188 25.3386 31.93 25.3862 31.94 25.4341C31.95 25.482 31.9587 25.5301 31.9662 25.5784C31.9737 25.6267 31.9799 25.6751 31.985 25.7237C31.99 25.7723 31.9937 25.821 31.9962 25.8698C31.9988 25.9186 32 25.9674 32 26.0162C32 26.065 31.9988 26.1138 31.9962 26.1626C31.9937 26.2114 31.99 26.2601 31.985 26.3087C31.9799 26.3573 31.9737 26.4057 31.9662 26.454C31.9587 26.5023 31.95 26.5504 31.94 26.5983C31.93 26.6462 31.9188 26.6938 31.9064 26.7412C31.894 26.7886 31.8804 26.8356 31.8655 26.8824C31.8507 26.9291 31.8347 26.9754 31.8174 27.0214C31.8002 27.0674 31.7818 27.1129 31.7623 27.1581C31.7427 27.2032 31.722 27.2478 31.7002 27.2919C31.6783 27.3361 31.6553 27.3797 31.6312 27.4228C31.6072 27.4658 31.582 27.5083 31.5557 27.5502C31.5294 27.5921 31.5021 27.6333 31.4737 27.6739C31.4453 27.7145 31.4159 27.7544 31.3854 27.7936C31.355 27.8329 31.3236 27.8713 31.2911 27.9091C31.2587 27.9469 31.2253 27.9838 31.191 28.02C31.1567 28.0562 31.1215 28.0915 31.0853 28.1261C31.0492 28.1606 31.0122 28.1943 30.9743 28.2271C30.9364 28.2598 30.8977 28.2917 30.8582 28.3227C30.8187 28.3537 30.7785 28.3837 30.7374 28.4128C30.6963 28.4419 30.6546 28.47 30.6121 28.4971C30.5696 28.5243 30.5264 28.5504 30.4826 28.5755C30.4387 28.6006 30.3943 28.6247 30.3492 28.6477C30.3041 28.6707 30.2585 28.6926 30.2123 28.7135C30.1661 28.7344 30.1194 28.7542 30.0722 28.7729C30.0249 28.7916 29.9773 28.8091 29.9292 28.8256C29.881 28.842 29.8325 28.8573 29.7836 28.8715C29.7347 28.8857 29.6855 28.8987 29.6359 28.9106C29.5863 28.9224 29.5365 28.9331 29.4863 28.9427C29.4362 28.9522 29.3859 28.9605 29.3353 28.9677C29.2848 28.9749 29.2341 28.9808 29.1832 28.9856C29.1323 28.9904 29.0814 28.994 29.0303 28.9964C28.9793 28.9988 28.9282 29 28.8771 29C28.826 29 28.7749 28.9988 28.7239 28.9964C28.6728 28.994 28.6218 28.9904 28.571 28.9856C28.5201 28.9808 28.4694 28.9749 28.4189 28.9677C28.3683 28.9605 28.318 28.9522 28.2678 28.9427C28.2177 28.9331 28.1678 28.9224 28.1183 28.9106C28.0687 28.8987 28.0195 28.8857 27.9705 28.8715C27.9216 28.8573 27.8731 28.842 27.825 28.8256C27.7769 28.8091 27.7292 28.7916 27.682 28.7729C27.6348 28.7542 27.5881 28.7344 27.5419 28.7135C27.4957 28.6926 27.45 28.6707 27.405 28.6477C27.3599 28.6247 27.3154 28.6006 27.2716 28.5755C27.2277 28.5504 27.1846 28.5243 27.1421 28.4971C27.0996 28.47 27.0578 28.4419 27.0168 28.4128C26.9757 28.3837 26.9354 28.3537 26.8959 28.3227C26.8564 28.2917 26.8177 28.2598 26.7799 28.2271C26.742 28.1943 26.705 28.1606 26.6688 28.1261C26.6327 28.0915 26.5975 28.0562 26.5632 28.02C26.5288 27.9838 26.4955 27.9469 26.463 27.9091C26.4306 27.8713 26.3992 27.8329 26.3687 27.7936C26.3383 27.7544 26.3089 27.7145 26.2805 27.6739C26.2521 27.6333 26.2247 27.5921 26.1985 27.5502C26.1722 27.5083 26.147 27.4658 26.1229 27.4228C26.0988 27.3797 26.0758 27.3361 26.054 27.2919C26.0321 27.2478 26.0114 27.2032 25.9919 27.1581C25.9723 27.1129 25.9539 27.0674 25.9367 27.0214C25.9195 26.9754 25.9035 26.9291 25.8886 26.8824C25.8738 26.8356 25.8602 26.7886 25.8478 26.7412C25.8353 26.6938 25.8241 26.6462 25.8142 26.5983C25.8042 26.5504 25.7955 26.5023 25.788 26.454C25.7805 26.4057 25.7742 26.3573 25.7692 26.3087C25.7642 26.2601 25.7604 26.2114 25.7579 26.1626C25.7554 26.1138 25.7542 26.065 25.7542 26.0162C25.7542 25.9674 25.7554 25.9186 25.7579 25.8698C25.7604 25.821 25.7642 25.7723 25.7692 25.7237C25.7742 25.6751 25.7805 25.6267 25.788 25.5784C25.7955 25.5301 25.8042 25.482 25.8142 25.4341C25.8241 25.3862 25.8353 25.3386 25.8478 25.2912C25.8602 25.2438 25.8738 25.1968 25.8886 25.15C25.9035 25.1033 25.9195 25.057 25.9367 25.011C25.9539 24.965 25.9723 24.9195 25.9919 24.8744C26.0114 24.8292 26.0321 24.7846 26.054 24.7405C26.0758 24.6963 26.0988 24.6527 26.1229 24.6096C26.147 24.5666 26.1722 24.5241 26.1985 24.4822C26.2247 24.4403 26.2521 24.3991 26.2805 24.3585C26.3089 24.3179 26.3383 24.278 26.3687 24.2388C26.3992 24.1995 26.4306 24.161 26.463 24.1233C26.4955 24.0855 26.5288 24.0486 26.5632 24.0124C26.5975 23.9762 26.6327 23.9409 26.6688 23.9063C26.705 23.8718 26.742 23.8381 26.7799 23.8054C26.8177 23.7726 26.8564 23.7407 26.8959 23.7097C26.9354 23.6787 26.9757 23.6487 27.0168 23.6196C27.0578 23.5905 27.0996 23.5624 27.1421 23.5353C27.1846 23.5081 27.2277 23.482 27.2716 23.4569C27.3154 23.4318 27.3599 23.4078 27.405 23.3847C27.45 23.3617 27.4957 23.3398 27.5419 23.3189C27.5881 23.298 27.6348 23.2782 27.682 23.2595C27.7292 23.2408 27.7769 23.2233 27.825 23.2068C27.8731 23.1904 27.9216 23.1751 27.9705 23.1609C28.0195 23.1467 28.0687 23.1337 28.1183 23.1218C28.1678 23.11 28.2177 23.0993 28.2678 23.0897C28.318 23.0802 28.3683 23.0719 28.4189 23.0647C28.4694 23.0575 28.5201 23.0515 28.571 23.0468C28.6218 23.042 28.6728 23.0384 28.7239 23.036C28.7749 23.0336 28.826 23.0324 28.8771 23.0324ZM30.6616 24.9723C30.6579 24.9688 30.6541 24.9654 30.6503 24.962C30.6464 24.9587 30.6425 24.9555 30.6385 24.9523C30.6345 24.9492 30.6304 24.9461 30.6262 24.9432C30.622 24.9402 30.6178 24.9374 30.6135 24.9346C30.6092 24.9319 30.6048 24.9292 30.6003 24.9267C30.5959 24.9241 30.5914 24.9217 30.5868 24.9194C30.5822 24.917 30.5776 24.9148 30.5729 24.9127C30.5682 24.9106 30.5634 24.9086 30.5586 24.9067C30.5538 24.9048 30.549 24.903 30.5441 24.9013C30.5392 24.8996 30.5343 24.8981 30.5294 24.8967C30.5244 24.8952 30.5194 24.8939 30.5144 24.8927C30.5093 24.8915 30.5042 24.8904 30.4992 24.8894C30.4941 24.8885 30.489 24.8876 30.4838 24.8869C30.4787 24.8862 30.4735 24.8856 30.4684 24.8851C30.4632 24.8846 30.458 24.8842 30.4529 24.884C30.4477 24.8837 30.4425 24.8836 30.4373 24.8836C30.4321 24.8836 30.4269 24.8837 30.4217 24.884C30.4166 24.8842 30.4114 24.8846 30.4062 24.8851C30.4011 24.8856 30.3959 24.8862 30.3908 24.8869C30.3856 24.8876 30.3805 24.8885 30.3754 24.8894C30.3703 24.8904 30.3653 24.8915 30.3603 24.8927C30.3552 24.8939 30.3502 24.8952 30.3453 24.8967C30.3403 24.8981 30.3354 24.8996 30.3305 24.9013C30.3256 24.903 30.3207 24.9048 30.3159 24.9067C30.3111 24.9086 30.3064 24.9106 30.3017 24.9127C30.297 24.9148 30.2924 24.917 30.2878 24.9194C30.2832 24.9217 30.2787 24.9241 30.2743 24.9267C30.2698 24.9292 30.2654 24.9319 30.2611 24.9346C30.2568 24.9374 30.2526 24.9402 30.2484 24.9432C30.2442 24.9462 30.2401 24.9492 30.2361 24.9523C30.2321 24.9555 30.2282 24.9587 30.2243 24.962C30.2205 24.9654 30.2167 24.9688 30.2131 24.9723L28.4504 26.6564L27.6925 25.9324C27.6889 25.9286 27.6852 25.9249 27.6814 25.9213C27.6776 25.9177 27.6738 25.9142 27.6698 25.9108C27.6658 25.9074 27.6617 25.904 27.6576 25.9008C27.6534 25.8976 27.6491 25.8945 27.6448 25.8915C27.6405 25.8885 27.6361 25.8856 27.6316 25.8828C27.6271 25.88 27.6226 25.8773 27.618 25.8747C27.6134 25.8722 27.6087 25.8697 27.6039 25.8673C27.5992 25.865 27.5944 25.8627 27.5895 25.8606C27.5846 25.8585 27.5797 25.8565 27.5747 25.8546C27.5698 25.8527 27.5648 25.851 27.5597 25.8493C27.5546 25.8477 27.5495 25.8462 27.5444 25.8448C27.5392 25.8434 27.534 25.8421 27.5288 25.841C27.5236 25.8398 27.5184 25.8388 27.5131 25.8379C27.5078 25.8371 27.5025 25.8363 27.4972 25.8357C27.4919 25.835 27.4866 25.8345 27.4813 25.8341C27.4759 25.8338 27.4706 25.8335 27.4653 25.8334C27.4599 25.8333 27.4545 25.8333 27.4492 25.8334C27.4439 25.8336 27.4385 25.8339 27.4332 25.8343C27.4278 25.8347 27.4225 25.8352 27.4172 25.8358C27.4119 25.8365 27.4066 25.8373 27.4014 25.8382C27.3961 25.8391 27.3909 25.8401 27.3857 25.8413C27.3805 25.8425 27.3753 25.8438 27.3701 25.8452C27.365 25.8466 27.3599 25.8481 27.3548 25.8498C27.3498 25.8514 27.3448 25.8532 27.3398 25.8551C27.3348 25.857 27.3299 25.859 27.3251 25.8612C27.3202 25.8633 27.3154 25.8656 27.3107 25.8679C27.3059 25.8703 27.3013 25.8728 27.2967 25.8754C27.2921 25.878 27.2875 25.8807 27.2831 25.8835C27.2786 25.8863 27.2742 25.8892 27.2699 25.8923C27.2656 25.8953 27.2613 25.8984 27.2572 25.9017C27.2531 25.9049 27.249 25.9082 27.245 25.9117C27.2411 25.9151 27.2372 25.9186 27.2334 25.9222C27.2296 25.9258 27.226 25.9296 27.2224 25.9334C27.2188 25.9371 27.2153 25.941 27.2119 25.945C27.2085 25.9489 27.2053 25.953 27.2021 25.9571C27.1989 25.9612 27.1959 25.9654 27.193 25.9697C27.19 25.9739 27.1872 25.9783 27.1845 25.9827C27.1817 25.9871 27.1791 25.9916 27.1767 25.9961C27.1742 26.0006 27.1718 26.0052 27.1696 26.0098C27.1674 26.0145 27.1653 26.0192 27.1633 26.0239C27.1613 26.0287 27.1594 26.0335 27.1577 26.0383C27.156 26.0431 27.1543 26.048 27.1529 26.0529C27.1514 26.0578 27.1501 26.0628 27.1488 26.0678C27.1476 26.0727 27.1465 26.0777 27.1456 26.0828C27.1446 26.0878 27.1438 26.0928 27.1432 26.0979C27.1425 26.103 27.1419 26.1081 27.1415 26.1132C27.1411 26.1183 27.1408 26.1234 27.1407 26.1285C27.1405 26.1336 27.1405 26.1387 27.1407 26.1438C27.1408 26.1489 27.1411 26.154 27.1414 26.1591C27.1418 26.1642 27.1424 26.1693 27.143 26.1744C27.1437 26.1794 27.1445 26.1845 27.1455 26.1895C27.1464 26.1945 27.1474 26.1996 27.1486 26.2045C27.1498 26.2095 27.1512 26.2145 27.1526 26.2194C27.1541 26.2243 27.1557 26.2292 27.1574 26.234C27.1591 26.2389 27.161 26.2437 27.163 26.2484C27.1649 26.2531 27.167 26.2579 27.1692 26.2625C27.1715 26.2672 27.1738 26.2717 27.1763 26.2763C27.1787 26.2808 27.1813 26.2853 27.184 26.2897C27.1867 26.2941 27.1895 26.2985 27.1925 26.3027C27.1954 26.307 27.1985 26.3112 27.2016 26.3153C27.2048 26.3195 27.208 26.3235 27.2114 26.3275C27.2148 26.3314 27.2182 26.3353 27.2218 26.3392C27.2254 26.343 27.229 26.3467 27.2328 26.3503C27.2366 26.3539 27.2404 26.3574 27.2444 26.3609L28.2259 27.2987C28.2296 27.3022 28.2333 27.3056 28.2372 27.309C28.241 27.3123 28.2449 27.3156 28.2489 27.3187C28.2529 27.3219 28.257 27.3249 28.2612 27.3279C28.2654 27.3309 28.2696 27.3337 28.2739 27.3365C28.2782 27.3393 28.2826 27.3419 28.2871 27.3445C28.2915 27.347 28.296 27.3495 28.3006 27.3519C28.3052 27.3542 28.3098 27.3564 28.3145 27.3586C28.3192 27.3607 28.3239 27.3627 28.3287 27.3646C28.3335 27.3665 28.3384 27.3683 28.3433 27.37C28.3482 27.3717 28.3531 27.3732 28.358 27.3747C28.363 27.3761 28.368 27.3775 28.3731 27.3787C28.3781 27.3799 28.3832 27.381 28.3883 27.3819C28.3934 27.3829 28.3985 27.3838 28.4036 27.3845C28.4087 27.3852 28.4139 27.3858 28.4191 27.3863C28.4242 27.3868 28.4294 27.3872 28.4346 27.3874C28.4398 27.3877 28.445 27.3878 28.4502 27.3878C28.4554 27.3878 28.4606 27.3877 28.4658 27.3874C28.4709 27.3872 28.4761 27.3868 28.4813 27.3863C28.4865 27.3858 28.4916 27.3852 28.4967 27.3845C28.5019 27.3838 28.507 27.3829 28.5121 27.3819C28.5172 27.381 28.5223 27.3799 28.5273 27.3787C28.5323 27.3775 28.5373 27.3761 28.5423 27.3747C28.5473 27.3732 28.5522 27.3717 28.5571 27.37C28.562 27.3683 28.5668 27.3665 28.5716 27.3646C28.5764 27.3627 28.5812 27.3607 28.5859 27.3586C28.5905 27.3564 28.5952 27.3542 28.5998 27.3519C28.6043 27.3495 28.6088 27.347 28.6133 27.3445C28.6177 27.3419 28.6221 27.3393 28.6264 27.3365C28.6308 27.3337 28.635 27.3309 28.6392 27.3279C28.6433 27.3249 28.6474 27.3219 28.6514 27.3187C28.6554 27.3156 28.6593 27.3123 28.6632 27.309C28.667 27.3056 28.6708 27.3022 28.6744 27.2987L30.6616 25.4001C30.6652 25.3966 30.6688 25.393 30.6723 25.3893C30.6757 25.3856 30.6791 25.3819 30.6824 25.3781C30.6857 25.3742 30.6889 25.3703 30.6919 25.3663C30.695 25.3623 30.698 25.3583 30.7009 25.3542C30.7037 25.35 30.7065 25.3459 30.7092 25.3416C30.7118 25.3374 30.7144 25.333 30.7168 25.3287C30.7193 25.3243 30.7216 25.3199 30.7238 25.3154C30.726 25.3109 30.7281 25.3064 30.7301 25.3018C30.7321 25.2972 30.7339 25.2926 30.7357 25.288C30.7374 25.2833 30.7391 25.2786 30.7406 25.2739C30.742 25.2691 30.7434 25.2643 30.7447 25.2595C30.746 25.2547 30.7471 25.2499 30.7481 25.245C30.7491 25.2402 30.75 25.2353 30.7507 25.2304C30.7515 25.2255 30.7521 25.2206 30.7526 25.2157C30.7532 25.2107 30.7535 25.2058 30.7538 25.2008C30.754 25.1959 30.7542 25.191 30.7542 25.186C30.7542 25.181 30.754 25.1761 30.7538 25.1711C30.7535 25.1662 30.7532 25.1613 30.7526 25.1563C30.7521 25.1514 30.7515 25.1465 30.7507 25.1416C30.75 25.1367 30.7491 25.1318 30.7481 25.127C30.7471 25.1221 30.7459 25.1173 30.7447 25.1125C30.7434 25.1077 30.742 25.1029 30.7406 25.0982C30.7391 25.0934 30.7374 25.0887 30.7357 25.084C30.7339 25.0794 30.7321 25.0747 30.7301 25.0702C30.7281 25.0656 30.726 25.0611 30.7238 25.0566C30.7216 25.0521 30.7193 25.0477 30.7168 25.0433C30.7144 25.039 30.7118 25.0346 30.7092 25.0304C30.7065 25.0261 30.7037 25.022 30.7009 25.0178C30.698 25.0137 30.695 25.0097 30.6919 25.0057C30.6889 25.0017 30.6857 24.9978 30.6824 24.9939C30.6791 24.9901 30.6757 24.9864 30.6723 24.9827C30.6688 24.979 30.6652 24.9754 30.6616 24.9719L30.6616 24.9723ZM24.8095 22.6572C24.9094 22.6572 24.9908 22.7347 24.9908 22.8304L24.9908 23.7565C24.9908 23.7593 24.9907 23.7621 24.9906 23.765C24.9904 23.7678 24.9902 23.7706 24.9899 23.7735C24.9896 23.7763 24.9893 23.7791 24.9888 23.7819C24.9884 23.7847 24.9879 23.7875 24.9873 23.7903C24.9867 23.7931 24.9861 23.7958 24.9854 23.7986C24.9846 23.8013 24.9839 23.8041 24.983 23.8068C24.9821 23.8095 24.9812 23.8122 24.9802 23.8149C24.9792 23.8175 24.9781 23.8202 24.977 23.8228C24.9759 23.8254 24.9747 23.828 24.9734 23.8306C24.9721 23.8331 24.9708 23.8357 24.9694 23.8382C24.968 23.8407 24.9665 23.8432 24.965 23.8456C24.9635 23.848 24.9619 23.8504 24.9603 23.8528C24.9586 23.8551 24.9569 23.8574 24.9551 23.8597C24.9534 23.862 24.9516 23.8643 24.9497 23.8664C24.9478 23.8686 24.9458 23.8708 24.9439 23.8729C24.9419 23.875 24.9398 23.8771 24.9377 23.8791C24.9356 23.8811 24.9335 23.883 24.9313 23.8849C24.9291 23.8868 24.9268 23.8887 24.9245 23.8905C24.9223 23.8923 24.9199 23.894 24.9176 23.8957C24.9152 23.8974 24.9127 23.8991 24.9103 23.9006C24.9078 23.9022 24.9053 23.9037 24.9028 23.9052C24.9002 23.9067 24.8976 23.9081 24.895 23.9094C24.8924 23.9107 24.8898 23.912 24.8871 23.9132C24.8844 23.9145 24.8817 23.9156 24.8789 23.9167C24.8762 23.9178 24.8734 23.9188 24.8706 23.9198C24.8678 23.9207 24.865 23.9216 24.8622 23.9225C24.8593 23.9233 24.8565 23.924 24.8536 23.9247C24.8507 23.9254 24.8478 23.926 24.8449 23.9266C24.842 23.9272 24.8391 23.9277 24.8362 23.9281C24.8332 23.9285 24.8303 23.9289 24.8273 23.9291C24.8244 23.9294 24.8214 23.9296 24.8184 23.9298C24.8155 23.9299 24.8125 23.93 24.8095 23.93L21.3695 23.93C21.3665 23.93 21.3635 23.9299 21.3605 23.9298C21.3576 23.9296 21.3546 23.9294 21.3516 23.9291C21.3487 23.9289 21.3457 23.9285 21.3428 23.9281C21.3398 23.9277 21.3369 23.9272 21.334 23.9266C21.3311 23.926 21.3282 23.9254 21.3253 23.9247C21.3224 23.924 21.3195 23.9233 21.3167 23.9224C21.3138 23.9216 21.311 23.9207 21.3082 23.9198C21.3054 23.9188 21.3026 23.9178 21.2999 23.9167C21.2971 23.9156 21.2944 23.9144 21.2917 23.9132C21.289 23.912 21.2864 23.9107 21.2837 23.9094C21.2811 23.908 21.2785 23.9066 21.276 23.9052C21.2734 23.9037 21.2709 23.9022 21.2684 23.9006C21.266 23.899 21.2635 23.8974 21.2612 23.8957C21.2588 23.894 21.2564 23.8922 21.2541 23.8904C21.2518 23.8886 21.2496 23.8868 21.2474 23.8849C21.2451 23.8829 21.243 23.881 21.2409 23.879C21.2388 23.877 21.2367 23.8749 21.2347 23.8728C21.2327 23.8707 21.2308 23.8685 21.2289 23.8663C21.227 23.8641 21.2252 23.8619 21.2234 23.8596C21.2216 23.8573 21.2199 23.855 21.2183 23.8526C21.2166 23.8503 21.215 23.8479 21.2135 23.8454C21.2119 23.843 21.2105 23.8405 21.2091 23.838C21.2077 23.8355 21.2063 23.833 21.205 23.8304C21.2038 23.8278 21.2026 23.8252 21.2014 23.8226C21.2003 23.82 21.1992 23.8173 21.1982 23.8147C21.1972 23.812 21.1963 23.8093 21.1954 23.8066C21.1945 23.8038 21.1937 23.8011 21.193 23.7983C21.1923 23.7956 21.1916 23.7928 21.191 23.79C21.1904 23.7872 21.1899 23.7844 21.1895 23.7816C21.189 23.7788 21.1887 23.776 21.1884 23.7732C21.1881 23.7703 21.1878 23.7675 21.1877 23.7646C21.1876 23.7618 21.1875 23.759 21.1875 23.7561L21.1875 22.8304C21.1875 22.8275 21.1876 22.8247 21.1877 22.8219C21.1879 22.819 21.1881 22.8162 21.1885 22.8134C21.1888 22.8106 21.1891 22.8078 21.1896 22.805C21.19 22.8021 21.1906 22.7994 21.1911 22.7966C21.1918 22.7938 21.1924 22.791 21.1932 22.7883C21.1939 22.7855 21.1947 22.7828 21.1956 22.7801C21.1964 22.7774 21.1974 22.7747 21.1984 22.772C21.1994 22.7694 21.2005 22.7667 21.2016 22.7641C21.2028 22.7615 21.204 22.7589 21.2053 22.7564C21.2066 22.7538 21.2079 22.7513 21.2093 22.7488C21.2107 22.7463 21.2122 22.7438 21.2137 22.7414C21.2153 22.7389 21.2169 22.7366 21.2185 22.7342C21.2202 22.7319 21.2219 22.7295 21.2237 22.7273C21.2255 22.725 21.2273 22.7228 21.2292 22.7206C21.2311 22.7184 21.233 22.7162 21.235 22.7141C21.237 22.712 21.2391 22.71 21.2412 22.708C21.2433 22.706 21.2454 22.704 21.2476 22.7022C21.2498 22.7002 21.2521 22.6984 21.2544 22.6966C21.2567 22.6948 21.259 22.6931 21.2614 22.6914C21.2638 22.6897 21.2662 22.6881 21.2687 22.6865C21.2712 22.6849 21.2737 22.6834 21.2762 22.6819C21.2788 22.6805 21.2813 22.6791 21.284 22.6778C21.2866 22.6764 21.2892 22.6751 21.2919 22.6739C21.2946 22.6727 21.2973 22.6716 21.3001 22.6705C21.3028 22.6694 21.3056 22.6684 21.3084 22.6674C21.3112 22.6665 21.314 22.6656 21.3168 22.6647C21.3197 22.6639 21.3225 22.6632 21.3254 22.6625C21.3283 22.6618 21.3312 22.6612 21.3341 22.6606C21.337 22.66 21.3399 22.6595 21.3429 22.6591C21.3458 22.6587 21.3487 22.6584 21.3517 22.6581C21.3546 22.6578 21.3576 22.6576 21.3606 22.6574C21.3635 22.6573 21.3665 22.6572 21.3695 22.6572L24.8095 22.6572Z"   fill="#F0871F" >
</path>
<defs>
<mask id="mask-7SiojUddFvb4de60rnQHC" style="mask-type:alpha" maskUnits="userSpaceOnUse">
<path     fill="#FFA852"  d="M10 -4.65366e-15L38 -4.65366e-15C43.5228 -4.65366e-15 48 4.47715 48 10L48 38C48 43.5228 43.5228 48 38 48L10 48C4.47715 48 -7.99502e-15 43.5228 -6.98049e-15 38L2.32683e-15 10C2.66501e-15 4.47715 4.47715 -5.33001e-15 10 -4.65366e-15Z">
</path>
</mask>
<filter id="filter_1_330" x="-18.09991455078125" y="-15.550048828125" width="48.774993896484375" height="48.7750244140625" filterUnits="userSpaceOnUse" color-interpolation-filters="sRGB">
<feFlood flood-opacity="0" result="feFloodId_1_330"/>
<feBlend mode="normal" in="SourceGraphic" in2="feFloodId_1_330" result="shape"/>
<feGaussianBlur result="gaussian_blur_1_330" stdDeviation="5.5"/>
</filter>
<filter id="filter_1_331" x="15" y="19" width="53.875" height="53.875" filterUnits="userSpaceOnUse" color-interpolation-filters="sRGB">
<feFlood flood-opacity="0" result="feFloodId_1_331"/>
<feBlend mode="normal" in="SourceGraphic" in2="feFloodId_1_331" result="shape"/>
<feGaussianBlur result="gaussian_blur_1_331" stdDeviation="5.5"/>
</filter>
<linearGradient id="linear_fill_5_619_0" x1="25.698259999999998" y1="36" x2="25.698259999999998" y2="9" gradientUnits="userSpaceOnUse">
<stop offset="0" stop-color="#FFA852"  />
<stop offset="1" stop-color="#FFFFFF"  />
</linearGradient>
<filter id="filter_5_619" x="6.600000000000001" y="6.7999999999999545" width="35.800000000000004" height="35.80000000000018" filterUnits="userSpaceOnUse" color-interpolation-filters="sRGB">
<feFlood flood-opacity="0" result="feFloodId_5_619"/>
<feColorMatrix in="SourceAlpha" type="matrix" values="0 0 0 0 0 0 0 0 0 0 0 0 0 0 0 0 0 0 127 0" result="hardAlpha_5_619"/>
<feOffset dx="0" dy="2.2"/>
<feGaussianBlur stdDeviation="2.2"/>
<feComposite in2="hardAlpha_5_619" operator="out"/>
<feColorMatrix type="matrix" values="0 0 0 0 0.9411764705882353 0 0 0 0 0.5294117647058824 0 0 0 0 0.12156862745098039 0 0 0 1 0"/>
<feBlend mode="normal" in2="feFloodId_5_619" result="dropShadow_1_5_619"/>
<feBlend mode="normal" in="SourceGraphic" in2="dropShadow_1_5_619" result="shape_5_619"/>
</filter>
</defs>
</svg>
