<svg xmlns="http://www.w3.org/2000/svg" xmlns:xlink="http://www.w3.org/1999/xlink" width="48" height="48" viewBox="0 0 48 48" fill="none">
<path     fill="#5B93FB"  d="M10 -4.65366e-15L38 -4.65366e-15C43.5228 -4.65366e-15 48 4.47715 48 10L48 38C48 43.5228 43.5228 48 38 48L10 48C4.47715 48 -7.99502e-15 43.5228 -6.98049e-15 38L2.32683e-15 10C2.66501e-15 4.47715 4.47715 -5.33001e-15 10 -4.65366e-15Z">
</path>
<g mask="url(#mask-5_593)">
<g filter="url(#filter_5_594)">
<path d="M19.6751 8.83745C19.6751 16.2312 13.6813 22.225 6.28758 22.225C-1.10613 22.225 -7.09991 16.2312 -7.09991 8.83745C-7.09991 1.44374 -1.10613 -4.55005 6.28758 -4.55005C13.6813 -4.55005 19.6751 1.44374 19.6751 8.83745Z"   fill="#79B6F7" >
</path>
</g>
</g>
<g mask="url(#mask-5_593)">
<g filter="url(#filter_5_595)">
<path d="M54.445 45.0875C54.445 53.8896 47.3095 61.025 38.5075 61.025C29.7055 61.025 22.57 53.8896 22.57 45.0875C22.57 36.2855 29.7055 29.15 38.5075 29.15C47.3095 29.15 54.445 36.2855 54.445 45.0875Z"   fill="#79B6F7" >
</path>
</g>
</g>
<g filter="url(#filter_5_597)">
<path     fill="#CCCCCC"  d="M33.8421 13L14.1579 13C13.5184 13 13 13.8107 13 14.8108L13 32.9192C13 33.9193 13.5184 34.73 14.1579 34.73L33.8421 34.73C34.4816 34.73 35 33.9193 35 32.9192L35 14.8108C35 13.8107 34.4816 13 33.8421 13Z">
</path>
<path     fill="url(#linear_fill_5_597_1)"  d="M33.8421 13L14.1579 13C13.5184 13 13 13.8107 13 14.8108L13 32.9192C13 33.9193 13.5184 34.73 14.1579 34.73L33.8421 34.73C34.4816 34.73 35 33.9193 35 32.9192L35 14.8108C35 13.8107 34.4816 13 33.8421 13Z">
</path>
<path    stroke="url(#linear_border_5_597_0)" stroke-width="1.4666666666666668" stroke-linejoin="round"   d="M33.8421 13L14.1579 13C13.5184 13 13 13.8107 13 14.8108L13 32.9192C13 33.9193 13.5184 34.73 14.1579 34.73L33.8421 34.73C34.4816 34.73 35 33.9193 35 32.9192L35 14.8108C35 13.8107 34.4816 13 33.8421 13Z">
</path>
</g>
<path     fill="#6199FB"  d="M27.9669 30.1858L27.9669 29.0648L26.8214 29.0648L26.8214 30.1866L27.9669 30.1858ZM29.6767 30.1866C29.9572 30.1866 30.1866 29.9571 30.1866 29.6767L30.1866 29.0648L29.0887 29.0648L29.0887 30.1858M22.3004 18.9351L22.3004 22.3004L18.9351 22.3004L18.9351 18.9351L22.3004 18.9351ZM22.9123 17.8134L18.3232 17.8134C18.0428 17.8134 17.8134 18.0428 17.8134 18.3232L17.8134 22.9123C17.8134 23.1927 18.0428 23.4221 18.3232 23.4221L22.9123 23.4221C23.1927 23.4221 23.4221 23.1927 23.4221 22.9123L23.4221 18.3232C23.4222 18.0428 23.1927 17.8134 22.9123 17.8134ZM20.0569 20.6178C20.0569 20.6269 20.0571 20.6361 20.0576 20.6453C20.058 20.6545 20.0587 20.6636 20.0596 20.6727C20.0605 20.6819 20.0616 20.691 20.063 20.7001C20.0643 20.7091 20.0659 20.7182 20.0677 20.7272C20.0695 20.7362 20.0715 20.7451 20.0737 20.7541C20.0759 20.7629 20.0784 20.7718 20.081 20.7806C20.0837 20.7894 20.0866 20.7981 20.0897 20.8067C20.0928 20.8154 20.0961 20.8239 20.0996 20.8324C20.1031 20.8409 20.1068 20.8493 20.1108 20.8576C20.1147 20.8659 20.1188 20.8741 20.1231 20.8822C20.1275 20.8903 20.132 20.8982 20.1367 20.9061C20.1414 20.914 20.1463 20.9217 20.1514 20.9294C20.1565 20.937 20.1618 20.9445 20.1673 20.9519C20.1727 20.9592 20.1784 20.9665 20.1842 20.9736C20.19 20.9807 20.196 20.9876 20.2022 20.9944C20.2084 21.0012 20.2147 21.0079 20.2212 21.0144C20.2277 21.0209 20.2343 21.0272 20.2411 21.0333C20.2479 21.0395 20.2549 21.0455 20.262 21.0513C20.269 21.0572 20.2763 21.0628 20.2837 21.0683C20.291 21.0737 20.2985 21.079 20.3062 21.0841C20.3138 21.0892 20.3216 21.0941 20.3294 21.0988C20.3373 21.1036 20.3453 21.1081 20.3534 21.1124C20.3615 21.1167 20.3697 21.1209 20.378 21.1248C20.3863 21.1287 20.3947 21.1324 20.4031 21.136C20.4116 21.1395 20.4202 21.1428 20.4288 21.1459C20.4375 21.1489 20.4462 21.1518 20.455 21.1545C20.4637 21.1572 20.4726 21.1596 20.4815 21.1618C20.4904 21.1641 20.4994 21.1661 20.5084 21.1679C20.5174 21.1697 20.5264 21.1712 20.5355 21.1726C20.5446 21.1739 20.5537 21.175 20.5628 21.1759C20.5719 21.1768 20.5811 21.1775 20.5902 21.178C20.5994 21.1784 20.6086 21.1786 20.6178 21.1786C20.627 21.1786 20.6361 21.1784 20.6453 21.178C20.6545 21.1775 20.6636 21.1768 20.6727 21.1759C20.6819 21.175 20.691 21.1739 20.7001 21.1726C20.7091 21.1712 20.7182 21.1697 20.7272 21.1679C20.7362 21.1661 20.7451 21.1641 20.7541 21.1618C20.763 21.1596 20.7718 21.1572 20.7806 21.1545C20.7894 21.1518 20.7981 21.1489 20.8067 21.1459C20.8154 21.1428 20.8239 21.1395 20.8324 21.136C20.8409 21.1324 20.8493 21.1287 20.8576 21.1248C20.8659 21.1209 20.8741 21.1167 20.8822 21.1124C20.8903 21.1081 20.8983 21.1036 20.9061 21.0988C20.914 21.0941 20.9217 21.0892 20.9294 21.0841C20.937 21.079 20.9445 21.0737 20.9519 21.0683C20.9592 21.0628 20.9665 21.0572 20.9736 21.0513C20.9807 21.0455 20.9876 21.0395 20.9944 21.0333C21.0012 21.0272 21.0079 21.0209 21.0144 21.0144C21.0209 21.0079 21.0272 21.0012 21.0334 20.9944C21.0395 20.9876 21.0455 20.9807 21.0513 20.9736C21.0572 20.9665 21.0628 20.9592 21.0683 20.9519C21.0737 20.9445 21.079 20.937 21.0841 20.9294C21.0892 20.9217 21.0941 20.914 21.0989 20.9061C21.1036 20.8982 21.1081 20.8903 21.1124 20.8822C21.1167 20.8741 21.1209 20.8659 21.1248 20.8576C21.1287 20.8493 21.1324 20.8409 21.136 20.8324C21.1395 20.8239 21.1428 20.8154 21.1459 20.8067C21.149 20.7981 21.1518 20.7894 21.1545 20.7806C21.1572 20.7718 21.1596 20.7629 21.1618 20.7541C21.1641 20.7451 21.1661 20.7362 21.1679 20.7272C21.1697 20.7182 21.1712 20.7091 21.1726 20.7001C21.1739 20.691 21.1751 20.6819 21.176 20.6727C21.1768 20.6636 21.1775 20.6545 21.178 20.6453C21.1784 20.6361 21.1786 20.6269 21.1786 20.6178C21.1786 20.6086 21.1784 20.5994 21.178 20.5902C21.1775 20.5811 21.1768 20.5719 21.176 20.5628C21.1751 20.5537 21.1739 20.5446 21.1726 20.5355C21.1712 20.5264 21.1697 20.5173 21.1679 20.5083C21.1661 20.4993 21.1641 20.4904 21.1618 20.4815C21.1596 20.4726 21.1572 20.4637 21.1545 20.4549C21.1518 20.4462 21.149 20.4375 21.1459 20.4288C21.1428 20.4202 21.1395 20.4116 21.136 20.4031C21.1324 20.3946 21.1287 20.3863 21.1248 20.378C21.1209 20.3697 21.1167 20.3615 21.1124 20.3534C21.1081 20.3453 21.1036 20.3373 21.0989 20.3294C21.0941 20.3215 21.0892 20.3138 21.0841 20.3062C21.079 20.2985 21.0737 20.291 21.0683 20.2836C21.0628 20.2763 21.0572 20.269 21.0513 20.262C21.0455 20.2549 21.0395 20.2479 21.0334 20.2411C21.0272 20.2343 21.0209 20.2277 21.0144 20.2212C21.0079 20.2147 21.0012 20.2084 20.9944 20.2022C20.9876 20.196 20.9807 20.19 20.9736 20.1842C20.9665 20.1784 20.9592 20.1727 20.9519 20.1673C20.9445 20.1618 20.937 20.1565 20.9294 20.1514C20.9217 20.1463 20.914 20.1414 20.9061 20.1367C20.8983 20.132 20.8903 20.1274 20.8822 20.1231C20.8741 20.1188 20.8659 20.1147 20.8576 20.1107C20.8493 20.1068 20.8409 20.1031 20.8324 20.0996C20.8239 20.0961 20.8154 20.0928 20.8067 20.0897C20.7981 20.0866 20.7894 20.0837 20.7806 20.081C20.7718 20.0784 20.763 20.0759 20.7541 20.0737C20.7451 20.0715 20.7362 20.0695 20.7272 20.0677C20.7182 20.0659 20.7091 20.0643 20.7001 20.063C20.691 20.0616 20.6819 20.0605 20.6727 20.0596C20.6636 20.0587 20.6545 20.058 20.6453 20.0576C20.6361 20.0571 20.627 20.0569 20.6178 20.0569C20.6086 20.0569 20.5994 20.0571 20.5902 20.0576C20.5811 20.058 20.5719 20.0587 20.5628 20.0596C20.5537 20.0605 20.5446 20.0616 20.5355 20.063C20.5264 20.0643 20.5174 20.0659 20.5084 20.0677C20.4994 20.0695 20.4904 20.0715 20.4815 20.0737C20.4726 20.0759 20.4637 20.0784 20.455 20.081C20.4462 20.0837 20.4375 20.0866 20.4288 20.0897C20.4202 20.0928 20.4116 20.0961 20.4031 20.0996C20.3947 20.1031 20.3863 20.1068 20.378 20.1107C20.3697 20.1147 20.3615 20.1188 20.3534 20.1231C20.3453 20.1274 20.3373 20.132 20.3294 20.1367C20.3216 20.1414 20.3138 20.1463 20.3062 20.1514C20.2985 20.1565 20.291 20.1618 20.2837 20.1673C20.2763 20.1727 20.269 20.1784 20.262 20.1842C20.2549 20.19 20.2479 20.196 20.2411 20.2022C20.2343 20.2084 20.2277 20.2147 20.2212 20.2212C20.2147 20.2277 20.2084 20.2343 20.2022 20.2411C20.196 20.2479 20.19 20.2549 20.1842 20.262C20.1784 20.269 20.1727 20.2763 20.1673 20.2836C20.1618 20.291 20.1565 20.2985 20.1514 20.3062C20.1463 20.3138 20.1414 20.3215 20.1367 20.3294C20.132 20.3373 20.1275 20.3453 20.1231 20.3534C20.1188 20.3615 20.1147 20.3697 20.1108 20.378C20.1068 20.3863 20.1031 20.3946 20.0996 20.4031C20.0961 20.4116 20.0928 20.4202 20.0897 20.4288C20.0866 20.4375 20.0837 20.4462 20.081 20.4549C20.0784 20.4637 20.0759 20.4726 20.0737 20.4815C20.0715 20.4904 20.0695 20.4993 20.0677 20.5083C20.0659 20.5173 20.0643 20.5264 20.063 20.5355C20.0616 20.5446 20.0605 20.5537 20.0596 20.5628C20.0587 20.5719 20.058 20.5811 20.0576 20.5902C20.0571 20.5994 20.0569 20.6086 20.0569 20.6178ZM29.0649 18.9351L29.0649 22.3004L25.6996 22.3004L25.6996 18.9351L29.0649 18.9351ZM29.6767 17.8134L25.0877 17.8134C24.8073 17.8134 24.5778 18.0428 24.5778 18.3232L24.5778 22.9123C24.5778 23.1927 24.8073 23.4221 25.0877 23.4221L29.6767 23.4221C29.9572 23.4221 30.1866 23.1927 30.1866 22.9123L30.1866 18.3232C30.1866 18.0428 29.9572 17.8134 29.6767 17.8134ZM26.8214 20.6178C26.8214 20.6269 26.8216 20.6361 26.822 20.6453C26.8225 20.6545 26.8232 20.6636 26.824 20.6727C26.8249 20.6819 26.8261 20.691 26.8274 20.7001C26.8288 20.7091 26.8303 20.7182 26.8321 20.7272C26.8339 20.7362 26.8359 20.7451 26.8382 20.7541C26.8404 20.7629 26.8428 20.7718 26.8455 20.7806C26.8482 20.7894 26.851 20.7981 26.8541 20.8067C26.8572 20.8154 26.8605 20.8239 26.864 20.8324C26.8676 20.8409 26.8713 20.8493 26.8752 20.8576C26.8791 20.8659 26.8833 20.8741 26.8876 20.8822C26.8919 20.8903 26.8964 20.8982 26.9011 20.9061C26.9059 20.914 26.9108 20.9217 26.9159 20.9294C26.921 20.937 26.9263 20.9445 26.9317 20.9519C26.9372 20.9592 26.9428 20.9665 26.9487 20.9736C26.9545 20.9807 26.9605 20.9876 26.9666 20.9944C26.9728 21.0012 26.9791 21.0079 26.9856 21.0144C26.9921 21.0209 26.9988 21.0272 27.0056 21.0333C27.0124 21.0395 27.0193 21.0455 27.0264 21.0513C27.0335 21.0572 27.0408 21.0628 27.0481 21.0683C27.0555 21.0737 27.063 21.079 27.0706 21.0841C27.0783 21.0892 27.086 21.0941 27.0939 21.0988C27.1017 21.1036 27.1097 21.1081 27.1178 21.1124C27.1259 21.1167 27.1341 21.1209 27.1424 21.1248C27.1507 21.1287 27.1591 21.1324 27.1676 21.136C27.1761 21.1395 27.1846 21.1428 27.1933 21.1459C27.2019 21.1489 27.2106 21.1518 27.2194 21.1545C27.2282 21.1572 27.237 21.1596 27.2459 21.1618C27.2549 21.1641 27.2638 21.1661 27.2728 21.1679C27.2818 21.1697 27.2909 21.1712 27.2999 21.1726C27.309 21.1739 27.3181 21.175 27.3273 21.1759C27.3364 21.1768 27.3455 21.1775 27.3547 21.178C27.3639 21.1784 27.3731 21.1786 27.3822 21.1786C27.3914 21.1786 27.4006 21.1784 27.4098 21.178C27.4189 21.1775 27.4281 21.1768 27.4372 21.1759C27.4463 21.175 27.4554 21.1739 27.4645 21.1726C27.4736 21.1712 27.4826 21.1697 27.4916 21.1679C27.5006 21.1661 27.5096 21.1641 27.5185 21.1618C27.5274 21.1596 27.5363 21.1572 27.5451 21.1545C27.5538 21.1518 27.5625 21.1489 27.5712 21.1459C27.5798 21.1428 27.5884 21.1395 27.5969 21.136C27.6053 21.1324 27.6137 21.1287 27.622 21.1248C27.6303 21.1209 27.6385 21.1167 27.6466 21.1124C27.6547 21.1081 27.6627 21.1036 27.6706 21.0988C27.6785 21.0941 27.6862 21.0892 27.6938 21.0841C27.7015 21.079 27.709 21.0737 27.7164 21.0683C27.7237 21.0628 27.731 21.0572 27.738 21.0513C27.7451 21.0455 27.7521 21.0395 27.7589 21.0333C27.7657 21.0272 27.7723 21.0209 27.7788 21.0144C27.7853 21.0079 27.7916 21.0012 27.7978 20.9944C27.804 20.9876 27.81 20.9807 27.8158 20.9736C27.8216 20.9665 27.8273 20.9592 27.8327 20.9519C27.8382 20.9445 27.8435 20.937 27.8486 20.9294C27.8537 20.9217 27.8586 20.914 27.8633 20.9061C27.868 20.8982 27.8725 20.8903 27.8769 20.8822C27.8812 20.8741 27.8853 20.8659 27.8892 20.8576C27.8932 20.8493 27.8969 20.8409 27.9004 20.8324C27.9039 20.8239 27.9072 20.8154 27.9103 20.8067C27.9134 20.7981 27.9163 20.7894 27.919 20.7806C27.9216 20.7718 27.9241 20.7629 27.9263 20.7541C27.9285 20.7451 27.9305 20.7362 27.9323 20.7272C27.9341 20.7182 27.9357 20.7091 27.937 20.7001C27.9384 20.691 27.9395 20.6819 27.9404 20.6727C27.9413 20.6636 27.942 20.6545 27.9424 20.6453C27.9429 20.6361 27.9431 20.6269 27.9431 20.6178C27.9431 20.6086 27.9429 20.5994 27.9424 20.5902C27.942 20.5811 27.9413 20.5719 27.9404 20.5628C27.9395 20.5537 27.9384 20.5446 27.937 20.5355C27.9357 20.5264 27.9341 20.5173 27.9323 20.5083C27.9305 20.4993 27.9285 20.4904 27.9263 20.4815C27.9241 20.4726 27.9216 20.4637 27.919 20.4549C27.9163 20.4462 27.9134 20.4375 27.9103 20.4288C27.9072 20.4202 27.9039 20.4116 27.9004 20.4031C27.8969 20.3946 27.8932 20.3863 27.8892 20.378C27.8853 20.3697 27.8812 20.3615 27.8769 20.3534C27.8725 20.3453 27.868 20.3373 27.8633 20.3294C27.8586 20.3215 27.8537 20.3138 27.8486 20.3062C27.8435 20.2985 27.8382 20.291 27.8327 20.2836C27.8273 20.2763 27.8216 20.269 27.8158 20.262C27.81 20.2549 27.804 20.2479 27.7978 20.2411C27.7916 20.2343 27.7853 20.2277 27.7788 20.2212C27.7723 20.2147 27.7657 20.2084 27.7589 20.2022C27.7521 20.196 27.7451 20.19 27.738 20.1842C27.731 20.1784 27.7237 20.1727 27.7164 20.1673C27.709 20.1618 27.7015 20.1565 27.6938 20.1514C27.6862 20.1463 27.6785 20.1414 27.6706 20.1367C27.6627 20.132 27.6547 20.1274 27.6466 20.1231C27.6385 20.1188 27.6303 20.1147 27.622 20.1107C27.6137 20.1068 27.6053 20.1031 27.5969 20.0996C27.5884 20.0961 27.5798 20.0928 27.5712 20.0897C27.5625 20.0866 27.5538 20.0837 27.5451 20.081C27.5363 20.0784 27.5274 20.0759 27.5185 20.0737C27.5096 20.0715 27.5006 20.0695 27.4916 20.0677C27.4826 20.0659 27.4736 20.0643 27.4645 20.063C27.4554 20.0616 27.4463 20.0605 27.4372 20.0596C27.4281 20.0587 27.4189 20.058 27.4098 20.0576C27.4006 20.0571 27.3914 20.0569 27.3822 20.0569C27.3731 20.0569 27.3639 20.0571 27.3547 20.0576C27.3455 20.058 27.3364 20.0587 27.3273 20.0596C27.3181 20.0605 27.309 20.0616 27.2999 20.063C27.2909 20.0643 27.2818 20.0659 27.2728 20.0677C27.2638 20.0695 27.2549 20.0715 27.2459 20.0737C27.237 20.0759 27.2282 20.0784 27.2194 20.081C27.2106 20.0837 27.2019 20.0866 27.1933 20.0897C27.1846 20.0928 27.1761 20.0961 27.1676 20.0996C27.1591 20.1031 27.1507 20.1068 27.1424 20.1107C27.1341 20.1147 27.1259 20.1188 27.1178 20.1231C27.1097 20.1274 27.1017 20.132 27.0939 20.1367C27.086 20.1414 27.0783 20.1463 27.0706 20.1514C27.063 20.1565 27.0555 20.1618 27.0481 20.1673C27.0408 20.1727 27.0335 20.1784 27.0264 20.1842C27.0193 20.19 27.0124 20.196 27.0056 20.2022C26.9988 20.2084 26.9921 20.2147 26.9856 20.2212C26.9791 20.2277 26.9728 20.2343 26.9666 20.2411C26.9605 20.2479 26.9545 20.2549 26.9487 20.262C26.9428 20.269 26.9372 20.2763 26.9317 20.2836C26.9263 20.291 26.921 20.2985 26.9159 20.3062C26.9108 20.3138 26.9059 20.3215 26.9011 20.3294C26.8964 20.3373 26.8919 20.3453 26.8876 20.3534C26.8833 20.3615 26.8791 20.3697 26.8752 20.378C26.8713 20.3863 26.8676 20.3946 26.864 20.4031C26.8605 20.4116 26.8572 20.4202 26.8541 20.4288C26.851 20.4375 26.8482 20.4462 26.8455 20.4549C26.8428 20.4637 26.8404 20.4726 26.8382 20.4815C26.8359 20.4904 26.8339 20.4993 26.8321 20.5083C26.8303 20.5173 26.8288 20.5264 26.8274 20.5355C26.8261 20.5446 26.8249 20.5537 26.824 20.5628C26.8232 20.5719 26.8225 20.5811 26.822 20.5902C26.8216 20.5994 26.8214 20.6086 26.8214 20.6178ZM22.3004 25.6996L22.3004 29.0648L18.9351 29.0648L18.9351 25.6996L22.3004 25.6996ZM22.9123 24.5778L18.3232 24.5778C18.0428 24.5778 17.8134 24.8073 17.8134 25.0877L17.8134 29.6767C17.8134 29.9571 18.0428 30.1866 18.3232 30.1866L22.9123 30.1866C23.1927 30.1866 23.4221 29.9571 23.4221 29.6767L23.4221 25.0877C23.4222 24.8073 23.1927 24.5778 22.9123 24.5778ZM20.0569 27.3822C20.0569 27.3914 20.0571 27.4005 20.0576 27.4097C20.058 27.4189 20.0587 27.428 20.0596 27.4372C20.0605 27.4463 20.0616 27.4554 20.063 27.4645C20.0643 27.4736 20.0659 27.4826 20.0677 27.4916C20.0695 27.5006 20.0715 27.5096 20.0737 27.5185C20.0759 27.5274 20.0784 27.5362 20.081 27.545C20.0837 27.5538 20.0866 27.5625 20.0897 27.5711C20.0928 27.5798 20.0961 27.5883 20.0996 27.5968C20.1031 27.6053 20.1068 27.6137 20.1108 27.622C20.1147 27.6303 20.1188 27.6385 20.1231 27.6466C20.1275 27.6547 20.132 27.6627 20.1367 27.6705C20.1414 27.6784 20.1463 27.6862 20.1514 27.6938C20.1565 27.7014 20.1618 27.7089 20.1673 27.7163C20.1727 27.7237 20.1784 27.7309 20.1842 27.738C20.19 27.7451 20.196 27.752 20.2022 27.7588C20.2084 27.7656 20.2147 27.7723 20.2212 27.7788C20.2277 27.7853 20.2343 27.7916 20.2411 27.7978C20.2479 27.8039 20.2549 27.8099 20.262 27.8157C20.269 27.8216 20.2763 27.8272 20.2837 27.8327C20.291 27.8382 20.2985 27.8434 20.3062 27.8485C20.3138 27.8536 20.3216 27.8585 20.3294 27.8633C20.3373 27.868 20.3453 27.8725 20.3534 27.8768C20.3615 27.8812 20.3697 27.8853 20.378 27.8892C20.3863 27.8931 20.3947 27.8969 20.4031 27.9004C20.4116 27.9039 20.4202 27.9072 20.4288 27.9103C20.4375 27.9134 20.4462 27.9163 20.455 27.9189C20.4637 27.9216 20.4726 27.924 20.4815 27.9263C20.4904 27.9285 20.4994 27.9305 20.5084 27.9323C20.5174 27.9341 20.5264 27.9356 20.5355 27.937C20.5446 27.9383 20.5537 27.9395 20.5628 27.9404C20.5719 27.9413 20.5811 27.9419 20.5902 27.9424C20.5994 27.9428 20.6086 27.9431 20.6178 27.9431C20.627 27.9431 20.6361 27.9428 20.6453 27.9424C20.6545 27.9419 20.6636 27.9413 20.6727 27.9404C20.6819 27.9395 20.691 27.9384 20.7001 27.937C20.7091 27.9356 20.7182 27.9341 20.7272 27.9323C20.7362 27.9305 20.7451 27.9285 20.7541 27.9263C20.763 27.924 20.7718 27.9216 20.7806 27.9189C20.7894 27.9163 20.7981 27.9134 20.8067 27.9103C20.8154 27.9072 20.8239 27.9039 20.8324 27.9004C20.8409 27.8969 20.8493 27.8931 20.8576 27.8892C20.8659 27.8853 20.8741 27.8812 20.8822 27.8768C20.8903 27.8725 20.8983 27.868 20.9061 27.8633C20.914 27.8585 20.9217 27.8536 20.9294 27.8485C20.937 27.8434 20.9445 27.8382 20.9519 27.8327C20.9592 27.8272 20.9665 27.8216 20.9736 27.8157C20.9807 27.8099 20.9876 27.8039 20.9944 27.7978C21.0012 27.7916 21.0079 27.7853 21.0144 27.7788C21.0209 27.7723 21.0272 27.7656 21.0334 27.7588C21.0395 27.752 21.0455 27.7451 21.0513 27.738C21.0572 27.7309 21.0628 27.7237 21.0683 27.7163C21.0737 27.7089 21.079 27.7014 21.0841 27.6938C21.0892 27.6862 21.0941 27.6784 21.0989 27.6705C21.1036 27.6627 21.1081 27.6547 21.1124 27.6466C21.1167 27.6385 21.1209 27.6303 21.1248 27.622C21.1287 27.6137 21.1324 27.6053 21.136 27.5968C21.1395 27.5883 21.1428 27.5798 21.1459 27.5711C21.149 27.5625 21.1518 27.5538 21.1545 27.545C21.1572 27.5362 21.1596 27.5274 21.1618 27.5185C21.1641 27.5096 21.1661 27.5006 21.1679 27.4916C21.1697 27.4826 21.1712 27.4736 21.1726 27.4645C21.1739 27.4554 21.1751 27.4463 21.176 27.4372C21.1768 27.428 21.1775 27.4189 21.178 27.4097C21.1784 27.4005 21.1786 27.3914 21.1786 27.3822C21.1786 27.373 21.1784 27.3638 21.178 27.3547C21.1775 27.3455 21.1768 27.3363 21.176 27.3272C21.1751 27.3181 21.1739 27.309 21.1726 27.2999C21.1712 27.2908 21.1697 27.2818 21.1679 27.2728C21.1661 27.2638 21.1641 27.2548 21.1618 27.2459C21.1596 27.237 21.1572 27.2281 21.1545 27.2194C21.1518 27.2106 21.149 27.2019 21.1459 27.1932C21.1428 27.1846 21.1395 27.176 21.136 27.1676C21.1324 27.1591 21.1287 27.1507 21.1248 27.1424C21.1209 27.1341 21.1167 27.1259 21.1124 27.1178C21.1081 27.1097 21.1036 27.1017 21.0989 27.0938C21.0941 27.086 21.0892 27.0782 21.0841 27.0706C21.079 27.0629 21.0737 27.0554 21.0683 27.0481C21.0628 27.0407 21.0572 27.0335 21.0513 27.0264C21.0455 27.0193 21.0395 27.0123 21.0334 27.0055C21.0272 26.9987 21.0209 26.9921 21.0144 26.9856C21.0079 26.9791 21.0012 26.9728 20.9944 26.9666C20.9876 26.9604 20.9807 26.9544 20.9736 26.9486C20.9665 26.9428 20.9592 26.9372 20.9519 26.9317C20.9445 26.9262 20.937 26.9209 20.9294 26.9158C20.9217 26.9107 20.914 26.9058 20.9061 26.9011C20.8983 26.8964 20.8903 26.8919 20.8822 26.8875C20.8741 26.8832 20.8659 26.8791 20.8576 26.8752C20.8493 26.8712 20.8409 26.8675 20.8324 26.864C20.8239 26.8605 20.8154 26.8572 20.8067 26.8541C20.7981 26.851 20.7894 26.8481 20.7806 26.8455C20.7718 26.8428 20.763 26.8404 20.7541 26.8381C20.7451 26.8359 20.7362 26.8339 20.7272 26.8321C20.7182 26.8303 20.7091 26.8287 20.7001 26.8274C20.691 26.826 20.6819 26.8249 20.6727 26.824C20.6636 26.8231 20.6545 26.8224 20.6453 26.822C20.6361 26.8215 20.627 26.8213 20.6178 26.8213C20.6086 26.8213 20.5994 26.8215 20.5902 26.822C20.5811 26.8224 20.5719 26.8231 20.5628 26.824C20.5537 26.8249 20.5446 26.826 20.5355 26.8274C20.5264 26.8287 20.5174 26.8303 20.5084 26.8321C20.4994 26.8339 20.4904 26.8359 20.4815 26.8381C20.4726 26.8404 20.4637 26.8428 20.455 26.8455C20.4462 26.8481 20.4375 26.851 20.4288 26.8541C20.4202 26.8572 20.4116 26.8605 20.4031 26.864C20.3947 26.8675 20.3863 26.8712 20.378 26.8752C20.3697 26.8791 20.3615 26.8832 20.3534 26.8875C20.3453 26.8919 20.3373 26.8964 20.3294 26.9011C20.3216 26.9058 20.3138 26.9107 20.3062 26.9158C20.2985 26.9209 20.291 26.9262 20.2837 26.9317C20.2763 26.9372 20.269 26.9428 20.262 26.9486C20.2549 26.9544 20.2479 26.9604 20.2411 26.9666C20.2343 26.9728 20.2277 26.9791 20.2212 26.9856C20.2147 26.9921 20.2084 26.9987 20.2022 27.0055C20.196 27.0123 20.19 27.0193 20.1842 27.0264C20.1784 27.0335 20.1727 27.0407 20.1673 27.0481C20.1618 27.0554 20.1565 27.0629 20.1514 27.0706C20.1463 27.0782 20.1414 27.086 20.1367 27.0938C20.132 27.1017 20.1275 27.1097 20.1231 27.1178C20.1188 27.1259 20.1147 27.1341 20.1108 27.1424C20.1068 27.1507 20.1031 27.1591 20.0996 27.1676C20.0961 27.176 20.0928 27.1846 20.0897 27.1932C20.0866 27.2019 20.0837 27.2106 20.081 27.2194C20.0784 27.2281 20.0759 27.237 20.0737 27.2459C20.0715 27.2548 20.0695 27.2638 20.0677 27.2728C20.0659 27.2818 20.0643 27.2908 20.063 27.2999C20.0616 27.309 20.0605 27.3181 20.0596 27.3272C20.0587 27.3363 20.058 27.3455 20.0576 27.3547C20.0571 27.3638 20.0569 27.373 20.0569 27.3822ZM29.6767 24.5778L29.0513 24.5778L29.0513 26.8213L27.9296 26.8213L27.9296 24.5778L25.0877 24.5778C24.8073 24.5778 24.5778 24.8073 24.5778 25.0877L24.5778 29.6767C24.5778 29.9571 24.8073 30.1866 25.0877 30.1866L25.6996 30.1866L25.6996 29.0648L25.6996 27.9431L25.6996 26.8213L26.8214 26.8213L26.8214 27.9431L30.1866 27.9431L30.1866 25.0877C30.1866 24.8073 29.9572 24.5778 29.6767 24.5778Z">
</path>
<defs>
<mask id="mask-5_593" style="mask-type:alpha" maskUnits="userSpaceOnUse">
<path     fill="#5B93FB"  d="M10 -4.65366e-15L38 -4.65366e-15C43.5228 -4.65366e-15 48 4.47715 48 10L48 38C48 43.5228 43.5228 48 38 48L10 48C4.47715 48 -7.99502e-15 43.5228 -6.98049e-15 38L2.32683e-15 10C2.66501e-15 4.47715 4.47715 -5.33001e-15 10 -4.65366e-15Z">
</path>
</mask>
<filter id="filter_5_594" x="-18.09991455078125" y="-15.550048828125" width="48.774993896484375" height="48.7750244140625" filterUnits="userSpaceOnUse" color-interpolation-filters="sRGB">
<feFlood flood-opacity="0" result="feFloodId_5_594"/>
<feBlend mode="normal" in="SourceGraphic" in2="feFloodId_5_594" result="shape"/>
<feGaussianBlur result="gaussian_blur_5_594" stdDeviation="5.5"/>
</filter>
<filter id="filter_5_595" x="11.57000732421875" y="18.1500244140625" width="53.875" height="53.875" filterUnits="userSpaceOnUse" color-interpolation-filters="sRGB">
<feFlood flood-opacity="0" result="feFloodId_5_595"/>
<feBlend mode="normal" in="SourceGraphic" in2="feFloodId_5_595" result="shape"/>
<feGaussianBlur result="gaussian_blur_5_595" stdDeviation="5.5"/>
</filter>
<linearGradient id="linear_fill_5_597_1" x1="25.063919067382812" y1="21.5650634765625" x2="25.063919067382812" y2="34.72998046875" gradientUnits="userSpaceOnUse">
<stop offset="0" stop-color="#FFFFFF"  />
<stop offset="1" stop-color="#8FB3FF"  />
</linearGradient>
<linearGradient id="linear_border_5_597_0" x1="23.607078552246094" y1="20.242431640625" x2="23.607078552246094" y2="34.72998046875" gradientUnits="userSpaceOnUse">
<stop offset="0" stop-color="#FFFFFF"  />
<stop offset="1" stop-color="#8CB3FF"  />
</linearGradient>
<filter id="filter_5_597" x="7.866666412353517" y="10.066723632812455" width="32.26667098999024" height="31.996655273437682" filterUnits="userSpaceOnUse" color-interpolation-filters="sRGB">
<feFlood flood-opacity="0" result="feFloodId_5_597"/>
<feColorMatrix in="SourceAlpha" type="matrix" values="0 0 0 0 0 0 0 0 0 0 0 0 0 0 0 0 0 0 127 0" result="hardAlpha_5_597"/>
<feOffset dx="0" dy="2.2"/>
<feGaussianBlur stdDeviation="2.2"/>
<feComposite in2="hardAlpha_5_597" operator="out"/>
<feColorMatrix type="matrix" values="0 0 0 0 0 0 0 0 0 0.23137254901960785 0 0 0 0 0.6901960784313725 0 0 0 0.25 0"/>
<feBlend mode="normal" in2="feFloodId_5_597" result="dropShadow_1_5_597"/>
<feBlend mode="normal" in="SourceGraphic" in2="dropShadow_1_5_597" result="shape_5_597"/>
</filter>
</defs>
</svg>
