<svg xmlns="http://www.w3.org/2000/svg" xmlns:xlink="http://www.w3.org/1999/xlink" width="48" height="48" viewBox="0 0 48 48" fill="none">
<rect  x="0" y="0" width="48" height="48" rx="12"    fill="#B0FFE9" >
</rect>
<path d="M35.1422 16L14.8578 16C14.3841 16 14 16.3773 14 16.8428L14 31.1572C14 31.6227 14.3841 32 14.8578 32L35.1422 32C35.6159 32 36 31.6227 36 31.1572L36 16.8428C36 16.3773 35.6159 16 35.1422 16ZM25.7697 20.532L33.9211 20.532L33.9211 22.0887L25.7697 22.0887L25.7697 20.532ZM25.7697 23.5593L33.9211 23.5593L33.9211 25.116L25.7697 25.116L25.7697 23.5593ZM20.6659 18.2199C22.9226 18.2199 22.9262 19.9162 22.9262 20.8708C22.9262 21.8246 22.0225 23.5968 20.6659 23.599C19.3107 23.6011 18.4056 21.8246 18.4056 20.8708C18.4056 19.9168 18.4098 18.2199 20.6659 18.2199ZM16.8465 24.9929C17.4282 24.5508 19.101 23.8121 19.101 23.8121L20.1572 25.7859L20.3503 25.3071L20.052 24.7174L20.6473 24.1269L21.2425 24.7174L20.9449 25.3071L21.1059 25.7746L22.1928 23.8121C22.1928 23.8121 22.7257 24.0481 23.2932 24.3322L23.2939 24.3322L23.2939 26.7855L16.01 26.7855C16.01 26.7856 16.2663 25.4381 16.8465 24.9929ZM33.99 30.0034L16.01 30.0034L16.01 28.4466L33.99 28.4466L33.99 30.0034Z"   fill="#35BD96" >
</path>
</svg>
