<svg xmlns="http://www.w3.org/2000/svg" xmlns:xlink="http://www.w3.org/1999/xlink" width="176.97776412963867" height="124.22607421875" viewBox="0 0 176.97776412963867 124.22607421875" fill="none">
<g >
<g filter="url(#filter_15_692)">
<path     fill="#FFFFFF"  d="M57.2149 96.7404L57.4767 94.2097L46.7732 94.5835L47.0879 91.5607L58.8058 91.1515L62.5672 89.5492L49.9748 89.989L50.2859 86.8612L73.5117 86.0501L73.132 89.2153L68.5648 90.8107L74.966 90.5872L74.6513 93.61L64.6124 93.9605L64.2712 97.2294Q64.1932 98.0026 63.4589 98.5361Q62.7245 99.0695 61.7101 99.105L54.3296 99.3627L57.2149 96.7404ZM74.2407 78.8453L73.5849 85.137L49.5895 85.975L50.2453 79.6832L74.2407 78.8453ZM59.2791 75.6205L59.3055 75.3744L58.106 74.1205L66.6058 73.8237L66.4497 75.3701L76.4536 75.0208L76.1629 77.7275L48.9495 78.6779L49.2402 75.9711L59.2791 75.6205ZM67.2093 83.0833L67.3956 81.3958L56.6221 81.772L56.4359 83.4595L67.2093 83.0833ZM107.376 76.9878L106.197 79.3403L109.136 79.2377L108.447 85.6006L105.789 85.6935L105.369 89.7006L98.6214 93.0531L107.918 97.5264L98.1242 97.8684L93.4589 95.6498L88.2952 98.2116L78.5361 98.5524L88.8286 93.4301L82.7723 90.4897L82.9358 89.1531L90.0014 88.9064L93.9911 90.8333L99.6023 88.0458L99.6551 87.5537L83.0402 88.1339L83.1927 86.4825L80.5343 86.5754L81.2227 80.2125L84.1259 80.1111L83.4507 77.8233L89.432 77.6144L90.1073 79.9022L92.1011 79.8326L91.4258 77.5448L97.4072 77.3359L98.0824 79.6237L100.216 79.5492L101.395 77.1966L107.376 76.9878ZM108.833 75.5711L82.202 77.1664L82.5407 73.8276L109.206 72.231L108.833 75.5711ZM87.3315 84.657L101.953 84.1464L102.116 82.8099L87.495 83.3205L87.3315 84.657ZM140.851 71.8264L140.478 75.1664L130.859 75.5023L128.048 80.2583L141.34 79.7942L140.966 83.1342L134.32 83.3663L133.374 92.3648L139.355 92.156L140.848 90.773L140.262 96.0817L126.306 96.569L127.674 83.5984L126.065 83.6546L118.331 96.8475L111.02 97.1028L118.755 83.9099L113.053 84.109L113.427 80.7689L120.772 80.5124L123.548 75.7576L115.223 76.0483L115.597 72.7083L140.851 71.8264ZM166.294 70.3075L164.74 75.9652L172.925 75.6793L172.587 79.0182L163.842 79.3236L159.406 95.6934L154.019 95.8815L158.665 79.5043L156.951 79.5642L157.29 76.2253L159.633 76.1435L160.912 71.6511L159.858 70.5322L166.294 70.3075ZM148.961 72.3837L148.105 70.9427L153.911 70.7399L151.221 95.9792L146.428 96.1465L148.961 72.3837ZM171.788 95.261L164.967 95.4991Q164.055 95.4609 163.456 94.8515Q162.857 94.242 162.964 93.2927L164.332 80.3221L169.334 80.1474L168.12 91.5017L170.813 91.4076L172.376 90.0223L171.788 95.261ZM143.458 89.316L145.414 76.1147L147.932 76.0268L146.152 89.222L143.458 89.316ZM167.655 75.198L167.061 71.2263L171.853 71.0589L172.447 75.0306L167.655 75.198ZM153.464 83.013L153.949 75.8167L156.467 75.7288L156.123 82.9201L153.464 83.013Z">
</path>
<path fill-rule="evenodd"  fill="url(#linear_border_15_692_0)"  d="M107.116,79.3082l-0.919,0.0321l0.159,-0.3157l0.672,-1.3418l0.19,-0.3793l0.158,-0.3157l-5.981,0.2088l-0.426,0.8491l-0.753,1.5035l-2.1336,0.0745l-0.4075,-1.3806l-0.2677,-0.9072l-5.9814,0.2089l0.0906,0.307l0.2205,0.747l0.2233,0.7565l0.0502,0.1703l0.0907,0.307l-1.9938,0.0696l-0.3497,-1.1848l-0.3256,-1.103l-5.9813,0.2089l0.0906,0.307l0.2783,0.9428l0.2157,0.731l0.0906,0.307l-2.9032,0.1014l-0.4711,4.3541l-0.2173,2.0088l2.6584,-0.0929l-0.0612,0.6626l-0.0913,0.9888l16.6149,-0.5802l-0.0528,0.4921l-3.2714,1.6252l-2.3398,1.1623l-2.0866,-1.0078l-1.9031,-0.9191l-7.0656,0.2467l-0.1185,0.9687l-0.045,0.3679l0.2138,0.1037l1.0744,0.5217l2.4959,1.2118l2.2722,1.1032l-2.2613,1.1254l-3.7066,1.8447l-4.3246,2.1522l9.7591,-0.3408l5.1637,-2.5618l4.6653,2.2186l9.7938,-0.342l-3.878,-1.8658l-3.135,-1.5088l-2.2836,-1.0987l2.2696,-1.1276l4.478,-2.2249l0.42,-4.0071l2.658,-0.0929l0.471,-4.3541l0.218,-2.0088zM107.597,87.6316l-0.239,2.2777c-0.072,0.6808 -0.486,1.2777 -1.1,1.5824l-3.084,1.5325l5.611,2.6999c0.201,0.0968 0.374,0.2153 0.52,0.3501l5.885,-10.0386l-2.067,0.0722c-1.22,0.0426 -2.193,-1.0081 -2.058,-2.2212l0.374,-3.3401c0.11,-0.9857 0.927,-1.7418 1.918,-1.7764l6.244,-0.218l0.39,-0.6691l-4.698,0.1641c-1.22,0.0426 -2.193,-1.008 -2.058,-2.2211l0.374,-3.3401c0.11,-0.9858 0.927,-1.7418 1.918,-1.7764l25.255,-0.8819c1.219,-0.0426 2.193,1.008 2.057,2.2211l-0.374,3.3401c-0.11,0.9858 -0.926,1.7418 -1.918,1.7764l-8.524,0.2977l-0.395,0.6692l9.642,-0.3367c0.73,-0.0255 1.371,0.3404 1.74,0.8982l0.425,-2.8719c0.142,-0.9546 0.945,-1.6721 1.909,-1.7057l1.426,-0.0498l0.132,-1.2331l-0.517,-0.8692c-0.776,-1.3065 0.131,-2.967 1.65,-3.02l5.807,-0.2028c1.215,-0.0424 2.187,1.0012 2.058,2.2108l-0.299,2.8059l0.796,-0.0278c0.523,-0.0183 1.003,0.1649 1.369,0.4775l0.343,-0.012l0.569,-1.9993l-0.276,-0.2921c-1.18,-1.2518 -0.333,-3.3106 1.386,-3.3706l6.436,-0.2248c0.732,-0.0256 1.364,0.3386 1.731,0.8851l3.829,-0.1336c1.016,-0.0355 1.897,0.6972 2.047,1.7029l0.527,3.5207c0.396,0.4066 0.62,0.9798 0.557,1.5974l-0.339,3.3388c-0.1,0.9947 -0.92,1.7621 -1.92,1.797l-1.409,0.0492l-0.86,8.0467l0.662,-0.5872c1.371,-1.2154 3.518,-0.1012 3.314,1.7195l-0.587,5.2387c-0.111,0.9855 -0.927,1.7412 -1.918,1.7758l-6.821,0.2382c-0.051,0.0018 -0.102,0.0016 -0.154,-0.0005c-1.13333,-0.04753 -2.08433,-0.46213 -2.853,-1.2438c-0.204,-0.20753 -0.37933,-0.4269 -0.526,-0.6581l-0.168,0.621c-0.23,0.8467 -0.984,1.445 -1.861,1.4756l-5.386,0.1881c-0.555,0.0194 -1.052,-0.1848 -1.42,-0.5222c-0.35,0.3678 -0.838,0.6011 -1.379,0.62l-4.792,0.1673c-1.215,0.0425 -2.187,-1.0011 -2.058,-2.2107l0.497,-4.669l-1.409,0.0492c-0.252,0.0088 -0.493,-0.029 -0.716,-0.1051l-0.562,5.0911c-0.108,0.9872 -0.925,1.745 -1.918,1.7797l-13.956,0.4873c-1.215,0.0425 -2.186,-0.9997 -2.059,-2.2085l0.742,-7.0338l-5.003,8.5335c-0.346,0.5909 -0.971,0.9634 -1.655,0.9873l-7.311,0.2553c-0.579,0.0203 -1.083,-0.1976 -1.449,-0.5487c-0.314,0.5426 -0.881,0.9453 -1.653,0.9722l-9.794,0.3421c-0.3206,0.0111 -0.6391,-0.0549 -0.9287,-0.1926l-3.7879,-1.8013l-4.2934,2.1297c-0.2552,0.127 -0.5344,0.197 -0.819,0.207l-9.7591,0.341c-2.1493,0.075 -2.8862,-2.8309 -0.9609,-3.7891l6.6502,-3.3096l-2.3964,-1.1635c-0.7688,-0.3732 -1.2155,-1.1937 -1.1117,-2.0419l0.1634,-1.3366c0.0148,-0.1208 0.0402,-0.2381 0.0752,-0.3509l-0.4216,0.0148c-1.217,0.0425 -2.1891,-1.0033 -2.0582,-2.2139l0.6884,-6.3629c0.0851,-0.7866 0.6196,-1.4283 1.335,-1.6755c-0.2683,-0.3782 -0.4083,-0.8524 -0.3571,-1.3573l0.3387,-3.3389c0.099,-0.9758 0.8911,-1.7359 1.8702,-1.7945l26.6659,-1.5966c1.238,-0.0742 2.245,0.9857 2.107,2.2188l-0.374,3.34c-0.075,0.6753 -0.483,1.2442 -1.052,1.5458c0.863,0.2873 1.461,1.148 1.356,2.1136l-0.688,6.3629c-0.107,0.989 -0.925,1.749 -1.919,1.7837zM108.833,75.5711l0.148,-1.323l0.225,-2.0171l-2.026,0.1213l-24.6393,1.4753l-0.1342,1.323l-0.105,1.0346l-0.0995,0.9812l2.0225,-0.1211l5.3774,-0.3222l1.5707,-0.0941l7.8516,-0.4703l0.6866,-0.0412l9.0802,-0.544zM125.568,84.5033l0.497,-0.8487l1.609,-0.0562l-0.099,0.9413l-0.064,0.6026l-0.049,0.4647l-0.944,8.9534l-0.212,2.0086l13.956,-0.4873l0.254,-2.297l0.332,-3.0117l-1.493,1.383l-5.981,0.2088l0.211,-2.0086l0.735,-6.9899l6.646,-0.2321l0.149,-1.331l0.225,-2.009l-13.292,0.4641l1.207,-2.0434l1.604,-2.7126l9.619,-0.3359l0.149,-1.331l0.224,-2.009l-25.254,0.8819l-0.149,1.331l-0.225,2.009l8.325,-0.2907l-1.193,2.0429l-1.583,2.7119l-7.345,0.2565l-0.149,1.331l-0.225,2.0091l5.702,-0.1991l-1.198,2.043l-5.339,9.1069l-1.198,2.043l7.311,-0.2553zM136.127,85.3044l-0.524,4.9814l2.938,-0.1026l0.947,-0.8773c0.601,-0.5567 1.365,-0.6511 2.013,-0.4239l0.608,-4.1065c-0.307,0.2139 -0.676,0.3436 -1.073,0.3575zM145.491,89.2451l0.661,-0.0231l1.509,-11.1845l0.271,-2.0107l-2.518,0.0879l-1.658,11.1897l-0.298,2.0116zM146.972,91.0463l-0.329,3.0915l-0.215,2.0087l4.793,-0.1673l1.2,-11.2595l1.159,-10.8689l0.117,-1.1022l0.214,-2.0087l-5.806,0.2028l0.856,1.441l-0.057,0.5323l-0.138,1.292zM154.404,84.9814l-0.378,3.5458l1.013,-3.568zM155.612,82.938l0.511,-0.0179l0.072,-1.5035l0.03,-0.6406l0.146,-3.0427l0.096,-2.0045l-2.518,0.0879l-0.35,5.1903l-0.135,2.006zM158.212,81.101l-0.12,0.4246l-0.87,3.0656l-2.63,9.269l-0.573,2.0213l5.387,-0.1881l2.118,-7.8179l2.318,-8.5519l8.745,-0.3054l0.135,-1.3305l0.069,-0.6865l0.134,-1.3219l-8.185,0.2859l0.555,-2.0206l0.098,-0.3548l0.346,-1.2617l0.555,-2.0206l-6.436,0.2247l1.054,1.1189l-0.243,0.854l-1.036,3.6384l-2.343,0.0818l-0.135,1.3306l-0.15,1.4775l-0.054,0.5308l1.714,-0.0599l-0.064,0.2272zM167.457,73.8691l0.198,1.3289l4.792,-0.1674l-0.198,-1.3289l-0.099,-0.6619l-0.297,-1.9809l-4.792,0.1674l0.298,1.9908l0.074,0.4947zM165.656,80.2758l-1.324,0.0463l-0.104,0.9892l-0.732,6.9332l-0.532,5.0482c-0.07133,0.63287 0.09267,1.15247 0.492,1.5588c0.39933,0.40627 0.903,0.62213 1.511,0.6476l6.821,-0.2381l0.255,-2.2766l0.333,-2.9621l-1.563,1.3853l-2.693,0.0941l0.214,-2.0087l0.785,-7.3369l0.109,-1.0194l0.106,-0.9893zM58.1597,75.6596l-8.9195,0.3115l-0.075,0.698l-0.1547,1.4409l-0.061,0.5679l27.2134,-0.9504l0.075,-0.698l0.2157,-2.0087l-10.0039,0.3493l0.1561,-1.5464l-8.4998,0.2968l1.1631,1.2159l0.0364,0.038l-0.0264,0.2461zM58.0362,72.1217l8.4998,-0.2968c0.957,-0.0334 1.7635,0.6064 1.9999,1.4711l7.8479,-0.274c1.2164,-0.0425 2.1883,1.0022 2.0584,2.2123l-0.2908,2.7068c-0.1062,0.9896 -0.924,1.7505 -1.9187,1.7852l-0.0732,0.0026l-0.5854,5.6155c-0.0145,0.1395 -0.0432,0.2744 -0.0845,0.4035c0.0264,0.1743 0.0301,0.3556 0.0079,0.5405l-0.2777,2.3145c1.0572,0.1332 1.8497,1.093 1.7354,2.1913l-0.3147,3.0229c-0.1033,0.9924 -0.9223,1.7568 -1.9194,1.7916l-8.3001,0.2899l-0.1606,1.5384c-0.11153,1.105 -0.65357,2.01067 -1.6261,2.717c-0.81933,0.59533 -1.7708,0.912 -2.8544,0.95l-7.3805,0.257c-1.8614,0.065 -2.7933,-2.2256 -1.4149,-3.4784l1.7333,-1.5753l-7.8748,0.275c-1.2137,0.0424 -2.1848,-0.9979 -2.059,-2.2059l0.3147,-3.0228c0.1033,-0.9924 0.9223,-1.7569 1.9194,-1.7917l0.9928,-0.0347l0.2084,-2.0953c-0.4359,-0.4105 -0.6869,-1.013 -0.619,-1.6643l0.5479,-5.2563c-0.7704,-0.3374 -1.284,-1.1464 -1.1873,-2.047l0.2907,-2.7068c0.1063,-0.9896 0.9241,-1.7505 1.9188,-1.7852l6.9733,-0.2435c0.1733,-0.8461 0.8815,-1.5718 1.8925,-1.6071zM50.2453,79.6832l-0.0994,0.9541l-0.347,3.3291l-0.1025,0.9833l-0.1069,1.0253l23.9954,-0.838l0.1124,-1.0786l0.3341,-3.2046l0.1099,-1.0544l0.0994,-0.9541l-2.0182,0.0705zM67.3956,81.3958l-0.1863,1.6875l-10.7734,0.3762l0.1862,-1.6875l8.7535,-0.3057zM50.2859,86.8612l-0.1089,1.0945l-0.0025,0.0251l-0.1467,1.476l-0.053,0.5322l12.5924,-0.4398l-3.7614,1.6023l-11.7179,0.4092l-0.1056,1.0143l-0.2091,2.0085l10.7035,-0.3738l-0.2078,2.0085l-0.054,0.5222l-0.5954,0.5411l-2.2899,2.0812l7.3805,-0.2577c0.67627,-0.02367 1.2592,-0.2133 1.7488,-0.5689c0.48953,-0.35567 0.7603,-0.79123 0.8123,-1.3067l0.3412,-3.2689l10.0389,-0.3505l0.1056,-1.0143l0.2091,-2.0085l-6.4012,0.2235l4.5672,-1.5954l0.0681,-0.5677l0.0705,-0.5878l0.1097,-0.9144l0.1314,-1.0953l-2.0228,0.0707zM102.116,82.8099l-0.163,1.3365l-14.6215,0.5106l0.1635,-1.3365l12.598,-0.4399z">
</path>
</g>
</g>
<g >
<g filter="url(#filter_15_704)">
<path     fill="#FFFFFF"  d="M79.5433 116.958Q79.2635 116.968 79.0201 116.876Q78.7768 116.785 78.6006 116.611Q78.4244 116.437 78.3557 116.189Q78.287 115.941 78.3572 115.659L79.3481 105.638L91.4407 105.216L91.3079 107.141L82.873 107.436L82.1746 114.945L89.6501 114.684L90.583 113.891L90.2967 116.582L79.5433 116.958ZM99.8432 109.725L97.8045 109.796L97.6511 110.562L93.8134 110.696L94.2996 107.997L103.694 107.669L102.796 115.185L103.609 116.118L94.5941 116.432Q94.0145 116.453 93.7114 116.083Q93.4083 115.713 93.3881 115.134L93.84 111.456L99.5965 111.255L99.8432 109.725ZM97.3649 113.254L97.2055 114.42L99.1243 114.353L99.2837 113.187L97.3649 113.254ZM109.79 107.457L109.504 110.148L112.109 107.376L115.946 107.242L109.611 113.226L109.325 115.918L105.487 116.052L106.332 108.138L105.912 107.592L109.79 107.457ZM126.794 111.846L120.657 112.06L120.511 113.606L125.888 113.418L126.821 112.625L126.335 115.324L117.9 115.618Q117.32 115.639 117.017 115.269Q116.714 114.899 116.694 114.32L117.405 107.191L127.379 106.842L126.794 111.846ZM121.11 108.982L120.97 110.128L123.269 110.048L123.429 108.901L121.11 108.982ZM131.136 102.669L136.093 102.496L135.82 104.426L134.861 104.46L134.535 106.592L136.074 106.539L135.761 108.471L134.422 108.518L133.69 115.067L129.853 115.201L130.584 108.652L129.045 108.705L129.178 106.779L130.697 106.726L131.136 102.669ZM141.631 106.345L141.344 109.036L143.949 106.264L147.787 106.13L141.452 112.114L141.166 114.806L137.328 114.94L138.172 107.026L137.753 106.48L141.631 106.345ZM158.634 110.734L152.498 110.948L152.352 112.494L157.729 112.306L158.661 111.513L158.175 114.212L149.74 114.507Q149.161 114.527 148.858 114.157Q148.555 113.788 148.534 113.208L149.246 106.079L159.22 105.73L158.634 110.734ZM152.951 107.87L152.811 109.016L155.109 108.936L155.269 107.79L152.951 107.87ZM171.167 110.296L165.03 110.511L164.884 112.057L170.261 111.869L171.194 111.076L170.708 113.774L162.273 114.069Q161.693 114.089 161.39 113.72Q161.087 113.35 161.067 112.77L161.778 105.641L171.752 105.293L171.167 110.296ZM165.483 107.433L165.343 108.578L167.642 108.498L167.802 107.352L165.483 107.433Z">
</path>
<path fill-rule="evenodd"  fill="url(#linear_border_15_704_0)"  d="M138.073,102.775l-0.24,1.701l3.728,-0.13c0.435,-0.015 0.839,0.109 1.172,0.33c0.328,-0.251 0.728,-0.397 1.146,-0.411l3.838,-0.134c0.268,-0.01 0.517,0.03 0.742,0.109c0.222,-0.095 0.464,-0.151 0.717,-0.16l9.974,-0.348c0.491,-0.018 0.941,0.142 1.296,0.418c0.338,-0.303 0.779,-0.491 1.263,-0.508l9.974,-0.348c1.224,-0.043 2.198,1.015 2.056,2.231l-0.586,5.004c-0.003,0.023 -0.006,0.047 -0.009,0.07c0.061,0.257 0.071,0.536 0.018,0.831l-0.486,2.699c-0.167,0.927 -0.958,1.611 -1.898,1.644l-8.435,0.295c-0.98333,0.034 -1.77833,-0.282 -2.385,-0.948c-0.323,0.634 -0.972,1.065 -1.713,1.091l-8.435,0.294c-1.04533,0.03667 -1.87833,-0.32333 -2.499,-1.08c-0.488,-0.59467 -0.74633,-1.31033 -0.775,-2.147c-0.003,-0.09 -0.001,-0.18 0.008,-0.269l0.326,-3.262l-3.507,3.314l-0.208,1.956c-0.106,0.991 -0.924,1.753 -1.919,1.788l-3.838,0.134c-0.817,0.028 -1.523,-0.433 -1.86,-1.106c-0.293,0.708 -0.979,1.205 -1.778,1.233l-3.838,0.134c-0.768,0.027 -1.438,-0.38 -1.795,-0.988c-0.32,0.646 -0.974,1.085 -1.722,1.111l-8.435,0.294c-1.046,0.03667 -1.879,-0.32333 -2.499,-1.08c-0.488,-0.59467 -0.74667,-1.31033 -0.776,-2.147c-0.003,-0.09 0,-0.18 0.009,-0.269l0.325,-3.262l-3.507,3.314l-0.208,1.956c-0.105,0.991 -0.924,1.753 -1.919,1.788l-3.838,0.134c-0.339,0.012 -0.66,-0.061 -0.943,-0.199c-0.269,0.156 -0.584,0.252 -0.936,0.264l-9.0141,0.315c-1.04573,0.03667 -1.87877,-0.32333 -2.4991,-1.08c-0.00473,-0.006 -0.00947,-0.01167 -0.0142,-0.017c-0.2898,0.715 -0.979,1.219 -1.7841,1.247l-10.7534,0.376c-0.45307,0.01533 -0.8855,-0.05433 -1.2973,-0.209c-0.42767,-0.16067 -0.80113,-0.39867 -1.1204,-0.714c-0.37053,-0.366 -0.6262,-0.803 -0.767,-1.311c-0.1242,-0.448 -0.14097,-0.906 -0.0503,-1.374l0.9797,-9.908c0.0986,-0.997 0.9194,-1.767 1.9205,-1.802l12.0926,-0.422c1.1858,-0.042 2.1468,0.952 2.0651,2.136l-0.0601,0.87c0.2579,-0.134 0.5479,-0.214 0.8539,-0.224l9.3942,-0.328c0.412,-0.015 0.796,0.096 1.118,0.295c0.303,-0.22 0.676,-0.358 1.101,-0.373l3.877,-0.135c0.436,-0.015 0.84,0.109 1.173,0.33c0.328,-0.252 0.728,-0.397 1.146,-0.411l3.838,-0.134c0.267,-0.01 0.516,0.03 0.742,0.108c0.221,-0.094 0.463,-0.15 0.717,-0.159l9.974,-0.349c0.325,-0.011 0.633,0.056 0.907,0.182c0.206,-0.113 0.435,-0.191 0.677,-0.225l0.254,-2.346c0.107,-0.989 0.924,-1.749 1.918,-1.784l4.957,-0.173c1.244,-0.044 2.224,1.046 2.05,2.278zM134.063,102.566l-2.927,0.103l-0.431,3.986l-0.008,0.071l-1.519,0.053l-0.117,1.702l-0.016,0.224l1.539,-0.053l-0.008,0.08l-0.009,0.078l-0.207,1.851l-0.283,2.531l-0.224,2.009l3.837,-0.134l0.724,-6.478l0.008,-0.071l1.339,-0.047l0.184,-1.132l0.083,-0.518l0.046,-0.282l-1.539,0.053l0.012,-0.08l0.033,-0.215l0.262,-1.717l0.007,-0.04l0.012,-0.08l0.959,-0.034l0.273,-1.93zM138.172,107.026l-0.154,1.446l-0.476,4.459l-0.214,2.009l3.838,-0.134l0.286,-2.692l4.135,-3.906l1.586,-1.499l0.614,-0.579l-3.838,0.134l-0.337,0.358l-2.268,2.414l0.073,-0.683l0.214,-2.008l-3.878,0.135l0.295,0.383zM127.104,109.191l0.04,-0.339l0.235,-2.01l-9.974,0.349l-0.156,1.572l-0.555,5.557c0.01333,0.386 0.121,0.70233 0.323,0.949c0.202,0.24667 0.49633,0.363 0.883,0.349l8.435,-0.294l0.265,-1.47l0.221,-1.229l-0.835,0.71l-0.098,0.083l-5.377,0.188l0.008,-0.08l0.134,-1.423l0.004,-0.043l6.137,-0.214l0.143,-1.223zM123.269,110.048l-2.299,0.08l0.01,-0.08l0.12,-0.985l0.01,-0.081l2.319,-0.081l-0.011,0.081l-0.138,0.985zM149.79,106.06l-0.544,0.019l-0.157,1.572l-0.555,5.557c0.014,0.38667 0.122,0.703 0.324,0.949c0.202,0.24667 0.496,0.36333 0.882,0.35l8.435,-0.295l0.265,-1.47l0.221,-1.229l-0.834,0.71l-0.098,0.083l-5.377,0.188l0.007,-0.08l0.135,-1.423l0.004,-0.043l6.136,-0.214l0.143,-1.223l0.208,-1.771l0.235,-2.01zM152.941,107.951l0.01,-0.081l2.318,-0.08l-0.011,0.08l-0.137,0.985l-0.012,0.081l-2.298,0.08l0.01,-0.08zM170.207,110.33l0.96,-0.034l0.143,-1.223l0.207,-1.771l0.235,-2.009l-9.974,0.348l-0.711,7.129c0.01333,0.38667 0.121,0.70333 0.323,0.95c0.202,0.246 0.49633,0.36233 0.883,0.349l8.435,-0.295l0.265,-1.47l0.221,-1.228l-0.835,0.709l-0.098,0.084l-5.377,0.188l0.008,-0.081l0.134,-1.422l0.004,-0.043zM167.653,108.418l-0.011,0.08l-2.299,0.08l0.01,-0.08l0.12,-0.985l0.01,-0.08l2.319,-0.081l-0.011,0.08zM112.922,107.347l-0.813,0.029l-0.337,0.358l-2.268,2.414l0.073,-0.683l0.213,-2.008l-3.878,0.135l0.42,0.546l-0.155,1.446l-0.475,4.459l-0.164,1.532l-0.051,0.477l3.838,-0.134l0.286,-2.692l4.136,-3.906l1.586,-1.499l0.613,-0.579zM102.92,114.14l0.534,-4.461l0.24,-2.01l-9.3944,0.328l-0.1234,0.685l-0.1378,0.765l-0.225,1.249l3.8377,-0.134l0.1372,-0.685l0.0162,-0.081l2.0387,-0.071l-0.013,0.081l-0.2268,1.406l-0.0069,0.043l-5.7565,0.201l-0.152,1.236l-0.2999,2.442c0.01347,0.386 0.12123,0.70233 0.3233,0.949c0.20207,0.24667 0.4963,0.363 0.8827,0.349l9.0149,-0.314l-0.12,-0.138l-0.693,-0.795zM99.2395,113.51l-0.1042,0.763l-0.011,0.08l-1.9188,0.067l0.011,-0.08l0.0331,-0.243l0.1043,-0.763l0.011,-0.08l1.9188,-0.067l-0.011,0.08zM91.8451,110.341l0.2448,-1.359c-0.2201,0.094 -0.4603,0.149 -0.7122,0.158l-6.6763,0.233l-0.3249,3.494l4.5084,-0.158l0.4027,-0.342c0.7621,-0.648 1.7459,-0.597 2.4397,-0.117l0.1276,-1.038c0.0026,-0.022 0.0056,-0.043 0.0089,-0.065c-0.0591,-0.255 -0.0688,-0.527 -0.0187,-0.806zM82.2452,105.537l-2.8971,0.101l-0.9909,10.021c-0.0468,0.188 -0.0473,0.36467 -0.0015,0.53c0.0458,0.16533 0.12743,0.306 0.2449,0.422c0.11747,0.116 0.2573,0.20433 0.4195,0.265c0.16227,0.06133 0.33667,0.08867 0.5232,0.082l10.7534,-0.376l0.0007,-0.006l0.2856,-2.685l-0.8347,0.709l-0.0982,0.084l-7.4755,0.261l0.0075,-0.08l0.6834,-7.349l0.0075,-0.08l8.4349,-0.295l0.1328,-1.925z">
</path>
</g>
</g>
<g >
<g filter="url(#filter_15_706)">
<path     fill="#FFFFFF"  d="M34.7333 27.6054L34.4905 30.8831L27.6799 31.3261L27.52 33.7215L33.0384 33.3626L32.8146 36.3935L27.2614 36.7547L27.1137 38.7986L33.9942 38.3511L33.7514 41.6287L22.1908 42.3807L19.4175 41.2633L19.0824 42.5829L14.7516 42.8646L16.9587 34.198L16.3317 33.1866L21.5008 32.8504L20.2776 37.7701L22.8042 38.8685L23.349 31.6078L15.7351 32.103L15.9779 28.8254L34.7333 27.6054ZM7.91871 22.4751L8.16147 19.1974L7.25736 18.2391L14.2775 17.7825L13.9609 22.0821L15.2183 22.0003L15.0014 25.136L13.7091 25.22L13.4115 29.2729L14.5414 28.8487L14.2537 32.5151L13.1588 32.937L12.5782 40.7261Q12.5044 41.7481 11.8129 42.4419Q11.1215 43.1358 10.1785 43.1971L4.55539 43.5629L6.58621 40.2741L6.96214 35.2692L5.11247 35.9507L5.39783 32.2493L7.21257 31.5701L7.66686 25.6131L5.8507 25.7312L6.06762 22.5955L7.91871 22.4751ZM17.6855 19.4898L16.9007 18.2081L34.5733 17.0586L33.8573 26.54L17.0578 27.6328L17.6855 19.4898ZM21.9218 21.5292L29.8501 21.0135L29.9262 20.0265L21.9979 20.5422L21.9218 21.5292ZM29.6263 24.0444L29.7024 23.0574L21.7742 23.5731L21.6981 24.5601L29.6263 24.0444ZM45.3165 40.9466L46.7982 38.9212L46.8865 37.5826L42.9049 37.8416L42.6621 41.1193L37.3534 41.4646L38.6805 24.1219L53.2796 23.1723L52.1518 38.1871Q52.0757 39.1741 51.3331 39.8889Q50.5904 40.6036 49.5775 40.6694L45.3165 40.9466ZM42.325 19.22L42.0907 17.236L40.8867 15.9815L48.5705 15.4817L48.961 18.7883L55.6319 18.3544L56.2222 16.1064L55.2065 15.0501L63.1697 14.5321L62.2329 17.925L66.2145 17.6661L65.9763 21.0136L38.1052 22.8265L38.3434 19.479L42.325 19.22ZM55.9318 40.2211L58.8639 36.7685L59.9156 22.7406L65.2244 22.3953L64.0943 37.3752Q64.0182 38.3623 63.2581 39.0781Q62.4979 39.794 61.52 39.8576L55.9318 40.2211ZM58.5123 23.814L57.539 36.8897L53.5574 37.1487L54.5307 24.0729L58.5123 23.814ZM43.1431 34.4941L47.1596 34.2328L47.3096 32.2238L43.293 32.4851L43.1431 34.4941ZM43.5662 29.1353L47.5478 28.8763L47.6977 26.8674L43.7161 27.1263L43.5662 29.1353ZM72.4521 24.5908L73.4976 20.1736L70.459 20.3713L70.685 17.3753L74.2126 17.1458L74.6039 15.6122L73.516 14.5255L80.5013 14.0711L79.8357 16.7801L82.9791 16.5756L82.7531 19.5716L79.1207 19.8078L78.0752 24.225L82.4061 23.9433L82.1801 26.9393L80.5036 27.0484L81.5699 38.5885L76.2961 38.9315L75.5291 30.9144L73.6068 39.1064L68.298 39.4518L71.0386 27.664L69.8861 27.739L70.1121 24.743L72.4521 24.5908ZM84.6374 29.1294L82.6815 29.2566L83.8193 13.8553L99.3964 12.8421L98.2586 28.2434L93.6134 28.5456L94.5252 16.1402L88.2035 16.5514L88.0391 18.877L84.6374 29.1294ZM93.761 17.8735L86.9485 38.2386L82.3034 38.5408L89.1159 18.1756L93.761 17.8735ZM89.603 38.066L91.1601 29.6522L95.8053 29.35L95.0179 33.9608L97.8819 33.7745L99.2161 32.1796L98.8933 37.4617L89.603 38.066ZM104.905 18.271L103.423 13.2816L102.01 12.0408L108.471 11.6205L110.319 17.9188L118.177 17.4077L117.906 20.7924L111.305 21.2218L112.38 24.7996L117.337 21.7414L116.99 26.1131L113.417 28.3447L114.76 32.817L116.716 32.6898L117.875 31.6323L117.507 36.2159L110.487 36.6725L108.833 31.2033L101.077 35.9868L101.389 31.6173L107.761 27.6604L105.927 21.5716L101.456 21.8624L101.727 18.4777L104.905 18.271ZM130.719 10.1734L128.987 33.1542Q128.911 34.1413 128.168 34.856Q127.426 35.5707 126.448 35.6343L120.929 35.9932L123.794 32.5801L125.301 12.069L124.467 10.58L130.719 10.1734ZM124.153 13.3011L122.852 30.5019L118.242 30.8017L119.543 13.601L124.153 13.3011ZM111.823 15.1554L111.066 12.1532L115.502 11.8647L116.258 14.8669L111.823 15.1554Z">
</path>
<path fill-rule="evenodd"  fill="url(#linear_border_15_706_0)"  d="M38.3434,19.479l-0.0949,1.3339l-0.0983,1.3803l-0.045,0.6333l27.8711,-1.8129l0.0326,-0.4589l0.0623,-0.8751l0.1433,-2.0135l-3.9816,0.2589l0.3733,-1.352l0.1902,-0.6888l0.3733,-1.3521l-7.9632,0.518l1.0157,1.0563l-0.2356,0.8971l-0.3547,1.3509l-6.6709,0.4339l-0.3905,-3.3066l-7.6838,0.4998l1.1995,1.2498l0.0045,0.0047l0.0787,0.6663l0.1556,1.3177zM39.4438,17.3663c-1.1775,-1.2268 -0.3838,-3.2702 1.3131,-3.3806l7.6838,-0.4998c1.0615,-0.069 1.9913,0.7049 2.116,1.7613l0.1679,1.4222l3.0722,-0.1999l-0.032,-0.0332c-1.1792,-1.2264 -0.386,-3.2716 1.3119,-3.382l7.9631,-0.518c1.3729,-0.0893 2.4238,1.2019 2.0577,2.528l-0.1884,0.6824l1.1756,-0.0764c1.2098,-0.0787 2.2108,0.9284 2.1248,2.1377l-0.2383,3.3475c-0.0412,0.5793 -0.3272,1.0893 -0.7553,1.4277l-1.1272,14.9425c-0.0906,1.17467 -0.5771,2.17747 -1.4595,3.0084c-0.8558,0.80593 -1.84893,1.24567 -2.9794,1.3192l-5.5882,0.3635c-1.6853,0.1097 -2.7056,-1.7686 -1.7916,-3.1102l-0.2489,0.0162c-0.20653,0.8354 -0.64027,1.5711 -1.3012,2.2071c-0.84653,0.81467 -1.85073,1.25977 -3.0126,1.3353l-4.2609,0.2772c-0.5321,0.0346 -1.0009,-0.1308 -1.3625,-0.4165c-0.3339,0.3375 -0.7873,0.5563 -1.2919,0.5891l-5.3088,0.3454c-0.8148,0.053 -1.5343,-0.3864 -1.8915,-1.0477c-0.2888,0.6777 -0.9397,1.1617 -1.7105,1.2118l-11.5605,0.752c-0.2993,0.0194 -0.5991,-0.0286 -0.8772,-0.1407l-0.8501,-0.3425c-0.3426,0.3947 -0.835,0.6498 -1.3812,0.6854l-4.3308,0.2817c-0.7513,0.0488 -1.4079,-0.3164 -1.787,-0.8758c-0.788,0.736 -1.7167,1.13877 -2.7861,1.2083l-5.62309,0.3657c-1.62139,0.1055 -2.68521,-1.6641 -1.83152,-3.0465l1.77465,-2.874l0.12898,-1.717c-0.95791,-0.1745 -1.72197,-1.0471 -1.63893,-2.1242l0.28535,-3.7013c0.05982,-0.7759 0.56423,-1.4466 1.29302,-1.7194l0.6187,-0.2315l0.18634,-2.4435c-0.9813,-0.1723 -1.71854,-1.0643 -1.64633,-2.108l0.21692,-3.1357c0.0691,-0.9989 0.86624,-1.7928 1.86542,-1.8578l0.11488,-0.0075l0.04914,-0.6635l-0.29924,-0.3172c-1.16144,-1.2311 -0.36397,-3.2583 1.32496,-3.3682l7.02015,-0.4566c0.6761,-0.044 1.2868,0.2511 1.6792,0.7309c0.27,-0.1719 0.589,-0.2822 0.944,-0.3053l17.6726,-1.1495c1.2133,-0.0789 2.2157,0.934 2.1242,2.1464l-0.1242,1.644c0.2498,-0.7595 0.9404,-1.3161 1.7701,-1.37l1.2634,-0.0822zM59.9156,22.7406l-0.0506,0.6747l-1.0011,13.3532l-1.1305,1.3311l-0.7026,0.8274l-1.099,1.2941l5.5882,-0.3635c0.65193,-0.0424 1.2313,-0.30223 1.7381,-0.7795c0.50673,-0.4772 0.78547,-1.04483 0.8362,-1.7029l0.9781,-12.9658l0.1011,-1.3394l0.0509,-0.6747l-2.0156,0.1311zM51.2641,23.3034l-12.5836,0.8185l-0.0517,0.6747l-1.1213,14.6537l-0.1541,2.0143l5.3087,-0.3453l0.2428,-3.2777l3.9816,-0.259l-0.0833,1.2631l-0.005,0.0755l-0.5157,0.7049l-0.966,1.3205l4.261,-0.2772c0.67527,-0.04387 1.26047,-0.30403 1.7556,-0.7805c0.4086,-0.39327 0.66587,-0.84837 0.7718,-1.3653c0.0224,-0.1094 0.03803,-0.22157 0.0469,-0.3365l0.9765,-13.0008l0.1006,-1.3393l0.0507,-0.6747zM55.221,24.028l-0.6903,0.0449l-0.8234,11.0618l-0.1499,2.014l3.9816,-0.259l0.0163,-0.2194l0.0709,-0.9529l0.7362,-9.8895l0.1499,-2.0139zM36.123,23.0972l-0.2181,2.8871c0.2368,0.1715 0.4346,0.3936 0.5775,0.6501l0.185,-2.4177c-0.2893,-0.2991 -0.4862,-0.6878 -0.5444,-1.1195zM15.9779,28.8254l-0.0347,0.4684l-0.0589,0.7953l-0.0866,1.1686l-0.0626,0.8453l7.6139,-0.4952l-0.0305,0.4066l-0.1206,1.6074l-0.0743,0.9907l-0.1609,2.1441l-0.1585,2.1119l-1.9423,-0.8443l-0.5843,-0.2541l0.7167,-2.8825l0.1475,-0.5935l0.1361,-0.5474l0.2229,-0.8963l-5.1691,0.3362l0.5255,0.8477l0.1015,0.1637l-0.2465,0.9681l-1.4416,5.6605l-0.519,2.038l4.3308,-0.2817l0.3351,-1.3196l1.8719,0.7542l0.9014,0.3632l11.5606,-0.752l0.0936,-1.2637l0.1492,-2.0139l-6.8805,0.4475l0.1455,-2.0137l0.0022,-0.0302l5.5532,-0.3612l0.0751,-1.017l0.1487,-2.0139l-5.5184,0.3589l0.1344,-2.0129l0.0255,-0.3825l6.8106,-0.443l0.0936,-1.2638l0.0929,-1.2547l0.0563,-0.7592l-2.0152,0.1311zM33.8573,26.54l0.0669,-0.8862l0.497,-6.5811l0.1521,-2.0141l-17.6726,1.1495l0.7848,1.2817l-0.052,0.6748l-0.4204,5.4538l-0.087,1.1281l-0.0683,0.8863l2.016,-0.1312zM29.9262,20.0265l-0.0761,0.987l-7.9283,0.5157l0.0761,-0.987zM21.6981,24.5601l0.0761,-0.987l7.9282,-0.5157l-0.0761,0.987l-5.9122,0.3846zM14.1292,19.7963l0.1483,-2.0138l-7.02014,0.4566l0.90411,0.9583l-0.07346,0.9919l-0.1693,2.2858l-1.85109,0.1204l-0.07764,1.1224l-0.12162,1.758l-0.01766,0.2553l1.81616,-0.1181l-0.01849,0.2424l-0.13512,1.7718l-0.30068,3.9428l-1.81474,0.6792l-0.11623,1.5076l-0.10624,1.3781l-0.06289,0.8157l1.84967,-0.6815l-0.06155,0.8193l-0.31438,4.1856l-2.03082,3.2888l5.62311,-0.3658c0.62867,-0.04087 1.17347,-0.2926 1.6344,-0.7552c0.461,-0.46253 0.7161,-1.03447 0.7653,-1.7158l0.5806,-7.7891l0.6611,-0.2547l0.4338,-0.1672l0.115,-1.4653l0.1331,-1.6969l0.0396,-0.5042l-0.587,0.2204l-0.5429,0.2038l0.0375,-0.5099l0.1238,-1.687l0.1363,-1.856l1.2923,-0.084l0.0776,-1.1224l0.1273,-1.8398l0.012,-0.1735l-1.2574,0.0818l0.0124,-0.1679l0.1359,-1.846zM34.8104,36.5243c0.3517,0.1576 0.6499,0.4141 0.859,0.7336l0.3932,-5.1384c-0.272,0.3455 -0.6555,0.5988 -1.0966,0.7065c0.06,0.2157 0.0845,0.4459 0.0669,0.6838zM104.321,16.3047l0.584,1.9663l-3.178,0.2067l-0.11,1.37l-0.161,2.0147l4.471,-0.2908l1.834,6.0888l-6.372,3.9569l-0.136,1.9114l-0.176,2.4581l2.098,-1.2936l3.897,-2.4038l1.761,-1.0861l0.599,1.9805l1.055,3.4887l7.02,-0.4566l0.141,-1.7564l0.137,-1.7097l0.09,-1.1175l-0.839,0.7654l-0.32,0.2921l-1.956,0.1272l-1.343,-4.4723l3.154,-1.97l0.419,-0.2616l0.151,-1.9007l0.109,-1.3731l0.087,-1.0979l-0.436,0.2687l-1.543,0.9523l-0.131,0.0805l-1.085,0.6697l-1.762,1.087l-0.484,-1.612l-0.112,-0.3707l-0.479,-1.5951l6.601,-0.4294l0.076,-0.9453l0.034,-0.4247l0.161,-2.0147l-7.858,0.5111l-1.848,-6.2983l-6.461,0.4203l1.413,1.2408l0.196,0.6587zM102.274,16.4379l-0.604,-2.0338l-0.36,-0.3166l-0.184,2.4822c0.15,-0.0472 0.308,-0.0772 0.471,-0.0878zM100.274,11.0444c0.309,-0.5442 0.869,-0.9515 1.606,-0.9994l6.461,-0.4203c0.689,-0.04478 1.332,0.26679 1.729,0.7933c0.255,-0.147 0.548,-0.2399 0.866,-0.2606l4.436,-0.28853c0.963,-0.06264 1.833,0.57133 2.069,1.50713l0.328,1.301c0.315,-0.6037 0.928,-1.0252 1.644,-1.0718l3.228,-0.2099c-0.564,-1.2518 0.29,-2.71958 1.697,-2.81108l6.251,-0.40665c1.214,-0.07891 2.216,0.93381 2.125,2.14613l-1.732,22.9808c-0.09,1.16653 -0.56567,2.16407 -1.427,2.9926c-0.84667,0.8146 -1.839,1.25893 -2.977,1.333l-5.519,0.3589c-0.771,0.0502 -1.403,-0.316 -1.774,-0.8568c-0.314,0.6079 -0.929,1.0327 -1.648,1.0795l-7.021,0.4566c-0.928,0.0603 -1.775,-0.5269 -2.044,-1.417l-0.901,-2.9814l-5.544,3.4192c-0.419,0.2585 -0.873,0.3408 -1.3,0.2851c-0.216,0.8162 -0.9328,1.4266 -1.8039,1.4833l-9.2903,0.6042c-0.5167,0.0337 -0.991,-0.1294 -1.3603,-0.4186c-0.3375,0.342 -0.7944,0.5588 -1.2941,0.5913l-4.6452,0.3022c-0.1267,0.0082 -0.2504,0.0047 -0.3705,-0.0094c-0.1169,0.0296 -0.2382,0.0489 -0.363,0.0571l-5.2738,0.343c-0.5172,0.0336 -1.0023,-0.1327 -1.3786,-0.4335c-0.3377,0.3505 -0.8005,0.5752 -1.3107,0.6084l-5.3088,0.3453c-1.3385,0.0871 -2.3816,-1.1422 -2.0779,-2.4487l2.2599,-9.7198c-0.4784,-0.3972 -0.7692,-1.0126 -0.7181,-1.6905l0.226,-2.996c0.075,-0.9937 0.8701,-1.7806 1.8646,-1.8453l0.8642,-0.0562l0.0819,-0.3461l-0.3395,0.0221c-1.2133,0.079 -2.2157,-0.9339 -2.1242,-2.1462l0.226,-2.996c0.075,-0.9937 0.8701,-1.7806 1.8645,-1.8453l1.1147,-0.0725c-0.5119,-1.1943 0.2722,-2.6834 1.7163,-2.7773l6.9853,-0.4543c0.7062,-0.046 1.3293,0.2742 1.7165,0.7782c0.3255,-0.5619 0.9161,-0.9495 1.6015,-0.9941l15.577,-1.0132c0.3627,-0.0236 0.7065,0.0504 1.0075,0.1981zM73.516,14.5255l1.0879,1.0867l-0.2197,0.8611l-0.1716,0.6725l-3.5276,0.2295l-0.074,0.9818l-0.152,2.0142l3.0386,-0.1977l-0.4818,2.0356l-0.5637,2.3816l-2.34,0.1522l-0.0741,0.9819l-0.1265,1.6771l-0.0254,0.337l1.1525,-0.075l-0.037,0.1591l-0.4361,1.8759l-1.7944,7.7178l-0.4731,2.035l5.3088,-0.3454l0.495,-2.1097l1.4273,-6.0823l0.595,6.2191l0.172,1.798l5.2738,-0.343l-0.1841,-1.9923l-0.117,-1.267l-0.5099,-5.5186l-0.0688,-0.7438l-0.0024,-0.0262l-0.1841,-1.9922l1.6765,-0.1091l0.0035,-0.0462l0.0706,-0.9357l0.1519,-2.0141l-4.3309,0.2817l0.4818,-2.0355l0.5637,-2.3817l3.6324,-0.2362l0.074,-0.9819l0.152,-2.0141l-3.1434,0.2045l0.1652,-0.6722l0.3352,-1.3646l0.1652,-0.6722l-2.0929,0.1362zM83.299,35.5644l-0.3103,0.9276l-0.6853,2.0488l4.6451,-0.3022l1.3173,-3.9377l2.1801,-6.5171l1.5611,-4.6669l1.0687,-3.1946l0.5757,-1.721l0.1096,-0.3278l-4.6451,0.3021l-0.1097,0.3278l-4.2218,12.6206zM88.2035,16.5514l6.3217,-0.4112l-0.148,2.0139l-0.3939,5.3595l-0.2218,3.0181l-0.07,0.9516l-0.0781,1.0623l4.6452,-0.3022l0.989,-13.3874l0.1488,-2.0139l-15.5771,1.0132l-0.0647,0.8759l-0.5006,6.7769l-0.0446,0.6028l-0.3791,5.1318l-0.12,1.6253l-0.0134,0.1803l-0.0154,0.2083l1.9559,-0.1272l0.0759,-0.2287l3.3258,-10.0237zM81.2109,22.0168l0.0253,-0.3423l-0.5099,0.0331l-0.0819,0.3461zM91.1601,29.6522l-0.9532,5.1504l-0.2285,1.2347l-0.3754,2.0287l9.2903,-0.6043l0.1248,-2.0412l0.198,-3.2409l-1.3342,1.5949l-2.864,0.1863l0.3461,-2.0267l0.0952,-0.5574l0.1635,-0.9576l0.1826,-1.0691l-2.0517,0.1335zM100.334,29.9183l5.07,-3.1484l-0.934,-3.0993l-2.884,0.1876c-0.353,0.023 -0.689,-0.0466 -0.984,-0.1866l-0.349,4.7192c-0.073,0.995 -0.8689,1.7836 -1.8646,1.8484l-0.7139,0.0465l-0.133,0.7787l0.1406,-0.1681c0.6005,-0.7178 1.4764,-0.862 2.206,-0.6005c0.1279,-0.1453 0.2779,-0.2729 0.4459,-0.3775zM119.659,34.3955l1.493,-1.7788l-1.357,0.0882zM120.257,30.6706l2.595,-0.1687l1.149,-15.1866l0.152,-2.0142l-4.61,0.2999l-0.167,2.2057l-0.365,4.8338l-0.145,1.9068l-0.369,4.8805l-0.103,1.3598l-0.067,0.8946l-0.085,1.1195zM116.267,30.392l0.117,-1.5422l-0.612,0.3822l0.38,1.2652zM111.563,14.1251l0.26,1.0303l4.435,-0.2885l-0.497,-1.9719l-0.259,-1.0303l-4.436,0.2885zM125.267,12.5322l-1.449,19.7212l-0.024,0.3267l-1.085,1.2932l-1.78,2.1199l5.519,-0.3589c0.652,-0.0424 1.22533,-0.30183 1.72,-0.7783c0.49533,-0.47647 0.76833,-1.04373 0.819,-1.7018l1.58,-20.9667l0.152,-2.0141l-6.252,0.4066l0.5,0.8935l0.334,0.5955zM47.6977,26.8674l-0.1499,2.0089l-3.9816,0.259l0.1499,-2.009l1.9663,-0.1279zM47.3096,32.2238l-0.15,2.009l-4.0165,0.2613l0.1499,-2.009l2.0012,-0.1302z">
</path>
</g>
</g>
<g >
<g filter="url(#filter_1_205)">
<path     fill="#FFFFFF"  d="M40.7545 47.1191L40.3947 53.2954Q40.2727 53.8846 39.8283 54.2943Q39.384 54.704 38.9449 54.7326L32.2391 55.1688L31.9096 59.0383L28.2772 59.2746L28.916 48.4503L28.3009 47.9291L40.7545 47.1191ZM32.6565 49.5698L32.4937 53.2281L36.5251 52.9659L36.8676 49.2959L32.6565 49.5698ZM47.6445 45.5084L46.7932 56.1461L48.255 57.9751L44.2435 58.236Q43.6647 58.2737 43.3507 57.9133Q43.0366 57.5529 42.999 56.9742L43.8503 46.3365L43.2338 45.7953L47.6445 45.5084ZM56.254 50.921L54.2183 51.0534L54.088 51.8235L50.2561 52.0728L50.6609 49.3608L60.0411 48.7506L59.3691 56.2901L60.2097 57.1975L51.2088 57.783Q50.63 57.8206 50.3159 57.4602Q50.0019 57.0999 49.9642 56.5211L50.3054 52.8312L56.0533 52.4573L56.254 50.921ZM53.8828 54.5225L53.7585 55.6931L55.6744 55.5684L55.7987 54.3979L53.8828 54.5225ZM72.6545 47.9302L72.0447 56.4277L68.2128 56.6769L68.7476 50.1084L66.4525 50.2577L65.9177 56.8262L62.0858 57.0755L62.7319 49.1368L62.1167 48.6156L72.6545 47.9302ZM85.3676 47.1033L84.7579 55.6007L80.926 55.85L81.4607 49.2814L79.1656 49.4307L78.6308 55.9993L74.7989 56.2485L75.445 48.3099L74.8299 47.7887L85.3676 47.1033ZM91.916 46.0961L88.2637 46.3336L88.314 44.0255L92.1459 43.7763L91.916 46.0961ZM91.9537 46.6749L91.3439 55.1723L87.512 55.4216L88.1581 47.4829L87.543 46.9618L91.9537 46.6749ZM105.046 45.8233L104.436 54.3208L100.604 54.57L101.139 48.0014L98.844 48.1507L98.3092 54.7193L94.4773 54.9685L95.1234 47.0299L94.5083 46.5087L105.046 45.8233ZM113.665 56.0053L113.896 53.7054L107.769 54.104L108.359 45.6078L118.338 44.9587L117.535 56.3348Q117.492 56.9188 117.078 57.3265Q116.664 57.7343 116.085 57.7719L107.463 58.3327L107.668 55.6337L108.496 56.3415L113.665 56.0053ZM112.136 47.2861L111.715 51.9032L113.97 51.7565L114.431 47.1369L112.136 47.2861Z">
</path>
<path fill-rule="evenodd"  fill="url(#linear_border_1_205_0)"  d="M50.5311,47.365l9.3802,-0.6102c0.3802,-0.0247 0.7395,0.0577 1.0508,0.2197c0.2824,-0.199 0.6278,-0.3288 1.0248,-0.3547l10.5377,-0.6854c0.4014,-0.0261 0.7797,0.0673 1.103,0.2479c0.2908,-0.2187 0.6528,-0.3621 1.0725,-0.3894l10.5377,-0.6854c0.3785,-0.0247 0.7367,0.057 1.0474,0.218l0.0293,-1.3436c0.0226,-1.0371 0.8345,-1.8848 1.8697,-1.9522l3.8319,-0.2492c1.2322,-0.0802 2.2419,0.9643 2.1201,2.193l-0.0575,0.5802c0.0963,-0.0203 0.1963,-0.0341 0.2998,-0.0408l10.5375,-0.6854c0.696,-0.0453 1.324,0.269 1.714,0.7745c0.326,-0.5595 0.915,-0.9455 1.599,-0.99l9.979,-0.6491c1.209,-0.0787 2.21,0.9277 2.125,2.1366l-0.803,11.3762c-0.06467,0.89307 -0.41433,1.65187 -1.049,2.2764c-0.63,0.6198 -1.38533,0.95833 -2.266,1.0156l-8.622,0.5608c-1.214,0.079 -2.216,-0.9346 -2.124,-2.1474l0.172,-2.2638c-0.303,0.2286 -0.672,0.3731 -1.075,0.3992l-3.832,0.2493c-0.43,0.028 -0.8336,-0.0813 -1.1713,-0.288c-0.3114,0.2506 -0.6994,0.4097 -1.1236,0.4373l-3.832,0.2492c-0.6411,0.0417 -1.223,-0.2214 -1.616,-0.6574c-0.3375,0.4894 -0.8873,0.8203 -1.5173,0.8612l-3.8319,0.2493c-0.5384,0.035 -1.035,-0.1449 -1.413,-0.4616c-0.3379,0.3666 -0.8112,0.6062 -1.3412,0.6407l-3.8319,0.2493c-0.4303,0.028 -0.8338,-0.0813 -1.1715,-0.288c-0.3114,0.2506 -0.6995,0.4097 -1.1237,0.4373l-3.8319,0.2492c-0.5383,0.035 -1.0349,-0.1449 -1.413,-0.4616c-0.3378,0.3667 -0.8111,0.6063 -1.3412,0.6408l-3.8318,0.2492c-0.4303,0.028 -0.8339,-0.0813 -1.1716,-0.2879c-0.3113,0.2505 -0.6994,0.4096 -1.1236,0.4372l-3.8319,0.2493c-0.3393,0.022 -0.6619,-0.0413 -0.9488,-0.1703c-0.2644,0.1639 -0.5767,0.2695 -0.9272,0.2923l-9.001,0.5855c-0.64953,0.0422 -1.2214,-0.0714 -1.7156,-0.3408c-0.3174,0.2995 -0.7405,0.5005 -1.2382,0.5329l-4.0115,0.2609c-1.04413,0.06793 -1.8876,-0.2669 -2.5304,-1.0045c-0.50547,-0.58 -0.78537,-1.28777 -0.8397,-2.1233c-0.0063,-0.0964 -0.0056,-0.1931 0.0021,-0.2894l0.0767,-0.9586c-0.61507,0.53453 -1.28417,0.8253 -2.0073,0.8723l-4.9888,0.3246l-0.1836,2.1551c-0.0839,0.9857 -0.8758,1.7619 -1.8629,1.8261l-3.6324,0.2362c-1.2,0.0781 -2.1971,-0.913 -2.1263,-2.1136l0.5806,-9.8381c-1.1682,-1.1929 -0.4173,-3.2729 1.3097,-3.3853l12.4537,-0.81c0.244,-0.0159 0.4796,0.0124 0.6995,0.0777c0.2297,-0.7358 0.8703,-1.3423 1.7798,-1.4015l4.4107,-0.2868c1.2169,-0.0792 2.2207,0.9397 2.1235,2.1553l-0.1669,2.085c0.3005,-0.2225 0.6652,-0.3623 1.0598,-0.388zM46.7997,56.0655l0.6836,-8.5423l0.1612,-2.0148l-4.4107,0.2869l0.6165,0.5412l-0.1145,1.4304l-0.7368,9.2073c0.02507,0.3858 0.1423,0.69883 0.3517,0.9391c0.20933,0.24027 0.50693,0.34783 0.8928,0.3227l4.0115,-0.2609l-1.4618,-1.829zM50.1907,54.0719l-0.2265,2.4492c0.02513,0.38587 0.14237,0.6989 0.3517,0.9391c0.2094,0.24027 0.50703,0.34787 0.8929,0.3228l9.0009,-0.5855l-0.124,-0.1339l-0.7166,-0.7735l0.0934,-1.0482l0.3989,-4.4754l0.1797,-2.0159l-9.3802,0.6102l-0.1027,0.6881l-0.1148,0.7691l-0.1873,1.2548l3.8319,-0.2493l0.1166,-0.689l0.0137,-0.0811l2.0357,-0.1324l-0.0106,0.0809l-0.1845,1.4124l-0.0056,0.043l-5.7479,0.3739zM53.7929,55.3687l0.0813,-0.7654l0.0086,-0.0808l1.9159,-0.1246l-0.0085,0.0807l-0.0259,0.2437l-0.0813,0.7654l-0.0086,0.0807l-1.9159,0.1247l0.0086,-0.0808zM62.6138,50.5875l-0.364,4.4731l-0.1256,1.5423l-0.0384,0.4726l3.8319,-0.2493l0.5282,-6.4879l0.0066,-0.0806l2.2951,-0.1493l-0.0066,0.0806l-0.1574,1.9343l-0.2067,2.5387l-0.1641,2.0149l3.8319,-0.2492l0.4653,-6.4839l0.1445,-2.0136l-10.5378,0.6854l0.6152,0.5212zM75.445,48.3099l-0.1181,1.4507l-0.364,4.473l-0.164,2.0149l3.8319,-0.2492l0.5282,-6.488l0.0066,-0.0806l2.2951,-0.1493l-0.0065,0.0806l-0.1575,1.9343l-0.2067,2.5388l-0.164,2.0149l3.8319,-0.2493l0.4652,-6.4838l0.1445,-2.0136l-10.5377,0.6854zM88.0401,48.9336l-0.3641,4.4731l-0.164,2.0149l3.8319,-0.2493l0.4653,-6.4838l0.0419,-0.584l0.1026,-1.4296l-4.4107,0.2869l0.6151,0.5211l-0.0686,0.8435zM91.916,46.0961l0.03,-0.3026l0.1106,-1.1163l0.0893,-0.9009l-3.8319,0.2492l-0.0065,0.3011l-0.0127,0.582l-0.0261,1.1966l-0.005,0.2284l1.4603,-0.0949zM95.1234,47.0299l-0.1181,1.4507l-0.364,4.473l-0.164,2.0149l3.8319,-0.2492l0.5282,-6.488l0.0066,-0.0806l2.295,-0.1493l-0.006,0.0806l-0.158,1.9343l-0.207,2.5388l-0.164,2.0149l3.832,-0.2492l0.466,-6.4839l0.144,-2.0136l-10.5377,0.6854zM107.616,56.3186l-0.133,1.7476l-0.02,0.2665l8.622,-0.5608c0.386,-0.02507 0.717,-0.17353 0.993,-0.4454c0.276,-0.2718 0.42833,-0.60237 0.457,-0.9917l0.661,-9.3627l0.142,-2.0134l-9.979,0.6491l-0.45,6.4828l-0.107,1.5441l-0.033,0.4693l6.127,-0.3986l-0.006,0.0605l-0.197,1.9569l-0.02,0.2018l-0.008,0.0807l-5.169,0.3362l-0.087,-0.0745l-0.218,-0.1863l-0.523,-0.447l-0.035,0.4659zM112.408,47.2684l2.023,-0.1315l-0.008,0.0806l-0.193,1.9367l-0.255,2.5525l-0.005,0.0498l-2.255,0.1467l0.005,-0.0605l0.179,-1.9557l0.23,-2.5202l0.007,-0.0807zM37.2096,54.8454l1.7353,-0.1128c0.29273,-0.01907 0.5872,-0.16517 0.8834,-0.4383c0.29627,-0.27313 0.48507,-0.6061 0.5664,-0.9989l0.2426,-4.1645l0.1172,-2.0118l-12.4536,0.81l0.6151,0.5212l-0.0855,1.4486l-0.4345,7.3637l-0.1188,2.012l3.6324,-0.2363l0.3258,-3.8264l0.0037,-0.0431zM34.5015,53.0975l-2.0078,0.1306l0.0035,-0.0804l0.086,-1.9296l0.0698,-1.5678l0.0035,-0.0805l4.2111,-0.2739l-0.0075,0.0807l-0.3274,3.5086l-0.0076,0.0807z">
</path>
</g>
</g>
<defs>
<linearGradient id="linear_border_15_692_0" x1="45.61112594604492" y1="87.379638671875" x2="174.53254318237305" y2="82.877685546875" gradientUnits="userSpaceOnUse">
<stop offset="0" stop-color="#6287F8"  />
<stop offset="1" stop-color="#3D5CFF"  />
</linearGradient>
<filter id="filter_15_692" x="42.65823745727539" y="67.283203125" width="134.31952667236328" height="37.143310546875" filterUnits="userSpaceOnUse" color-interpolation-filters="sRGB">
<feFlood flood-opacity="0" result="feFloodId_15_692"/>
<feColorMatrix in="SourceAlpha" type="matrix" values="0 0 0 0 0 0 0 0 0 0 0 0 0 0 0 0 0 0 127 0" result="hardAlpha_15_692"/>
<feOffset dx="0" dy="1"/>
<feGaussianBlur stdDeviation="1"/>
<feComposite in2="hardAlpha_15_692" operator="out"/>
<feColorMatrix type="matrix" values="0 0 0 0 0.023529411764705882 0 0 0 0 0.4392156862745098 0 0 0 0 0.7411764705882353 0 0 0 0.5 0"/>
<feBlend mode="normal" in2="feFloodId_15_692" result="dropShadow_1_15_692"/>
<feBlend mode="normal" in="SourceGraphic" in2="dropShadow_1_15_692" result="shape_15_692"/>
</filter>
<linearGradient id="linear_border_15_704_0" x1="77.26213455200195" y1="111.2340087890625" x2="173.20363998413086" y2="107.8836669921875" gradientUnits="userSpaceOnUse">
<stop offset="0" stop-color="#6287F8"  />
<stop offset="1" stop-color="#3D5CFF"  />
</linearGradient>
<filter id="filter_15_704" x="74.24213027954102" y="99.453369140625" width="101.6390609741211" height="22.527099609375" filterUnits="userSpaceOnUse" color-interpolation-filters="sRGB">
<feFlood flood-opacity="0" result="feFloodId_15_704"/>
<feColorMatrix in="SourceAlpha" type="matrix" values="0 0 0 0 0 0 0 0 0 0 0 0 0 0 0 0 0 0 127 0" result="hardAlpha_15_704"/>
<feOffset dx="0" dy="1"/>
<feGaussianBlur stdDeviation="1"/>
<feComposite in2="hardAlpha_15_704" operator="out"/>
<feColorMatrix type="matrix" values="0 0 0 0 0.023529411764705882 0 0 0 0 0.4392156862745098 0 0 0 0 0.7411764705882353 0 0 0 0.5 0"/>
<feBlend mode="normal" in2="feFloodId_15_704" result="dropShadow_1_15_704"/>
<feBlend mode="normal" in="SourceGraphic" in2="dropShadow_1_15_704" result="shape_15_704"/>
</filter>
<linearGradient id="linear_border_15_706_0" x1="3.9138641357421875" y1="37.474609375" x2="132.64182662963867" y2="29.1014404296875" gradientUnits="userSpaceOnUse">
<stop offset="0" stop-color="#6287F8"  />
<stop offset="1" stop-color="#3D5CFF"  />
</linearGradient>
<filter id="filter_15_706" x="0" y="7.0986328125" width="134.80486679077148" height="41.5654296875" filterUnits="userSpaceOnUse" color-interpolation-filters="sRGB">
<feFlood flood-opacity="0" result="feFloodId_15_706"/>
<feColorMatrix in="SourceAlpha" type="matrix" values="0 0 0 0 0 0 0 0 0 0 0 0 0 0 0 0 0 0 127 0" result="hardAlpha_15_706"/>
<feOffset dx="0" dy="1"/>
<feGaussianBlur stdDeviation="1"/>
<feComposite in2="hardAlpha_15_706" operator="out"/>
<feColorMatrix type="matrix" values="0 0 0 0 0.023529411764705882 0 0 0 0 0.4392156862745098 0 0 0 0 0.7411764705882353 0 0 0 0.5 0"/>
<feBlend mode="normal" in2="feFloodId_15_706" result="dropShadow_1_15_706"/>
<feBlend mode="normal" in="SourceGraphic" in2="dropShadow_1_15_706" result="shape_15_706"/>
</filter>
<linearGradient id="linear_border_1_205_0" x1="27.00265884399414" y1="53.545166015625" x2="119.8065299987793" y2="47.5086669921875" gradientUnits="userSpaceOnUse">
<stop offset="0" stop-color="#6287F8"  />
<stop offset="1" stop-color="#3D5CFF"  />
</linearGradient>
<filter id="filter_1_205" x="23.693111419677734" y="40.7003173828125" width="98.72518920898438" height="23.6480712890625" filterUnits="userSpaceOnUse" color-interpolation-filters="sRGB">
<feFlood flood-opacity="0" result="feFloodId_1_205"/>
<feColorMatrix in="SourceAlpha" type="matrix" values="0 0 0 0 0 0 0 0 0 0 0 0 0 0 0 0 0 0 127 0" result="hardAlpha_1_205"/>
<feOffset dx="0" dy="1"/>
<feGaussianBlur stdDeviation="1"/>
<feComposite in2="hardAlpha_1_205" operator="out"/>
<feColorMatrix type="matrix" values="0 0 0 0 0.023529411764705882 0 0 0 0 0.4392156862745098 0 0 0 0 0.7411764705882353 0 0 0 0.5 0"/>
<feBlend mode="normal" in2="feFloodId_1_205" result="dropShadow_1_1_205"/>
<feBlend mode="normal" in="SourceGraphic" in2="dropShadow_1_1_205" result="shape_1_205"/>
</filter>
</defs>
</svg>
