<svg xmlns="http://www.w3.org/2000/svg" xmlns:xlink="http://www.w3.org/1999/xlink" width="48" height="48" viewBox="0 0 48 48" fill="none">
<rect  x="0" y="0" width="48" height="48" rx="12"    fill="#E8FFEC" >
</rect>
<g  clip-path="url(#clip-path-qn6Ch5XA1HHhxzVLLicO7)">
<path d="M23.9508 14.5093C18.1711 14.5093 13.4836 19.1968 13.4836 24.9765C13.4836 30.7562 18.1687 35.4437 23.9508 35.4437C29.7328 35.4437 34.418 30.7585 34.418 24.9765C34.418 19.1968 29.7328 14.5093 23.9508 14.5093ZM26.6953 26.0382L23.775 26.0382C23.1891 26.0382 22.7133 25.5624 22.7133 24.9765L22.7133 19.4288C22.7133 18.8429 23.1891 18.3671 23.775 18.3671C24.3609 18.3671 24.8367 18.8429 24.8367 19.4288L24.8367 23.9171L26.6953 23.9171C27.2812 23.9171 27.757 24.3929 27.757 24.9788C27.757 25.5647 27.2812 26.0382 26.6953 26.0382Z"   fill="#12E068" >
</path>
</g>
<defs>
<clipPath id="clip-path-qn6Ch5XA1HHhxzVLLicO7">
<path d="M12 36L36 36L36 12L12 12L12 36Z" fill="white"/>
</clipPath>
</defs>
</svg>
