<svg xmlns="http://www.w3.org/2000/svg" xmlns:xlink="http://www.w3.org/1999/xlink" width="30.000015258789062" height="30" viewBox="0 0 30.000015258789062 30" fill="none">
<path d="M15 2.5C10.1675 2.5 6.25 6.4175 6.25 11.25L6.25 23.75L23.75 23.75L23.75 11.25C23.75 6.4175 19.8325 2.5 15 2.5Z"   fill="#FFD363" >
</path>
<path    stroke="rgba(255, 211, 99, 1)" stroke-width="1.3333333333333333" stroke-linejoin="round" stroke-linecap="round"  d="M6.25 23.75L6.25 11.25C6.25 6.4175 10.1675 2.5 15 2.5C19.8325 2.5 23.75 6.4175 23.75 11.25L23.75 23.75M2.5 23.75L27.5 23.75">
</path>
<path d="M15 27.5C16.7259 27.5 18.125 26.1009 18.125 24.375L18.125 23.75L11.875 23.75L11.875 24.375C11.875 26.1009 13.2741 27.5 15 27.5Z" stroke="rgba(255, 211, 99, 1)" stroke-width="1.3333333333333333" stroke-linejoin="round" stroke-linecap="round"    fill="#FFD363" >
</path>
<path    stroke="rgba(255, 255, 255, 1)" stroke-width="1.3333333333333333" stroke-linejoin="round" stroke-linecap="round"  d="M19 13.3335L11 13.3335">
</path>
<path    stroke="rgba(255, 255, 255, 1)" stroke-width="1.3333333333333333" stroke-linejoin="round" stroke-linecap="round"  d="M21 10L9 10">
</path>
</svg>
