<svg xmlns="http://www.w3.org/2000/svg" xmlns:xlink="http://www.w3.org/1999/xlink" width="48" height="48" viewBox="0 0 48 48" fill="none">
<rect  x="0" y="0" width="48" height="48" rx="12"    fill="#F7F0FF" >
</rect>
<path d="M27.3497 14.674L35.0893 28.1017C35.255 28.3895 35.255 28.7403 35.0893 29.0282L32.6124 33.3249C32.4404 33.6239 32.1155 33.8095 31.7631 33.8099L16.2368 33.8099C15.884 33.8099 15.5586 33.6243 15.3864 33.3249L12.9106 29.0282C12.7449 28.7403 12.7449 28.3895 12.9106 28.1017L20.6502 14.674C20.8229 14.3748 21.1481 14.1897 21.5009 14.1899L26.499 14.1899C26.8518 14.1897 27.177 14.3748 27.3497 14.674ZM29.2067 28.568L18.783 28.568L23.9949 19.5327L29.2067 28.568Z" fill-rule="evenodd"  fill="#B98AFF" >
</path>
</svg>
