<svg xmlns="http://www.w3.org/2000/svg" xmlns:xlink="http://www.w3.org/1999/xlink" width="307.64947509765625" height="307.64947509765625" viewBox="0 0 307.64947509765625 307.64947509765625" fill="none">
<path d="M179.794 247.058C179.723 247.105 179.652 247.105 179.581 247.105C179.416 247.105 179.25 247.01 179.156 246.868C179.038 246.631 179.109 246.347 179.345 246.229L181.827 244.879C182.064 244.76 182.347 244.831 182.466 245.068C182.584 245.305 182.513 245.589 182.276 245.708L179.794 247.058ZM174.806 249.781C174.735 249.829 174.664 249.829 174.593 249.829C174.428 249.829 174.262 249.734 174.168 249.592C174.049 249.355 174.12 249.071 174.357 248.952L176.839 247.602C177.075 247.484 177.359 247.555 177.477 247.792C177.596 248.029 177.525 248.313 177.288 248.431L174.806 249.781Z" fill-rule="evenodd"  fill="#EAEAFF" >
</path>
<path d="M254.759 263.4C257.123 274.295 257.832 276.901 257.832 276.901L228.518 276.901L212.678 234.506L246.248 236.637C246.248 236.637 252.395 252.506 254.759 263.4L254.759 263.4Z" fill-rule="evenodd"  fill="#F9D2DD" >
</path>
<path d="M212.678 234.506L216.461 244.453L250.267 247.769C248.47 242.535 246.248 236.637 246.248 236.637L212.678 234.506L212.678 234.506Z" fill-rule="evenodd"  fill="#F9ACC0" >
</path>
<path d="M230.409 276.901L222.371 243.032L248.849 240.664C248.849 240.664 237.501 202.769 214.806 190.453C192.111 178.137 159.487 178.848 139.156 188.795C126.627 194.929 106.296 216.979 102.513 236.164L126.863 236.164L126.863 236.164L120.48 276.901L230.409 276.901Z" fill-rule="evenodd"  fill="#3D5CFF" >
</path>
<path d="M139.156 188.795C124.499 195.427 108.423 212.006 102.513 236.164L126.863 236.164L126.863 236.164L120.48 276.901L230.409 276.901L222.371 243.032L248.849 240.664C248.849 240.664 242.702 206.558 214.806 190.453C192.442 177.545 159.794 179.463 139.156 188.795Z" fill-rule="evenodd"  fill="#3D5CFF" >
</path>
<path   fill-rule="evenodd"  fill="#FFFFFF"  d="M94.6406 165.964L94.6406 165.964M128.589 187.304L125.752 179.962C125.681 179.796 125.775 179.606 125.941 179.535L132.135 177.143C134.806 176.101 136.154 173.093 135.113 170.417L130.267 157.793C129.251 155.117 126.225 153.767 123.553 154.809L94.6406 165.964C91.9692 167.006 90.6217 170.014 91.6619 172.691L96.5082 185.314C97.5484 187.991 100.551 189.341 103.222 188.299L113.624 184.272C113.695 184.249 113.79 184.249 113.86 184.272L126.485 189.435C126.886 189.601 127.288 189.53 127.619 189.341C127.643 189.341 127.643 189.317 127.667 189.317L127.69 189.317C128.494 189.009 128.896 188.109 128.589 187.304">
</path>
<path d="M255.323 149.757C256.284 149.757 257.215 149.186 257.576 148.254C257.966 147.323 257.726 146.302 257.095 145.611L255.653 149.066C255.563 149.306 255.443 149.516 255.323 149.757L255.323 149.757Z" fill-rule="evenodd"  fill="#FFFFFF" >
</path>
<path d="M250.666 146.933L252.559 146.121C253.189 145.821 253.25 145.31 252.649 144.95L250.936 143.958L250.936 143.958L250.846 141.915C250.786 141.194 250.335 140.984 249.824 141.495L248.322 142.817L246.4 142.306C245.739 142.156 245.408 142.546 245.678 143.177L246.43 145.1L245.318 146.903C244.957 147.503 245.198 147.924 245.889 147.834L247.902 147.594L249.134 149.246C249.554 149.787 250.005 149.667 250.185 148.976L250.666 146.933Z" fill-rule="evenodd"  fill="#FFFFFF" >
</path>
<path d="M241.292 144.018C241.352 143.748 241.443 143.477 241.563 143.207L243.035 139.662C241.983 139.541 240.962 140.112 240.541 141.134C240.121 142.185 240.451 143.357 241.292 144.018L241.292 144.018Z" fill-rule="evenodd"  fill="#FFFFFF" >
</path>
<path d="M229.607 165.68L232.94 157.035L225.564 154.193C222.846 153.127 221.498 150.072 222.538 147.348L228.07 132.971C229.134 130.247 232.183 128.897 234.902 129.94L266.935 142.303C269.653 143.369 271.001 146.424 269.937 149.124L264.405 163.501C263.365 166.225 260.292 167.575 257.573 166.533L245.824 161.985L231.994 167.646C231.569 167.835 231.096 167.764 230.741 167.527L230.363 167.385C229.678 167.125 229.347 166.367 229.607 165.68ZM252.139 144.005C252.42 144.178 252.549 144.662 252.432 145.077L252.186 145.96C252.818 146.6 253.088 147.863 252.771 148.97C252.42 150.199 251.496 150.822 250.653 150.424C249.904 151.496 248.804 151.929 247.762 151.479L247.223 153.4L248.195 154.005C248.394 154.126 248.488 154.455 248.406 154.749C248.324 155.043 248.101 155.182 247.902 155.061L245.245 153.434C245.046 153.313 244.953 152.984 245.035 152.69C245.117 152.396 245.339 152.258 245.538 152.379L246.509 152.984L247.06 151.046C246.17 150.251 245.643 148.849 245.62 147.361C244.766 146.807 244.356 145.337 244.719 144.039C245.046 142.88 245.901 142.257 246.708 142.534L246.943 141.686C247.06 141.271 247.387 141.08 247.668 141.253L252.139 144.005Z" fill-rule="evenodd"  fill="#FFFFFF" >
</path>
<path d="M126.272 239.906L127.265 240.167L133.979 215.322L120.078 236.164L126.863 236.164L126.272 239.906L126.272 239.906Z" fill-rule="evenodd"  fill="#224BF4" >
</path>
<path d="M155.704 114.663C155.704 114.663 156.886 99.505 166.579 97.3734C176.272 95.2418 181 99.0313 183.6 102.821C186.201 106.61 185.964 108.742 185.964 108.742C185.964 108.742 189.747 105.663 196.366 108.268C202.986 110.873 201.094 118.216 201.094 118.216C201.094 118.216 206.295 116.795 208.896 125.321C211.496 133.847 202.749 148.058 199.44 150.189C196.13 152.321 148.139 143.795 148.139 143.795C148.139 143.795 140.102 135.742 140.574 126.742L140.574 126.742C141.047 117.742 148.139 113.952 150.976 113.716C153.813 113.479 155.704 114.663 155.704 114.663Z" fill-rule="evenodd"  fill="#1F1F39" >
</path>
<path d="M146.012 140.242C141.284 142.374 140.811 148.769 144.357 152.795C147.903 156.821 156.887 155.874 156.887 155.874L154.475 141.284C154.475 141.284 150.74 138.111 146.012 140.242L146.012 140.242Z" fill-rule="evenodd"  fill="#F9ACC0" >
</path>
<path d="M202.537 140.242C207.265 142.374 207.738 148.769 204.191 152.795C200.645 156.821 191.662 155.874 191.662 155.874L194.073 141.284C194.073 141.284 197.808 138.111 202.537 140.242L202.537 140.242Z" fill-rule="evenodd"  fill="#F9ACC0" >
</path>
<path d="M153.411 148.603C151.615 145.903 148.21 144.979 148.187 144.955C147.998 144.908 147.879 144.718 147.927 144.529C147.974 144.339 148.163 144.221 148.352 144.268C148.494 144.316 152.04 145.287 154.002 148.2C155.941 151.089 155.965 152.818 155.965 152.889C155.941 153.103 155.775 153.268 155.586 153.268C155.397 153.268 155.232 153.103 155.232 152.913L155.232 152.913C155.232 152.889 155.184 151.303 153.411 148.603Z" fill-rule="evenodd"  fill="#1F1F39" >
</path>
<path d="M194.428 152.51L194.428 152.51C194.262 152.416 194.192 152.202 194.262 152.037C194.31 151.918 195.728 149.123 197.879 146.968C200.054 144.789 201.544 144.505 201.615 144.505C201.804 144.481 201.993 144.6 202.017 144.789C202.04 144.979 201.922 145.168 201.733 145.192C201.733 145.192 200.385 145.452 198.376 147.465C196.319 149.526 194.901 152.321 194.901 152.344C194.853 152.487 194.712 152.558 194.593 152.558C194.546 152.558 194.475 152.534 194.428 152.51Z" fill-rule="evenodd"  fill="#1F1F39" >
</path>
<path d="M163.27 185.006C163.27 185.006 164.924 188.558 173.671 188.558C183.128 188.558 185.728 185.006 185.728 185.006C185.728 185.006 184.546 181.453 184.073 178.137C183.6 174.821 183.837 169.137 183.837 169.137C183.837 169.137 191.165 168.19 194.002 157.769C196.839 147.348 195.421 138.111 195.421 138.111C195.421 138.111 181.473 140.242 176.745 134.558C172.017 128.874 167.288 123.19 160.433 126.032C153.577 128.874 154.05 135.979 154.05 135.979C154.05 135.979 153.577 147.584 155.941 155.874L155.941 155.874C158.305 164.163 165.87 168.9 165.87 168.9C165.87 168.9 166.106 174.821 165.161 179.085C164.215 183.348 163.27 185.006 163.27 185.006Z" fill-rule="evenodd"  fill="#F9D2DD" >
</path>
<path d="M165.076 135.866C163.855 136.573 162.515 136.539 162.085 135.791C161.654 135.044 162.294 133.865 163.516 133.159C164.737 132.452 166.076 132.486 166.507 133.234C166.938 133.981 166.297 135.16 165.076 135.866L165.076 135.866Z" fill-rule="evenodd"  fill="#1F1F39" >
</path>
<path d="M167.525 148.295C166.35 148.295 165.397 147.181 165.397 145.808C165.397 144.434 166.35 143.321 167.525 143.321C168.7 143.321 169.653 144.434 169.653 145.808C169.653 147.181 168.7 148.295 167.525 148.295L167.525 148.295Z" fill-rule="evenodd"  fill="#1F1F39" >
</path>
<path d="M183.128 148.295C181.953 148.295 181 147.181 181 145.808C181 144.434 181.953 143.321 183.128 143.321C184.303 143.321 185.255 144.434 185.255 145.808C185.255 147.181 184.303 148.295 183.128 148.295L183.128 148.295Z" fill-rule="evenodd"  fill="#1F1F39" >
</path>
<path d="M175.563 153.979C177.69 153.742 178.872 152.084 178.872 152.084C178.872 152.084 179.581 154.926 176.745 155.874C173.908 156.821 171.544 153.979 172.253 152.084C172.253 152.084 173.435 154.216 175.563 153.979L175.563 153.979Z" fill-rule="evenodd"  fill="#F95368" >
</path>
<path d="M173.671 149.242C174.381 150.663 176.272 149.953 176.272 149.953C176.272 149.953 174.381 149.479 174.381 148.058C174.381 146.637 175.326 144.032 175.326 144.032C175.326 144.032 172.962 147.821 173.671 149.242L173.671 149.242Z" fill-rule="evenodd"  fill="#1F1F39" >
</path>
<path d="M171.577 143.805C171.637 143.775 173.29 143.384 175.363 143.384C177.466 143.384 178.427 143.805 178.487 143.835L178.127 144.646C178.127 144.646 177.256 144.286 175.393 144.286C173.41 144.256 171.788 144.646 171.788 144.676L171.577 143.805L171.577 143.805Z" fill-rule="evenodd"  fill="#1F1F39" >
</path>
<path d="M165.161 179.084C164.995 179.795 164.853 180.434 164.688 181.026C164.83 180.979 164.972 180.955 165.114 180.908C175.326 178.208 180.835 174.703 183.766 172.003C183.766 170.345 183.813 169.137 183.813 169.137C183.813 169.137 180.976 170.795 174.121 170.558C170.953 170.439 167.525 169.847 165.87 168.9C165.894 170.368 165.941 175.532 165.161 179.084L165.161 179.084Z" fill-rule="evenodd"  fill="#F9ACC0" >
</path>
<path d="M185.78 154.453C182.544 154.453 179.921 153.18 179.921 151.611C179.921 150.041 182.544 148.769 185.78 148.769C189.015 148.769 191.638 150.041 191.638 151.611C191.638 153.18 189.015 154.453 185.78 154.453L185.78 154.453Z" fill-rule="evenodd"  fill="#F9ACC0" >
</path>
<path d="M163.927 154.454C160.692 154.454 158.069 153.181 158.069 151.612C158.069 150.042 160.692 148.77 163.927 148.77C167.163 148.77 169.786 150.042 169.786 151.612C169.786 153.181 167.163 154.454 163.927 154.454L163.927 154.454Z" fill-rule="evenodd"  fill="#F9ACC0" >
</path>
<path d="M222.371 243.032L230.267 242.369L212.678 212.242L222.371 243.032L222.371 243.032Z" fill-rule="evenodd"  fill="#224BF4" >
</path>
<path d="M165.799 169.563C165.634 169.468 165.563 169.255 165.681 169.066C165.775 168.9 165.988 168.829 166.177 168.947C166.201 168.971 168.991 170.558 173.08 170.558C173.27 170.558 173.435 170.724 173.435 170.913C173.435 171.103 173.27 171.268 173.08 171.268C168.778 171.268 165.917 169.634 165.799 169.563L165.799 169.563Z" fill-rule="evenodd"  fill="#1F1F39" >
</path>
<path d="M168.258 235.69C168.258 235.69 172.277 233.322 176.059 235.69C177.927 236.851 177.714 239.243 177.714 239.243C177.714 239.243 179.794 239.196 181.497 240.901C183.199 242.606 181.969 245.164 181.969 245.164C181.969 245.164 184.404 247.485 182.773 250.422C181.733 252.269 177.856 256.793 170.244 260.748C158.849 266.669 135.043 280.88 118.612 282.585C107.998 283.675 93.3168 279.98 97.5722 260.322C101.827 240.664 103.482 236.164 103.482 236.164L128.305 236.164L124.499 251.085C124.499 251.085 156.745 241.848 158.069 240.711L158.069 240.711C159.392 239.575 159.203 237.111 158.636 235.596C158.305 234.743 157.454 233.511 156.768 232.611C156.035 231.664 155.894 230.385 156.532 229.509C157.383 228.348 159.889 228.159 161.851 228.703C163.151 229.059 164.499 229.675 165.421 230.717C167.69 233.369 168.258 235.69 168.258 235.69Z" fill-rule="evenodd"  fill="#F9D2DD" >
</path>
<path d="M110.338 255.822C110.267 255.632 110.385 255.443 110.551 255.372L124.381 250.754C124.57 250.682 124.759 250.801 124.83 250.967C124.901 251.156 124.782 251.346 124.617 251.417L110.787 256.035C110.74 256.059 110.716 256.059 110.669 256.059C110.527 256.059 110.385 255.964 110.338 255.822L110.338 255.822Z" fill-rule="evenodd"  fill="#1F1F39" >
</path>
<path d="M170.645 243.577C170.551 243.411 170.598 243.198 170.764 243.079L177.501 238.934C177.667 238.84 177.879 238.887 177.998 239.053C178.092 239.219 178.045 239.432 177.879 239.55L171.142 243.695C171.071 243.719 171.024 243.742 170.953 243.742C170.835 243.742 170.716 243.671 170.645 243.577L170.645 243.577Z" fill-rule="evenodd"  fill="#1F1F39" >
</path>
<path d="M174.664 249.734C174.57 249.569 174.617 249.356 174.782 249.237L181.52 245.092C181.686 244.998 181.898 245.045 182.017 245.211C182.111 245.377 182.064 245.59 181.898 245.708L175.161 249.853C175.09 249.877 175.043 249.9 174.972 249.9C174.853 249.9 174.735 249.829 174.664 249.734L174.664 249.734Z" fill-rule="evenodd"  fill="#1F1F39" >
</path>
<path d="M168.258 235.666C168.281 238.911 166.106 241.611 166.106 241.611C169.936 241.327 172.3 237.656 173.6 234.743C170.905 234.269 168.565 235.501 168.258 235.666L168.258 235.666Z" fill-rule="evenodd"  fill="#F9ACC0" >
</path>
<path d="M128.281 236.164L103.459 236.164C103.459 236.164 102.797 237.94 101.26 244.169L127.62 238.793L128.281 236.164L128.281 236.164Z" fill-rule="evenodd"  fill="#F9ACC0" >
</path>
<path d="M174.877 229.485C174.641 229.366 174.546 229.082 174.688 228.845L177.288 223.872C177.407 223.635 177.69 223.54 177.927 223.682C178.163 223.801 178.258 224.085 178.116 224.322L175.515 229.295C175.421 229.437 175.255 229.532 175.09 229.532C175.019 229.532 174.948 229.508 174.877 229.485L174.877 229.485Z" fill-rule="evenodd"  fill="#EAEAFF" >
</path>
<path d="M144.396 207.724L141.692 197.809C141.602 197.479 141.782 197.148 142.113 197.058C142.443 196.968 142.774 197.148 142.864 197.479L145.568 207.393C145.658 207.724 145.478 208.054 145.147 208.144C145.057 208.174 145.027 208.174 144.967 208.174C144.696 208.174 144.456 207.994 144.396 207.724L144.396 207.724Z" fill-rule="evenodd"  fill="#EAEAFF" >
</path>
<path d="M157.375 213.541C157.074 213.421 156.924 213.06 157.044 212.76L160.649 203.446C160.77 203.146 161.13 202.996 161.431 203.116C161.731 203.236 161.881 203.597 161.761 203.897L158.156 213.211C158.066 213.421 157.825 213.571 157.585 213.571C157.525 213.571 157.435 213.571 157.375 213.541L157.375 213.541Z" fill-rule="evenodd"  fill="#EAEAFF" >
</path>
<path d="M134.511 235.173L130.305 227.061C130.155 226.76 130.275 226.4 130.576 226.249C130.876 226.099 131.236 226.219 131.387 226.52L135.593 234.632C135.743 234.932 135.623 235.293 135.322 235.443C135.232 235.473 135.142 235.503 135.052 235.503C134.842 235.503 134.631 235.383 134.511 235.173L134.511 235.173Z" fill-rule="evenodd"  fill="#EAEAFF" >
</path>
<path d="M201.329 250.946C201.089 250.706 201.089 250.345 201.329 250.105L205.835 245.598C206.076 245.358 206.436 245.358 206.677 245.598C206.917 245.839 206.917 246.199 206.677 246.44L202.17 250.946C202.05 251.066 201.9 251.127 201.749 251.127C201.599 251.127 201.449 251.066 201.329 250.946L201.329 250.946Z" fill-rule="evenodd"  fill="#EAEAFF" >
</path>
<path d="M203.672 265.597L198.865 259.588C198.655 259.318 198.685 258.957 198.955 258.747C199.226 258.537 199.586 258.567 199.797 258.837L204.604 264.846C204.814 265.116 204.784 265.477 204.514 265.687C204.423 265.807 204.273 265.837 204.153 265.837C203.973 265.837 203.792 265.747 203.672 265.597L203.672 265.597Z" fill-rule="evenodd"  fill="#EAEAFF" >
</path>
<path d="M167.74 273.228C167.469 273.047 167.409 272.657 167.59 272.386L172.096 266.077C172.276 265.807 172.667 265.747 172.937 265.927C173.208 266.107 173.268 266.498 173.088 266.768L168.581 273.077C168.461 273.258 168.281 273.348 168.1 273.348C167.98 273.348 167.86 273.318 167.74 273.228L167.74 273.228Z" fill-rule="evenodd"  fill="#EAEAFF" >
</path>
<path d="M212.644 259.798C212.344 259.678 212.163 259.348 212.283 259.017L215.288 250.605C215.408 250.305 215.738 250.124 216.069 250.244C216.369 250.365 216.55 250.695 216.429 251.026L213.425 259.438C213.335 259.678 213.095 259.828 212.854 259.828C212.794 259.828 212.704 259.828 212.644 259.798L212.644 259.798Z" fill-rule="evenodd"  fill="#EAEAFF" >
</path>
<path d="M190.922 215.074L190.922 204.558C190.922 204.228 191.193 203.957 191.523 203.957C191.854 203.957 192.124 204.228 192.124 204.558L192.124 215.074C192.124 215.404 191.854 215.674 191.523 215.674C191.193 215.674 190.922 215.404 190.922 215.074L190.922 215.074Z" fill-rule="evenodd"  fill="#EAEAFF" >
</path>
<path d="M184.354 201.414L182.852 195.706C182.762 195.375 182.972 195.045 183.273 194.985C183.603 194.895 183.934 195.105 183.994 195.405L185.496 201.114C185.586 201.444 185.376 201.775 185.075 201.835C185.015 201.865 184.985 201.865 184.925 201.865C184.655 201.865 184.414 201.684 184.354 201.414L184.354 201.414Z" fill-rule="evenodd"  fill="#EAEAFF" >
</path>
<path d="M209.339 201.835C209.039 201.715 208.858 201.384 208.979 201.054L211.082 195.345C211.202 195.045 211.532 194.864 211.863 194.985C212.163 195.105 212.343 195.435 212.223 195.766L210.12 201.474C210.03 201.715 209.79 201.865 209.549 201.865C209.489 201.865 209.399 201.865 209.339 201.835L209.339 201.835Z" fill-rule="evenodd"  fill="#EAEAFF" >
</path>
<path d="M114.634 213.001L114.333 206.391C114.333 206.06 114.574 205.79 114.904 205.76C115.235 205.76 115.505 206 115.535 206.331L115.836 212.941C115.836 213.271 115.595 213.541 115.235 213.571C115.265 213.571 115.235 213.571 115.235 213.571C114.904 213.571 114.664 213.331 114.634 213.001L114.634 213.001Z" fill-rule="evenodd"  fill="#EAEAFF" >
</path>
<path d="M238.281 217.003L231.497 215.796C231.236 215.748 231.071 215.511 231.118 215.251C231.166 214.99 231.402 214.824 231.662 214.872L238.447 216.08C238.707 216.127 238.872 216.364 238.825 216.624C238.801 216.838 238.589 217.003 238.376 217.003C238.352 217.003 238.329 217.003 238.281 217.003L238.281 217.003Z" fill-rule="evenodd"  fill="#EAEAFF" >
</path>
<path d="M220.551 238.84C220.527 238.579 220.716 238.343 220.976 238.319L247.359 235.974C247.619 235.95 247.856 236.14 247.88 236.4C247.903 236.661 247.714 236.898 247.454 236.922L221.071 239.243C221.071 239.243 221.047 239.266 221.024 239.266C220.787 239.266 220.575 239.077 220.551 238.84L220.551 238.84Z" fill-rule="evenodd"  fill="#EAEAFF" >
</path>
<path d="M102.938 232.421C102.938 232.161 103.128 231.948 103.388 231.924L129.227 231.071C129.487 231.071 129.7 231.261 129.723 231.521C129.723 231.782 129.534 231.995 129.274 232.019L103.411 232.871C103.151 232.871 102.938 232.658 102.938 232.421L102.938 232.421Z" fill-rule="evenodd"  fill="#EAEAFF" >
</path>
<path d="M128.234 236.022C128.045 235.974 127.927 235.785 127.998 235.595L134.381 212.622C134.428 212.432 134.641 212.314 134.806 212.385C134.995 212.432 135.114 212.622 135.043 212.811L128.66 235.785C128.636 235.927 128.494 236.046 128.329 236.046C128.305 236.046 128.258 236.046 128.234 236.022L128.234 236.022Z" fill-rule="evenodd"  fill="#1F1F39" >
</path>
<path d="M221.686 243.008L212.229 212.219C212.182 212.029 212.277 211.84 212.466 211.769C212.655 211.721 212.844 211.816 212.915 212.006L222.371 242.795C222.418 242.985 222.324 243.174 222.135 243.245C222.087 243.269 222.04 243.269 222.016 243.269C221.875 243.269 221.733 243.174 221.686 243.008L221.686 243.008Z" fill-rule="evenodd"  fill="#1F1F39" >
</path>
<circle cx="104" cy="175" r="3"   fill="#DCEBFC" >
</circle>
<circle cx="114" cy="171" r="3"   fill="#DCEBFC" >
</circle>
<circle cx="123" cy="167" r="3"   fill="#DCEBFC" >
</circle>
</svg>
